<svg xmlns="http://www.w3.org/2000/svg" viewBox="0 0 64 64"><defs><style>.cls-1{fill:none;stroke:red;stroke-miterlimit:10;stroke-width:3px;}</style></defs><g id="Warstwa_1" data-name="Warstwa 1"><path d="M58.91,46.06h-8a5,5,0,0,0-5,5v2.75h-5V51.06a5,5,0,0,0-5-5H32.12l1.26,0-.15-5h2.68a5,5,0,0,0,5-5V28a5,5,0,0,0-5-5H33.16V17.94h2.75a5,5,0,0,0,5-5v-8a5,5,0,0,0-5-5h-8a5,5,0,0,0-5,5V7.69h-5V4.94a5,5,0,0,0-5-5h-8a5,5,0,0,0-5,5v8a5,5,0,0,0,5,5h8a5,5,0,0,0,5-5V10.19h5v2.75a5,5,0,0,0,5,5h2.75V23H27.91a5,5,0,0,0-5,5v8a5,5,0,0,0,5,5h2.82l.15,5.06h-3a5,5,0,0,0-5,5v8a5,5,0,0,0,5,5h8a5,5,0,0,0,5-5V56.31h5v2.75a5,5,0,0,0,5,5h8a5,5,0,0,0,5-5v-8A5,5,0,0,0,58.91,46.06ZM15.41,12.94a2.5,2.5,0,0,1-2.5,2.5h-8a2.5,2.5,0,0,1-2.5-2.5v-8a2.51,2.51,0,0,1,2.5-2.5h8a2.51,2.51,0,0,1,2.5,2.5Zm10,0v-8a2.51,2.51,0,0,1,2.5-2.5h8a2.51,2.51,0,0,1,2.5,2.5v8a2.5,2.5,0,0,1-2.5,2.5h-8A2.5,2.5,0,0,1,25.41,12.94Zm0,23.06V28a2.5,2.5,0,0,1,2.5-2.5h8a2.5,2.5,0,0,1,2.5,2.5v8a2.5,2.5,0,0,1-2.5,2.5H33.16v0l-1.24,0h-4A2.5,2.5,0,0,1,25.41,36Zm13,23.06a2.51,2.51,0,0,1-2.5,2.5h-8a2.51,2.51,0,0,1-2.5-2.5v-8a2.5,2.5,0,0,1,2.5-2.5h8a2.5,2.5,0,0,1,2.5,2.5v8Zm23,0a2.51,2.51,0,0,1-2.5,2.5h-8a2.51,2.51,0,0,1-2.5-2.5v-8a2.5,2.5,0,0,1,2.5-2.5h8a2.5,2.5,0,0,1,2.5,2.5Z"/><polygon class="cls-1" points="-672.11 -558.19 -347.62 -558.19 -347.62 -218.12 585.98 -210.04 585.98 -104.61 327.81 -104.51 327.81 71.95 -768.47 71.95 -769.92 -451.35 -962.65 -452.89 -962.65 -617.66 -672.11 -617.59 -672.11 -558.19"/></g></svg>