<svg id="Warstwa_1" data-name="Warstwa 1" xmlns="http://www.w3.org/2000/svg" viewBox="0 0 64 64"><path d="M12.24,22.46H6.68A18.25,18.25,0,0,1,7,19.07a7.92,7.92,0,0,1,1-2.58,11.73,11.73,0,0,1,2-2.28c.69-.62,1.28-1.2,1.79-1.75A7.19,7.19,0,0,0,13,10.75a4.38,4.38,0,0,0,.43-2A5,5,0,0,0,13,6.68,2.72,2.72,0,0,0,11.88,5.4,3.71,3.71,0,0,0,10,5a3.84,3.84,0,0,0-1.75.4A3.31,3.31,0,0,0,6.93,6.6,4.2,4.2,0,0,0,6.4,8.78H.08A9,9,0,0,1,1.47,3.85,7.83,7.83,0,0,1,5,1,12.61,12.61,0,0,1,10,0a12.53,12.53,0,0,1,5.22,1,7.31,7.31,0,0,1,3.34,2.9,8.76,8.76,0,0,1,1.15,4.63A7.42,7.42,0,0,1,19,11.88,11.12,11.12,0,0,1,17,14.62c-.8.84-1.68,1.71-2.63,2.61a5.84,5.84,0,0,0-1.69,2.33A8.64,8.64,0,0,0,12.24,22.46ZM6,29.19a3.09,3.09,0,0,1,1-2.32A3.56,3.56,0,0,1,9.56,26a3.59,3.59,0,0,1,2.56.92,3.22,3.22,0,0,1,0,4.61,3.51,3.51,0,0,1-2.56.94A3.49,3.49,0,0,1,7,31.48,3.07,3.07,0,0,1,6,29.19Z"/><path d="M59,48.26a2.51,2.51,0,0,1,2.5,2.5v8a2.5,2.5,0,0,1-2.5,2.5H51a2.51,2.51,0,0,1-2.5-2.5v-8a2.51,2.51,0,0,1,2.5-2.5h8m0-2.5H51a5,5,0,0,0-5,5v8a5,5,0,0,0,5,5h8a5,5,0,0,0,5-5v-8a5,5,0,0,0-5-5Z"/><path d="M13,48.26a2.51,2.51,0,0,1,2.5,2.5v8a2.5,2.5,0,0,1-2.5,2.5H5a2.51,2.51,0,0,1-2.5-2.5v-8A2.51,2.51,0,0,1,5,48.26h8m0-2.5H5a5,5,0,0,0-5,5v8a5,5,0,0,0,5,5h8a5,5,0,0,0,5-5v-8a5,5,0,0,0-5-5Z"/><path d="M36,48.26a2.51,2.51,0,0,1,2.5,2.5v8a2.5,2.5,0,0,1-2.5,2.5H28a2.51,2.51,0,0,1-2.5-2.5v-8a2.51,2.51,0,0,1,2.5-2.5h8m0-2.5H28a5,5,0,0,0-5,5v8a5,5,0,0,0,5,5h8a5,5,0,0,0,5-5v-8a5,5,0,0,0-5-5Z"/><path d="M59.16,22.68a2.5,2.5,0,0,1,2.5,2.5v8a2.5,2.5,0,0,1-2.5,2.5h-8a2.5,2.5,0,0,1-2.5-2.5v-8a2.5,2.5,0,0,1,2.5-2.5h8m0-2.5h-8a5,5,0,0,0-5,5v8a5,5,0,0,0,5,5h8a5,5,0,0,0,5-5v-8a5,5,0,0,0-5-5Z"/><path d="M36.16,22.68a2.5,2.5,0,0,1,2.5,2.5v8a2.5,2.5,0,0,1-2.5,2.5h-8a2.5,2.5,0,0,1-2.5-2.5v-8a2.5,2.5,0,0,1,2.5-2.5h8m0-2.5h-8a5,5,0,0,0-5,5v8a5,5,0,0,0,5,5h8a5,5,0,0,0,5-5v-8a5,5,0,0,0-5-5Z"/></svg>