<svg xmlns="http://www.w3.org/2000/svg" viewBox="0 0 64 64"><defs><style>.cls-1,.cls-2{fill:none;}.cls-1{stroke:red;stroke-miterlimit:10;stroke-width:3px;}</style></defs><g id="Warstwa_1" data-name="Warstwa 1"><polygon class="cls-1" points="-756.11 -558.19 -431.62 -558.19 -431.62 -218.12 501.98 -210.04 501.98 -104.61 243.81 -104.51 243.81 71.95 -852.47 71.95 -853.92 -451.35 -1046.65 -452.89 -1046.65 -617.66 -756.11 -617.59 -756.11 -558.19"/><path class="cls-2" d="M46.12,12.65V11.06a24.55,24.55,0,0,0-5-2.62v4.21a5,5,0,0,1-5,5h-8a5,5,0,0,1-5-5V8.44a24,24,0,0,0-5,2.62v1.59a5,5,0,0,1-5,5H11.51a24.69,24.69,0,0,0-2.67,5.06h4.28a5,5,0,0,1,5,5v8a5,5,0,0,1-5,5H8.84a24.61,24.61,0,0,0,2.67,5h1.61a5,5,0,0,1,5,5v1.6a25,25,0,0,0,5,2.62V50.76a5,5,0,0,1,5-5h8a5,5,0,0,1,5,5V55a25.59,25.59,0,0,0,5-2.62v-1.6a5,5,0,0,1,5-5h1.6a24.61,24.61,0,0,0,2.67-5H51.12a5,5,0,0,1-5-5v-8a5,5,0,0,1,5-5h4.27a24.69,24.69,0,0,0-2.67-5.06h-1.6A5,5,0,0,1,46.12,12.65Z"/><path d="M18.12,12.65V11.06a24.36,24.36,0,0,0-2.54,2,2.48,2.48,0,0,1-2.08,2.07,23.17,23.17,0,0,0-2,2.54h1.61A5,5,0,0,0,18.12,12.65Z"/><path d="M5.12,15.15a2.5,2.5,0,0,1-2.5-2.5v-8a2.5,2.5,0,0,1,2.5-2.5h8a2.51,2.51,0,0,1,2.5,2.5V9.78a26.61,26.61,0,0,1,2.5-1.68V4.65a5,5,0,0,0-5-5h-8a5,5,0,0,0-5,5v8a5,5,0,0,0,5,5H8.54a28.08,28.08,0,0,1,1.69-2.5Z"/><path d="M48.65,13a24.24,24.24,0,0,0-2.53-2v1.59a5,5,0,0,0,5,5h1.6a23.17,23.17,0,0,0-2-2.54A2.49,2.49,0,0,1,48.65,13Z"/><path d="M48.62,4.65a2.5,2.5,0,0,1,2.5-2.5h8a2.51,2.51,0,0,1,2.5,2.5v8a2.51,2.51,0,0,1-2.5,2.5H54a28.08,28.08,0,0,1,1.69,2.5h3.43a5,5,0,0,0,5-5v-8a5,5,0,0,0-5-5h-8a5,5,0,0,0-5,5V8.1a29.5,29.5,0,0,1,2.5,1.68Z"/><path d="M25.62,4.65a2.5,2.5,0,0,1,2.5-2.5h8a2.51,2.51,0,0,1,2.5,2.5V5c.84.21,1.68.46,2.5.74V4.65a5,5,0,0,0-5-5h-8a5,5,0,0,0-5,5V5.77c.81-.28,1.65-.53,2.5-.74Z"/><path d="M28.12,17.65h8a5,5,0,0,0,5-5V8.44a24.4,24.4,0,0,0-2.5-.83v5a2.51,2.51,0,0,1-2.5,2.5h-8a2.5,2.5,0,0,1-2.5-2.5v-5a22.88,22.88,0,0,0-2.5.83v4.21A5,5,0,0,0,28.12,17.65Z"/><path d="M15.62,58.76a2.51,2.51,0,0,1-2.5,2.5h-8a2.5,2.5,0,0,1-2.5-2.5v-8a2.51,2.51,0,0,1,2.5-2.5h5.11a26.7,26.7,0,0,1-1.69-2.5H5.12a5,5,0,0,0-5,5v8a5,5,0,0,0,5,5h8a5,5,0,0,0,5-5V55.31a26.52,26.52,0,0,1-2.5-1.67Z"/><path d="M13.12,45.76H11.51a23.17,23.17,0,0,0,2,2.54,2.5,2.5,0,0,1,2.08,2.08,25.79,25.79,0,0,0,2.54,2v-1.6A5,5,0,0,0,13.12,45.76Z"/><path d="M59.12,48.26a2.51,2.51,0,0,1,2.5,2.5v8a2.51,2.51,0,0,1-2.5,2.5h-8a2.5,2.5,0,0,1-2.5-2.5V53.64a29.38,29.38,0,0,1-2.5,1.67v3.45a5,5,0,0,0,5,5h8a5,5,0,0,0,5-5v-8a5,5,0,0,0-5-5H55.69A26.7,26.7,0,0,1,54,48.26Z"/><path d="M46.12,50.76v1.6a25.66,25.66,0,0,0,2.53-2,2.52,2.52,0,0,1,2.08-2.08,23.17,23.17,0,0,0,2-2.54h-1.6A5,5,0,0,0,46.12,50.76Z"/><path d="M36.12,45.76h-8a5,5,0,0,0-5,5V55a25.21,25.21,0,0,0,2.5.82v-5a2.51,2.51,0,0,1,2.5-2.5h8a2.51,2.51,0,0,1,2.5,2.5v5c.85-.23,1.68-.51,2.5-.82V50.76A5,5,0,0,0,36.12,45.76Z"/><path d="M38.62,58.76a2.51,2.51,0,0,1-2.5,2.5h-8a2.5,2.5,0,0,1-2.5-2.5v-.38a25.75,25.75,0,0,1-2.5-.74v1.12a5,5,0,0,0,5,5h8a5,5,0,0,0,5-5V57.64c-.82.29-1.66.53-2.5.74Z"/><path d="M18.12,35.71v-8a5,5,0,0,0-5-5H8.84A26.09,26.09,0,0,0,8,25.21h5.1a2.51,2.51,0,0,1,2.5,2.5v8a2.51,2.51,0,0,1-2.5,2.5H8c.23.85.51,1.68.82,2.5h4.28A5,5,0,0,0,18.12,35.71Z"/><path d="M5.12,38.21a2.5,2.5,0,0,1-2.5-2.5v-8a2.5,2.5,0,0,1,2.5-2.5h.32c.21-.85.46-1.69.74-2.5H5.12a5,5,0,0,0-5,5v8a5,5,0,0,0,5,5H6.18c-.28-.82-.53-1.65-.74-2.5Z"/><path d="M46.12,27.71v8a5,5,0,0,0,5,5h4.27c.31-.82.59-1.65.82-2.5H51.12a2.5,2.5,0,0,1-2.5-2.5v-8a2.5,2.5,0,0,1,2.5-2.5h5.09a26.09,26.09,0,0,0-.82-2.5H51.12A5,5,0,0,0,46.12,27.71Z"/><path d="M59.12,25.21a2.51,2.51,0,0,1,2.5,2.5v8a2.51,2.51,0,0,1-2.5,2.5h-.33c-.21.85-.46,1.68-.74,2.5h1.07a5,5,0,0,0,5-5v-8a5,5,0,0,0-5-5H58.05c.28.81.53,1.65.74,2.5Z"/><path d="M18.12,52.36v3a26.81,26.81,0,0,0,5,2.33V55A25,25,0,0,1,18.12,52.36Z"/><path d="M8.84,40.71H6.18a27.37,27.37,0,0,0,2.36,5h3A24.61,24.61,0,0,1,8.84,40.71Z"/><path d="M52.72,45.76h3a27.37,27.37,0,0,0,2.36-5H55.39A24.61,24.61,0,0,1,52.72,45.76Z"/><path d="M41.12,55v2.66a27.41,27.41,0,0,0,5-2.33v-3A25.59,25.59,0,0,1,41.12,55Z"/><path d="M52.72,17.65a24.69,24.69,0,0,1,2.67,5.06h2.66a27.46,27.46,0,0,0-2.36-5.06Z"/><path d="M11.51,17.65h-3a27.46,27.46,0,0,0-2.36,5.06H8.84A24.69,24.69,0,0,1,11.51,17.65Z"/><path d="M23.12,8.44V5.77a26.81,26.81,0,0,0-5,2.33v3A24,24,0,0,1,23.12,8.44Z"/><path d="M46.12,11.06v-3a27.41,27.41,0,0,0-5-2.33V8.44A24.55,24.55,0,0,1,46.12,11.06Z"/><path d="M15.62,12.65a2.58,2.58,0,0,1,0,.39,24.36,24.36,0,0,1,2.54-2v-3a26.61,26.61,0,0,0-2.5,1.68Z"/><path d="M13.5,15.11a2.45,2.45,0,0,1-.38,0H10.23a28.08,28.08,0,0,0-1.69,2.5h3A23.17,23.17,0,0,1,13.5,15.11Z"/><path d="M51.12,15.15a2.45,2.45,0,0,1-.39,0,23.17,23.17,0,0,1,2,2.54h3A28.08,28.08,0,0,0,54,15.15Z"/><path d="M48.65,13a2.56,2.56,0,0,1,0-.39V9.78a29.5,29.5,0,0,0-2.5-1.68v3A24.24,24.24,0,0,1,48.65,13Z"/><path d="M25.62,7.61V5c-.85.21-1.69.46-2.5.74V8.44A22.88,22.88,0,0,1,25.62,7.61Z"/><path d="M38.62,7.61a24.4,24.4,0,0,1,2.5.83V5.77c-.82-.28-1.66-.53-2.5-.74Z"/><path d="M13.12,48.26a2.45,2.45,0,0,1,.38,0,23.17,23.17,0,0,1-2-2.54h-3a26.7,26.7,0,0,0,1.69,2.5Z"/><path d="M15.58,50.38a2.33,2.33,0,0,1,0,.38v2.88a26.52,26.52,0,0,0,2.5,1.67v-3A25.79,25.79,0,0,1,15.58,50.38Z"/><path d="M50.73,48.3a2.45,2.45,0,0,1,.39,0H54a26.7,26.7,0,0,0,1.69-2.5h-3A23.17,23.17,0,0,1,50.73,48.3Z"/><path d="M48.62,50.76a2.34,2.34,0,0,1,0-.38,25.66,25.66,0,0,1-2.53,2v3a29.38,29.38,0,0,0,2.5-1.67Z"/><path d="M38.62,55.8v2.58c.84-.21,1.68-.45,2.5-.74V55C40.3,55.29,39.47,55.57,38.62,55.8Z"/><path d="M25.62,55.8a25.21,25.21,0,0,1-2.5-.82v2.66a25.75,25.75,0,0,0,2.5.74Z"/><path d="M8,25.21a26.09,26.09,0,0,1,.82-2.5H6.18c-.28.81-.53,1.65-.74,2.5Z"/><path d="M8,38.21H5.44c.21.85.46,1.68.74,2.5H8.84C8.53,39.89,8.25,39.06,8,38.21Z"/><path d="M56.21,38.21c-.23.85-.51,1.68-.82,2.5h2.66c.28-.82.53-1.65.74-2.5Z"/><path d="M56.21,25.21h2.58c-.21-.85-.46-1.69-.74-2.5H55.39A26.09,26.09,0,0,1,56.21,25.21Z"/></g></svg>