<svg xmlns="http://www.w3.org/2000/svg" xmlns:xlink="http://www.w3.org/1999/xlink" viewBox="0 0 64 64"><defs><style>.cls-1,.cls-2{fill:none;}.cls-1{stroke:red;stroke-miterlimit:10;stroke-width:3px;}.cls-3{fill:url(#Gradient_bez_nazwy_2);}</style><linearGradient id="Gradient_bez_nazwy_2" x1="9355.21" y1="-1461.12" x2="9383.14" y2="-1461.12" gradientTransform="translate(9416.66 -1427.72) rotate(180)" gradientUnits="userSpaceOnUse"><stop offset="0.01" stop-color="#d7e1ed"/><stop offset="1" stop-color="#eaf0f9"/></linearGradient></defs><g id="Warstwa_1" data-name="Warstwa 1"><polygon class="cls-1" points="-84.11 -469.48 240.38 -469.48 240.38 -129.41 1173.97 -121.33 1173.97 -15.9 915.81 -15.8 915.81 160.66 -180.47 160.66 -181.93 -362.64 -374.65 -364.18 -374.65 -528.95 -84.11 -528.88 -84.11 -469.48"/><path class="cls-2" d="M46.32,20.87c0,3.78-3.47,6.85-7.76,6.85H33.51V61.11l28-6.84v-45L46.21,5.7a6.12,6.12,0,0,1,.11,1.14Z"/><path d="M62.92,7,44.85,2.82A6.5,6.5,0,0,1,46.21,5.7L61.52,9.23v45l-28,6.84V27.72H31V62.34a1.76,1.76,0,0,0,.5,1.24,1.26,1.26,0,0,0,.86.35h0a1.24,1.24,0,0,0,.27,0l30.3-7.4A1.56,1.56,0,0,0,64,54.94V8.56A1.56,1.56,0,0,0,62.92,7Z"/><path d="M7.83,25.22c-2.91,0-5.27-1.95-5.27-4.35v-14c0-2.41,2.36-4.36,5.27-4.36H31V1.57a1.7,1.7,0,0,1,.5-1.23A1.21,1.21,0,0,1,32.37,0H7.83C3.54,0,.06,3.05.06,6.84v14c0,3.78,3.48,6.85,7.77,6.85H31v-2.5Z"/><path d="M44.85,2.82A8.11,8.11,0,0,0,38.56,0H32.37a1.15,1.15,0,0,1,.26,0Z"/><path d="M43.82,6.84v14c0,2.4-2.36,4.35-5.26,4.35H33.51v2.5h5.05c4.29,0,7.76-3.07,7.76-6.85v-14a6.12,6.12,0,0,0-.11-1.14L43.34,5A3.64,3.64,0,0,1,43.82,6.84Z"/><rect x="31.01" y="25.22" width="2.5" height="2.5"/><path d="M31,1.57v.91h7.55A5.38,5.38,0,0,1,43.34,5l2.87.66a6.5,6.5,0,0,0-1.36-2.88L32.63,0a1.15,1.15,0,0,0-.26,0,1.21,1.21,0,0,0-.86.36A1.7,1.7,0,0,0,31,1.57Z"/><path d="M15.44,37.79a1.19,1.19,0,0,1,1,.6l9.64,16.7a1.17,1.17,0,0,1,0,1.2,1.2,1.2,0,0,1-1,.6H5.8a1.2,1.2,0,0,1-1-.6,1.17,1.17,0,0,1,0-1.2l9.64-16.7A1.18,1.18,0,0,1,15.44,37.79ZM23,54.49l-7.56-13.1L7.88,54.49Z"/><path class="cls-3" d="M46.4,6.84v14c0,3.78-3.48,6.85-7.77,6.85h-5V61.11l11.78-2.88,16.07-4.1V9.2L46.28,5.7A6.12,6.12,0,0,1,46.4,6.84Z"/><path d="M26.69,19a1,1,0,0,1,.34-.8,1.18,1.18,0,0,1,.88-.32,1.2,1.2,0,0,1,.89.32,1.11,1.11,0,0,1,0,1.6,1.21,1.21,0,0,1-.89.33,1.18,1.18,0,0,1-.88-.33A1,1,0,0,1,26.69,19Z"/><path d="M31.15,19a1.06,1.06,0,0,1,.33-.8,1.2,1.2,0,0,1,.89-.32,1.22,1.22,0,0,1,.89.32,1.13,1.13,0,0,1,0,1.6,1.22,1.22,0,0,1-.89.33,1.21,1.21,0,0,1-.89-.33A1.06,1.06,0,0,1,31.15,19Z"/><path d="M35.6,19a1,1,0,0,1,.34-.8,1.18,1.18,0,0,1,.88-.32,1.2,1.2,0,0,1,.89.32,1.11,1.11,0,0,1,0,1.6,1.21,1.21,0,0,1-.89.33,1.18,1.18,0,0,1-.88-.33A1,1,0,0,1,35.6,19Z"/></g></svg>