<svg xmlns="http://www.w3.org/2000/svg" viewBox="0 0 64 64"><defs><style>.cls-1{fill:none;stroke:red;stroke-width:3px;}.cls-1,.cls-3{stroke-miterlimit:10;}.cls-2{fill:#fff;}.cls-3{stroke:#000;stroke-linecap:round;stroke-width:5px;}</style></defs><g id="nazwy"><polygon class="cls-1" points="-1260.11 -469.48 -935.62 -469.48 -935.62 -129.41 -2.02 -121.33 1625.01 -128.81 1625.01 162.72 -260.19 160.66 -1356.47 160.66 -1357.92 -362.64 -1550.65 -364.18 -1550.65 -528.95 -1260.11 -528.88 -1260.11 -469.48"/></g><g id="Warstwa_1" data-name="Warstwa 1"><rect class="cls-2" x="1.25" y="1.25" width="61.5" height="61.5" rx="10.75"/><path d="M52,2.5A9.51,9.51,0,0,1,61.5,12V52A9.51,9.51,0,0,1,52,61.5H12A9.51,9.51,0,0,1,2.5,52V12A9.51,9.51,0,0,1,12,2.5H52M52,0H12A12,12,0,0,0,0,12V52A12,12,0,0,0,12,64H52A12,12,0,0,0,64,52V12A12,12,0,0,0,52,0Z"/><line class="cls-3" x1="14.78" y1="32" x2="49.22" y2="32"/><line class="cls-3" x1="32" y1="15.06" x2="32" y2="48.94"/></g></svg>