<svg xmlns="http://www.w3.org/2000/svg" viewBox="0 0 64 64"><defs><style>.cls-1{fill:none;stroke:red;stroke-miterlimit:10;stroke-width:3px;}</style></defs><g id="Warstwa_1" data-name="Warstwa 1"><path d="M13,48.5A2.5,2.5,0,0,1,15.5,51v8A2.5,2.5,0,0,1,13,61.5H5A2.5,2.5,0,0,1,2.5,59V51A2.5,2.5,0,0,1,5,48.5h8M13,46H5a5,5,0,0,0-5,5v8a5,5,0,0,0,5,5h8a5,5,0,0,0,5-5V51a5,5,0,0,0-5-5Z"/><path d="M59,48.5A2.5,2.5,0,0,1,61.5,51v8A2.5,2.5,0,0,1,59,61.5H51A2.5,2.5,0,0,1,48.5,59V51A2.5,2.5,0,0,1,51,48.5h8M59,46H51a5,5,0,0,0-5,5v8a5,5,0,0,0,5,5h8a5,5,0,0,0,5-5V51a5,5,0,0,0-5-5Z"/><path d="M36,48.5A2.5,2.5,0,0,1,38.5,51v8A2.5,2.5,0,0,1,36,61.5H28A2.5,2.5,0,0,1,25.5,59V51A2.5,2.5,0,0,1,28,48.5h8M36,46H28a5,5,0,0,0-5,5v8a5,5,0,0,0,5,5h8a5,5,0,0,0,5-5V51a5,5,0,0,0-5-5Z"/><path d="M13,25.44a2.51,2.51,0,0,1,2.5,2.5v8a2.5,2.5,0,0,1-2.5,2.5H5a2.5,2.5,0,0,1-2.5-2.5v-8A2.51,2.51,0,0,1,5,25.44h8m0-2.5H5a5,5,0,0,0-5,5v8a5,5,0,0,0,5,5h8a5,5,0,0,0,5-5v-8a5,5,0,0,0-5-5Z"/><path d="M59,25.44a2.51,2.51,0,0,1,2.5,2.5v8a2.5,2.5,0,0,1-2.5,2.5H51a2.5,2.5,0,0,1-2.5-2.5v-8a2.51,2.51,0,0,1,2.5-2.5h8m0-2.5H51a5,5,0,0,0-5,5v8a5,5,0,0,0,5,5h8a5,5,0,0,0,5-5v-8a5,5,0,0,0-5-5Z"/><path d="M36,25.44a2.51,2.51,0,0,1,2.5,2.5v8a2.5,2.5,0,0,1-2.5,2.5H28a2.5,2.5,0,0,1-2.5-2.5v-8a2.51,2.51,0,0,1,2.5-2.5h8m0-2.5H28a5,5,0,0,0-5,5v8a5,5,0,0,0,5,5h8a5,5,0,0,0,5-5v-8a5,5,0,0,0-5-5Z"/><path d="M59,2.39a2.5,2.5,0,0,1,2.5,2.5v8a2.5,2.5,0,0,1-2.5,2.5H5a2.5,2.5,0,0,1-2.5-2.5v-8A2.5,2.5,0,0,1,5,2.39H59m0-2.5H5a5,5,0,0,0-5,5v8a5,5,0,0,0,5,5H59a5,5,0,0,0,5-5v-8a5,5,0,0,0-5-5Z"/><polygon class="cls-1" points="-252.11 -31.12 72.38 -31.12 72.38 308.95 1005.98 317.02 1005.98 422.46 747.81 422.56 747.81 599.02 -348.47 599.02 -349.93 75.72 -542.65 74.18 -542.65 -90.6 -252.11 -90.53 -252.11 -31.12"/></g></svg>