<svg xmlns="http://www.w3.org/2000/svg" viewBox="0 0 64 64"><defs><style>.cls-1{fill:none;stroke:red;stroke-miterlimit:10;stroke-width:3px;}.cls-2{fill:#fff;}</style></defs><g id="nazwy"><polygon class="cls-1" points="-1428.11 -558.19 -1103.62 -558.19 -1103.62 -218.12 -170.03 -210.04 1457.01 -217.52 1457.01 74.01 -428.19 71.95 -1524.47 71.95 -1525.92 -451.35 -1718.65 -452.89 -1718.65 -617.66 -1428.11 -617.59 -1428.11 -558.19"/></g><g id="Warstwa_1" data-name="Warstwa 1"><rect class="cls-2" x="1.25" y="1.25" width="61.5" height="61.5" rx="10.75"/><path d="M52,2.5A9.51,9.51,0,0,1,61.5,12V52A9.51,9.51,0,0,1,52,61.5H12A9.51,9.51,0,0,1,2.5,52V12A9.51,9.51,0,0,1,12,2.5H52M52,0H12A12,12,0,0,0,0,12V52A12,12,0,0,0,12,64H52A12,12,0,0,0,64,52V12A12,12,0,0,0,52,0Z"/></g></svg>