<svg xmlns="http://www.w3.org/2000/svg" viewBox="0 0 64 64"><defs><style>.cls-1{fill:none;stroke:red;stroke-miterlimit:10;stroke-width:3px;}</style></defs><g id="Warstwa_1" data-name="Warstwa 1"><path d="M50.1,5.89A11.3,11.3,0,0,1,61.39,17.18V31.86c0,.1,0,.2,0,.3V55.69l-14.93-12-.69-.55H13.67A11.29,11.29,0,0,1,2.39,31.86V17.18A11.29,11.29,0,0,1,13.67,5.89H50.1m0-2.5H13.67A13.8,13.8,0,0,0-.11,17.18V31.86A13.8,13.8,0,0,0,13.67,45.65H44.89l19,15.25V32.72l0-.44c0-.14,0-.28,0-.42V17.18A13.8,13.8,0,0,0,50.1,3.39Z"/><polygon class="cls-1" points="-168.11 -31.12 156.38 -31.12 156.38 308.95 1089.97 317.02 1089.97 422.46 831.81 422.56 831.81 599.02 -264.47 599.02 -265.93 75.72 -458.65 74.18 -458.65 -90.6 -168.11 -90.53 -168.11 -31.12"/></g></svg>