<svg id="Warstwa_1" data-name="Warstwa 1" xmlns="http://www.w3.org/2000/svg" viewBox="0 0 64 64"><defs><style>.cls-1{fill:none;stroke:#fff;stroke-miterlimit:10;stroke-width:2.5px;}</style></defs><path d="M12,47.32a14.36,14.36,0,0,0,18.07.24,18.16,18.16,0,0,1,8.76,13.85h-36A18.12,18.12,0,0,1,12,47.32m.48-3.19A20.72,20.72,0,0,0,.11,63.1c0,.32,0,.64,0,.95H41.54c0-.31,0-.63,0-.95A20.71,20.71,0,0,0,29.67,44.35a11.73,11.73,0,0,1-17.19-.22Z"/><path d="M21.18,27.35a7.59,7.59,0,1,1-7.6,7.6,7.61,7.61,0,0,1,7.6-7.6m0-2.65A10.24,10.24,0,1,0,31.42,35,10.25,10.25,0,0,0,21.18,24.7Z"/><circle cx="50.4" cy="13.77" r="13.6"/><polygon points="45.08 29.09 45.08 41.26 50.75 35.18 55.72 41.26 55.72 29.09 45.08 29.09"/><polyline class="cls-1" points="42.15 13.68 47.73 19.27 58.65 8.35"/></svg>