<svg id="Warstwa_1" data-name="Warstwa 1" xmlns="http://www.w3.org/2000/svg" viewBox="0 0 64 64"><path d="M24.5,36.9A2.51,2.51,0,0,1,27,39.4v8a2.5,2.5,0,0,1-2.5,2.5h-8A2.5,2.5,0,0,1,14,47.4v-8a2.51,2.51,0,0,1,2.5-2.5h8m0-2.5h-8a5,5,0,0,0-5,5v8a5,5,0,0,0,5,5h8a5,5,0,0,0,5-5v-8a5,5,0,0,0-5-5Z"/><path d="M47.5,36.9A2.51,2.51,0,0,1,50,39.4v8a2.5,2.5,0,0,1-2.5,2.5h-8A2.5,2.5,0,0,1,37,47.4v-8a2.51,2.51,0,0,1,2.5-2.5h8m0-2.5h-8a5,5,0,0,0-5,5v8a5,5,0,0,0,5,5h8a5,5,0,0,0,5-5v-8a5,5,0,0,0-5-5Z"/><path d="M13,2.5A2.5,2.5,0,0,1,15.5,5v8A2.5,2.5,0,0,1,13,15.5H5A2.5,2.5,0,0,1,2.5,13V5A2.5,2.5,0,0,1,5,2.5h8M13,0H5A5,5,0,0,0,0,5v8a5,5,0,0,0,5,5h8a5,5,0,0,0,5-5V5a5,5,0,0,0-5-5Z"/><path d="M47.5,13.85a2.5,2.5,0,0,1,2.5,2.5v8a2.5,2.5,0,0,1-2.5,2.5h-8a2.5,2.5,0,0,1-2.5-2.5v-8a2.5,2.5,0,0,1,2.5-2.5h8m0-2.5h-8a5,5,0,0,0-5,5v8a5,5,0,0,0,5,5h8a5,5,0,0,0,5-5v-8a5,5,0,0,0-5-5Z"/></svg>