<svg xmlns="http://www.w3.org/2000/svg" viewBox="0 0 64 64"><defs><style>.cls-1{fill:none;stroke:red;stroke-miterlimit:10;stroke-width:3px;}</style></defs><g id="Warstwa_1" data-name="Warstwa 1"><path d="M24.5,36.9A2.51,2.51,0,0,1,27,39.4v8a2.5,2.5,0,0,1-2.5,2.5h-8A2.5,2.5,0,0,1,14,47.4v-8a2.51,2.51,0,0,1,2.5-2.5h8m0-2.5h-8a5,5,0,0,0-5,5v8a5,5,0,0,0,5,5h8a5,5,0,0,0,5-5v-8a5,5,0,0,0-5-5Z"/><path d="M47.5,36.9A2.51,2.51,0,0,1,50,39.4v8a2.5,2.5,0,0,1-2.5,2.5h-8A2.5,2.5,0,0,1,37,47.4v-8a2.51,2.51,0,0,1,2.5-2.5h8m0-2.5h-8a5,5,0,0,0-5,5v8a5,5,0,0,0,5,5h8a5,5,0,0,0,5-5v-8a5,5,0,0,0-5-5Z"/><path d="M13,2.5A2.5,2.5,0,0,1,15.5,5v8A2.5,2.5,0,0,1,13,15.5H5A2.5,2.5,0,0,1,2.5,13V5A2.5,2.5,0,0,1,5,2.5h8M13,0H5A5,5,0,0,0,0,5v8a5,5,0,0,0,5,5h8a5,5,0,0,0,5-5V5a5,5,0,0,0-5-5Z"/><path d="M47.5,13.85a2.5,2.5,0,0,1,2.5,2.5v8a2.5,2.5,0,0,1-2.5,2.5h-8a2.5,2.5,0,0,1-2.5-2.5v-8a2.5,2.5,0,0,1,2.5-2.5h8m0-2.5h-8a5,5,0,0,0-5,5v8a5,5,0,0,0,5,5h8a5,5,0,0,0,5-5v-8a5,5,0,0,0-5-5Z"/><polygon class="cls-1" points="-420.11 -367.12 -95.62 -367.12 -95.62 -27.05 837.98 -18.98 837.98 86.46 579.81 86.56 579.81 263.02 -516.47 263.02 -517.92 -260.29 -710.65 -261.82 -710.65 -426.6 -420.11 -426.53 -420.11 -367.12"/></g></svg>