<svg xmlns="http://www.w3.org/2000/svg" viewBox="0 0 64 64"><defs><style>.cls-1,.cls-2{fill:none;stroke-miterlimit:10;}.cls-1{stroke:red;stroke-width:3px;}.cls-2{stroke:#fff;stroke-width:2.5px;}</style></defs><g id="Warstwa_1" data-name="Warstwa 1"><path d="M22.25-2.87h0v3h-.8v-7.3h.8v.88h0a1.89,1.89,0,0,1,1.73-1,1.86,1.86,0,0,1,1.51.67A2.8,2.8,0,0,1,26-4.8a3.07,3.07,0,0,1-.61,2A2,2,0,0,1,23.75-2,1.67,1.67,0,0,1,22.25-2.87Zm0-2v.7a1.53,1.53,0,0,0,.4,1.05,1.34,1.34,0,0,0,1,.43,1.35,1.35,0,0,0,1.14-.55,2.62,2.62,0,0,0,.41-1.55,2,2,0,0,0-.39-1.31,1.24,1.24,0,0,0-1-.47,1.41,1.41,0,0,0-1.12.48A1.75,1.75,0,0,0,22.23-4.89Z"/><polygon class="cls-1" points="-84.11 -283.12 240.38 -283.12 240.38 56.95 1173.97 65.02 1173.97 170.46 915.81 170.56 915.81 347.02 -180.47 347.02 -181.93 -176.28 -374.65 -177.82 -374.65 -342.6 -84.11 -342.53 -84.11 -283.12"/><path d="M12,47.32a14.36,14.36,0,0,0,18.07.24,18.16,18.16,0,0,1,8.76,13.85h-36A18.12,18.12,0,0,1,12,47.32m.48-3.19A20.72,20.72,0,0,0,.11,63.1c0,.32,0,.64,0,.95H41.54c0-.31,0-.63,0-.95A20.71,20.71,0,0,0,29.67,44.35a11.73,11.73,0,0,1-17.19-.22Z"/><path d="M21.18,27.35a7.59,7.59,0,1,1-7.6,7.6,7.61,7.61,0,0,1,7.6-7.6m0-2.65A10.24,10.24,0,1,0,31.42,35,10.25,10.25,0,0,0,21.18,24.7Z"/><circle cx="50.4" cy="13.77" r="13.6"/><polygon points="45.08 29.09 45.08 41.26 50.75 35.18 55.72 41.26 55.72 29.09 45.08 29.09"/><polyline class="cls-2" points="42.15 13.68 47.73 19.27 58.65 8.35"/></g></svg>