<svg xmlns="http://www.w3.org/2000/svg" viewBox="0 0 64 64"><defs><style>.cls-1{fill:none;stroke:red;stroke-miterlimit:10;stroke-width:3px;}</style></defs><g id="Warstwa_1" data-name="Warstwa 1"><path d="M22.25-2.87h0v3h-.8v-7.3h.8v.88h0a1.89,1.89,0,0,1,1.73-1,1.86,1.86,0,0,1,1.51.67A2.8,2.8,0,0,1,26-4.8a3.07,3.07,0,0,1-.61,2A2,2,0,0,1,23.75-2,1.67,1.67,0,0,1,22.25-2.87Zm0-2v.7a1.53,1.53,0,0,0,.4,1.05,1.34,1.34,0,0,0,1,.43,1.35,1.35,0,0,0,1.14-.55,2.62,2.62,0,0,0,.41-1.55,2,2,0,0,0-.39-1.31,1.24,1.24,0,0,0-1-.47,1.41,1.41,0,0,0-1.12.48A1.75,1.75,0,0,0,22.23-4.89Z"/><polygon class="cls-1" points="-84.11 -283.12 240.38 -283.12 240.38 56.95 1173.97 65.02 1173.97 170.46 915.81 170.56 915.81 347.02 -180.47 347.02 -181.93 -176.28 -374.65 -177.82 -374.65 -342.6 -84.11 -342.53 -84.11 -283.12"/><path d="M34.43,47.15a14.36,14.36,0,0,0,9.17,3.32,14.2,14.2,0,0,0,8.9-3.08,18.16,18.16,0,0,1,8.76,13.85h-36a18.12,18.12,0,0,1,9.17-14.09M34.91,44a20.72,20.72,0,0,0-12.37,19c0,.32,0,.64,0,1H64c0-.31,0-.63,0-1A20.73,20.73,0,0,0,52.1,44.18,11.73,11.73,0,0,1,34.91,44Z"/><path d="M43.6,27.18A7.59,7.59,0,1,1,36,34.78a7.61,7.61,0,0,1,7.59-7.6m0-2.64A10.24,10.24,0,1,0,53.85,34.78,10.24,10.24,0,0,0,43.6,24.54Z"/><path d="M17.66,20.81a10.59,10.59,0,0,0,2.09-3.68,15.42,15.42,0,0,0,.73-4.89V11.11a15.13,15.13,0,0,0-.74-4.89,10.5,10.5,0,0,0-2.1-3.67A8.94,8.94,0,0,0,14.42.22a10.2,10.2,0,0,0-4.12-.8,10.22,10.22,0,0,0-4.11.8A8.74,8.74,0,0,0,3,2.55,10.8,10.8,0,0,0,.89,6.22a14.86,14.86,0,0,0-.75,4.89v1.13a14.86,14.86,0,0,0,.75,4.89A10.77,10.77,0,0,0,3,20.81a9.13,9.13,0,0,0,3.23,2.31,10.25,10.25,0,0,0,4.11.81,11.73,11.73,0,0,0,1.81-.15l5.08,4.08,3.09-2.69-4-3.15A10.1,10.1,0,0,0,17.66,20.81ZM8.11,19.52A4.4,4.4,0,0,1,6.48,18a7.26,7.26,0,0,1-1-2.44,14.51,14.51,0,0,1-.35-3.34V11.08a14.39,14.39,0,0,1,.35-3.34,7.5,7.5,0,0,1,1-2.43A4.32,4.32,0,0,1,8.09,3.83a4.77,4.77,0,0,1,2.21-.5,4.77,4.77,0,0,1,2.21.5,4.43,4.43,0,0,1,1.63,1.48,7.51,7.51,0,0,1,1,2.43,14.39,14.39,0,0,1,.35,3.34v1.16a14.55,14.55,0,0,1-.34,3.34,7.47,7.47,0,0,1-1,2.44,4.45,4.45,0,0,1-1.62,1.5,4.65,4.65,0,0,1-2.21.51A4.72,4.72,0,0,1,8.11,19.52Z"/></g></svg>