<svg xmlns="http://www.w3.org/2000/svg" viewBox="0 0 64 64"><defs><style>.cls-1,.cls-2{fill:none;}.cls-2{stroke:red;stroke-miterlimit:10;stroke-width:3px;}</style></defs><g id="Warstwa_1" data-name="Warstwa 1"><circle cx="57.09" cy="7" r="6.74"/><path d="M56.89,16.9h-.45a6.74,6.74,0,0,1-3,2.85,6.58,6.58,0,0,1-2.7.64,6.74,6.74,0,0,1-5.94-10.23A6.86,6.86,0,0,1,47,7.93,13.59,13.59,0,0,1,49.71,0,13.61,13.61,0,1,0,64,14.66,13.57,13.57,0,0,1,56.89,16.9Z"/><path class="cls-1" d="M21.13,37.39a7.61,7.61,0,1,0-5.35-2.21A7.56,7.56,0,0,0,21.13,37.39Z"/><path class="cls-1" d="M52.59,55.19a14.2,14.2,0,0,1-8.89,3.08A14.41,14.41,0,0,1,34.52,55a18.1,18.1,0,0,0-7.89,8.93H60.08A18.23,18.23,0,0,0,52.59,55.19Z"/><path class="cls-1" d="M43.7,50.18a7.6,7.6,0,0,0,5.21-2.07,7.51,7.51,0,0,0,2.38-5.53,7.59,7.59,0,1,0-7.59,7.6Z"/><path d="M21.13,40a10.26,10.26,0,1,0-7.21-3A10.2,10.2,0,0,0,21.13,40Zm0-17.84a7.6,7.6,0,1,1-5.35,13,7.52,7.52,0,0,1-2.25-5.39A7.61,7.61,0,0,1,21.13,22.19Z"/><path d="M23.72,58.89l1.44-2.64H2.78A18.1,18.1,0,0,1,12,42.17a14.41,14.41,0,0,0,9.18,3.31A14.15,14.15,0,0,0,30,42.42l-.19-3.13-.18-.1A11.73,11.73,0,0,1,12.43,39,20.73,20.73,0,0,0,.06,58c0,.31,0,.63,0,.94Z"/><path d="M34.52,55a14.41,14.41,0,0,0,9.18,3.31,14.2,14.2,0,0,0,8.89-3.08,18.23,18.23,0,0,1,7.49,8.7h2.83A20.79,20.79,0,0,0,52.19,52,11.71,11.71,0,0,1,35,51.76,20.8,20.8,0,0,0,23.8,63.89h2.83A18.1,18.1,0,0,1,34.52,55Z"/><path d="M43.7,52.82a10.23,10.23,0,1,0-7.21-3A10.22,10.22,0,0,0,43.7,52.82ZM43.7,35a7.59,7.59,0,0,1,7.59,7.59,7.51,7.51,0,0,1-2.38,5.53A7.6,7.6,0,1,1,43.7,35Z"/><polygon class="cls-2" points="-0.11 -199.12 324.38 -199.12 324.38 140.95 1257.97 149.02 1257.97 254.46 999.81 254.56 999.81 431.02 -96.47 431.02 -97.92 -92.28 -290.65 -93.82 -290.65 -258.6 -0.11 -258.53 -0.11 -199.12"/></g></svg>