<svg id="Warstwa_1" data-name="Warstwa 1" xmlns="http://www.w3.org/2000/svg" viewBox="0 0 64 64"><path d="M22.27,17.92a9.76,9.76,0,0,0,.13-9.39H20.63a2.14,2.14,0,0,1-2.14-2.14V4.53h0a9.73,9.73,0,0,0-9.7.11h0V6.46A2.14,2.14,0,0,1,6.66,8.6H5a9.76,9.76,0,0,0,.29,9.52H6.77A2.14,2.14,0,0,1,8.9,20.25v1.38a9.76,9.76,0,0,0,9.75-.05V20.05a2.13,2.13,0,0,1,2.13-2.13Z"/><path d="M5.85,19.65H1.68A1.19,1.19,0,0,0,.49,20.84V25A1.19,1.19,0,0,0,1.68,26.2H5.85A1.19,1.19,0,0,0,7,25V20.84A1.19,1.19,0,0,0,5.85,19.65Z"/><path d="M4.75,6.55h1.1A1.19,1.19,0,0,0,7,5.36V1.19A1.19,1.19,0,0,0,5.85,0H1.68A1.19,1.19,0,0,0,.49,1.19V5.36A1.19,1.19,0,0,0,1.68,6.55H4.75Z"/><path d="M21.62,6.55h4.17A1.19,1.19,0,0,0,27,5.36V1.19A1.19,1.19,0,0,0,25.79,0H21.62a1.19,1.19,0,0,0-1.19,1.19V5.36A1.19,1.19,0,0,0,21.62,6.55Z"/><path d="M25.79,19.65H21.62a1.19,1.19,0,0,0-1.19,1.19V25a1.19,1.19,0,0,0,1.19,1.19h4.17A1.19,1.19,0,0,0,27,25V20.84A1.19,1.19,0,0,0,25.79,19.65Z"/><path d="M49.7,16.49v3.93a14.51,14.51,0,0,1,5,1.16,10.93,10.93,0,0,1,4.33,3.32A9.5,9.5,0,0,1,61,29.77H56.11A6,6,0,0,0,54.76,27a6.57,6.57,0,0,0-2.63-1.8,9,9,0,0,0-2.43-.56v12l2.34.62a19.11,19.11,0,0,1,5.24,2.12,8.51,8.51,0,0,1,3.1,3.19,9.18,9.18,0,0,1,1,4.48,9.83,9.83,0,0,1-1.64,5.67,10.72,10.72,0,0,1-4.66,3.76,16.28,16.28,0,0,1-5.42,1.27v3.95H46.43V57.76a16.35,16.35,0,0,1-3.63-.66,12.3,12.3,0,0,1-4-2A10,10,0,0,1,35,48h4.84a6.42,6.42,0,0,0,1,2.31,6.79,6.79,0,0,0,1.83,1.79,8.36,8.36,0,0,0,2.59,1.12,10.45,10.45,0,0,0,1.19.23V40.71l-2-.52a14,14,0,0,1-4.56-2A8.73,8.73,0,0,1,36,30.73a9.16,9.16,0,0,1,1.62-5.37,11.12,11.12,0,0,1,4.45-3.66,13.69,13.69,0,0,1,4.38-1.2v-4H49.7M46.43,35.77v-11A7.57,7.57,0,0,0,43,26.21a5.26,5.26,0,0,0-2.07,4.3,4.32,4.32,0,0,0,1.28,3.19,7.91,7.91,0,0,0,3.75,1.93l.52.14M49.7,53.56a10.1,10.1,0,0,0,3.08-.71,6,6,0,0,0,2.78-2.16,5.67,5.67,0,0,0,1-3.29,4.94,4.94,0,0,0-.6-2.49A5.16,5.16,0,0,0,54,43.08a12.2,12.2,0,0,0-3.33-1.27l-1-.25v12M52.2,14H43.93v4.42a15.33,15.33,0,0,0-3,1,13.59,13.59,0,0,0-5.43,4.49,11.68,11.68,0,0,0-2.07,6.8,11.4,11.4,0,0,0,1.3,5.43,11.63,11.63,0,0,0,3.68,4.08,16.68,16.68,0,0,0,5.37,2.37l.1,0v7.3a3.94,3.94,0,0,1-1.66-2.47l-.42-2H32.26l.24,2.72A12.48,12.48,0,0,0,37.27,57a14.77,14.77,0,0,0,4.79,2.46,17.62,17.62,0,0,0,1.87.46v4.24H52.2V59.94a17.43,17.43,0,0,0,3.94-1.19,13.18,13.18,0,0,0,5.71-4.63A12.36,12.36,0,0,0,63.92,47a11.71,11.71,0,0,0-1.34-5.68,11.09,11.09,0,0,0-4-4.11,21.38,21.38,0,0,0-5.93-2.42l-.47-.12V28a4,4,0,0,1,.68.6,3.48,3.48,0,0,1,.78,1.65l.41,2h9.67l-.28-2.75a11.85,11.85,0,0,0-2.4-6.14,13.48,13.48,0,0,0-5.29-4.08,15.66,15.66,0,0,0-3.57-1.09V14Zm-8.27,18a1.85,1.85,0,0,1-.55-1.43,2.74,2.74,0,0,1,.55-1.76v3.19ZM52.2,50.37V44.94c.2.1.38.19.54.29a2.7,2.7,0,0,1,1,.92A2.52,2.52,0,0,1,54,47.4a3.23,3.23,0,0,1-.52,1.88,3.37,3.37,0,0,1-1.3,1.09Z"/></svg>