<svg xmlns="http://www.w3.org/2000/svg" viewBox="0 0 64 64"><defs><style>.cls-1{fill:none;stroke:red;stroke-miterlimit:10;stroke-width:3px;}</style></defs><g id="Warstwa_1" data-name="Warstwa 1"><path d="M52.86,28.21v2.67c5,.42,8.26,3.45,8.37,7.68h-4c-.08-2.16-1.82-3.87-4.37-4.19v8.56l1.78.4c4.75,1.19,7.07,3.59,7.07,7.57,0,4.66-3.24,7.59-8.85,8.05V61.5H50.23V59c-5.46-.36-9-3.35-9-7.78h4.07c.19,2.36,2,4,4.92,4.31V46.44L48.53,46c-4.3-1.08-6.65-3.64-6.65-7.36,0-4.37,3.16-7.28,8.35-7.76V28.21h2.63M50.23,42.38v-8c-2.45.13-4.25,1.78-4.25,4s1.49,3.45,4.25,4m2.63,13.18c3-.17,4.79-1.74,4.79-4.27,0-2.28-1.5-3.66-4.79-4.35v8.62m2.5-29.85H47.73v3.05c-5.14,1.24-8.35,4.94-8.35,9.88s3,8.34,8.35,9.73v1.8l-.12-1.48H38.73V51.2c0,5.09,3.48,8.83,9,9.95V64h7.63V61.11c5.52-1.2,8.85-5,8.85-10.21,0-5-2.82-8.28-8.38-9.84h8l-.07-2.57c-.13-4.81-3.41-8.52-8.37-9.73V25.71Z"/><polygon class="cls-1" points="-756.11 -367.12 -431.62 -367.12 -431.62 -27.05 501.98 -18.98 501.98 86.46 243.81 86.56 243.81 263.02 -852.47 263.02 -853.92 -260.29 -1046.65 -261.82 -1046.65 -426.6 -756.11 -426.53 -756.11 -367.12"/><path d="M22.89,18.26A10.93,10.93,0,0,0,23,7.76h-2a2.39,2.39,0,0,1-2.38-2.38V3.3h0a10.91,10.91,0,0,0-10.85.13h0v2A2.39,2.39,0,0,1,5.44,7.84H3.63A10.85,10.85,0,0,0,4,18.48H5.57A2.39,2.39,0,0,1,8,20.86V22.4a10.85,10.85,0,0,0,10.89,0V20.64a2.39,2.39,0,0,1,2.38-2.38Z"/><path d="M5.44,19.67H1.27A1.2,1.2,0,0,0,.08,20.86V25a1.19,1.19,0,0,0,1.19,1.19H5.44A1.19,1.19,0,0,0,6.63,25V20.86A1.19,1.19,0,0,0,5.44,19.67Z"/><path d="M4.34,6.57h1.1A1.19,1.19,0,0,0,6.63,5.38V1.21A1.19,1.19,0,0,0,5.44,0H1.27A1.2,1.2,0,0,0,.08,1.21V5.38A1.19,1.19,0,0,0,1.27,6.57H4.34Z"/><path d="M21.05,6.57h4.17a1.19,1.19,0,0,0,1.19-1.19V1.21A1.2,1.2,0,0,0,25.22,0H21.05a1.19,1.19,0,0,0-1.19,1.19V5.38A1.19,1.19,0,0,0,21.05,6.57Z"/><path d="M25.39,19.45H21.22A1.19,1.19,0,0,0,20,20.64v4.17A1.19,1.19,0,0,0,21.22,26h4.17a1.19,1.19,0,0,0,1.19-1.19V20.64A1.2,1.2,0,0,0,25.39,19.45Z"/></g></svg>