<svg xmlns="http://www.w3.org/2000/svg" viewBox="0 0 64 64"><defs><style>.cls-1{fill:none;stroke:red;stroke-miterlimit:10;stroke-width:3px;}</style></defs><g id="Warstwa_1" data-name="Warstwa 1"><path d="M49.35,17.17v3.49c6.55.55,10.81,4.51,11,10.05H55.07c-.1-2.83-2.38-5.06-5.72-5.49V36.43l2.34.53c6.21,1.55,9.25,4.68,9.25,9.9,0,6.09-4.24,9.93-11.59,10.53v3.34H45.92V57.42C38.77,56.94,34.18,53,34.16,47.24h5.31c.25,3.08,2.66,5.21,6.45,5.64V41l-2.23-.58C38.07,39,35,35.68,35,30.81c0-5.72,4.14-9.53,10.94-10.15V17.17h3.43M45.92,35.7V25.22c-3.21.17-5.57,2.33-5.57,5.22,0,2.7,2,4.51,5.57,5.26M49.35,53c4-.22,6.27-2.28,6.27-5.59,0-3-1.95-4.79-6.27-5.69V53M52.63,13.9h-10v4c-6.74,1.62-10.94,6.47-10.94,12.93,0,6.29,4,10.92,10.94,12.74V45.9L42.49,44H30.87l0,3.28c0,6.67,4.55,11.55,11.76,13V64h10V60.21c7.22-1.56,11.58-6.48,11.58-13.35,0-6.51-3.69-10.84-11-12.88H63.67l-.09-3.36c-.17-6.3-4.45-11.15-10.95-12.74v-4Z"/><polygon class="cls-1" points="-756.11 -367.12 -431.62 -367.12 -431.62 -27.05 501.98 -18.98 501.98 86.46 243.81 86.56 243.81 263.02 -852.47 263.02 -853.92 -260.29 -1046.65 -261.82 -1046.65 -426.6 -756.11 -426.53 -756.11 -367.12"/><path d="M22.27,17.92a9.76,9.76,0,0,0,.13-9.39H20.63a2.14,2.14,0,0,1-2.14-2.14V4.53h0a9.73,9.73,0,0,0-9.7.11h0V6.46A2.14,2.14,0,0,1,6.66,8.6H5a9.76,9.76,0,0,0,.29,9.52H6.77A2.14,2.14,0,0,1,8.9,20.25v1.38a9.76,9.76,0,0,0,9.75-.05V20.05a2.13,2.13,0,0,1,2.13-2.13Z"/><path d="M5.85,19.65H1.68A1.19,1.19,0,0,0,.49,20.84V25A1.19,1.19,0,0,0,1.68,26.2H5.85A1.19,1.19,0,0,0,7,25V20.84A1.19,1.19,0,0,0,5.85,19.65Z"/><path d="M4.75,6.55h1.1A1.19,1.19,0,0,0,7,5.36V1.19A1.19,1.19,0,0,0,5.85,0H1.68A1.19,1.19,0,0,0,.49,1.19V5.36A1.19,1.19,0,0,0,1.68,6.55H4.75Z"/><path d="M21.62,6.55h4.17A1.19,1.19,0,0,0,27,5.36V1.19A1.19,1.19,0,0,0,25.79,0H21.62a1.19,1.19,0,0,0-1.19,1.19V5.36A1.19,1.19,0,0,0,21.62,6.55Z"/><path d="M25.79,19.65H21.62a1.19,1.19,0,0,0-1.19,1.19V25a1.19,1.19,0,0,0,1.19,1.19h4.17A1.19,1.19,0,0,0,27,25V20.84A1.19,1.19,0,0,0,25.79,19.65Z"/></g></svg>