<svg xmlns="http://www.w3.org/2000/svg" viewBox="0 0 64 64"><defs><style>.cls-1{fill:none;stroke:red;stroke-miterlimit:10;stroke-width:3px;}</style></defs><g id="Warstwa_1" data-name="Warstwa 1"><polygon class="cls-1" points="-0.11 -283.12 324.38 -283.12 324.38 56.95 1257.97 65.02 1257.97 170.46 999.81 170.56 999.81 347.02 -96.47 347.02 -97.92 -176.28 -290.65 -177.82 -290.65 -342.6 -0.11 -342.53 -0.11 -283.12"/><circle cx="20.24" cy="7.16" r="6.74"/><path d="M20,17.05h-.45a6.77,6.77,0,0,1-3,2.85,6.66,6.66,0,0,1-2.71.64A6.73,6.73,0,0,1,7.92,10.32a6.83,6.83,0,0,1,2.21-2.23A13.59,13.59,0,0,1,12.86.17,13.61,13.61,0,1,0,24.47,21.94a13.69,13.69,0,0,0,2.69-7.12A13.57,13.57,0,0,1,20,17.05Z"/><path d="M35.86,48.5a2.5,2.5,0,0,1,2.5,2.5v8a2.5,2.5,0,0,1-2.5,2.5h-8a2.5,2.5,0,0,1-2.5-2.5V51a2.5,2.5,0,0,1,2.5-2.5h8m0-2.5h-8a5,5,0,0,0-5,5v8a5,5,0,0,0,5,5h8a5,5,0,0,0,5-5V51a5,5,0,0,0-5-5Z"/><path d="M58.86,48.5a2.5,2.5,0,0,1,2.5,2.5v8a2.5,2.5,0,0,1-2.5,2.5h-8a2.5,2.5,0,0,1-2.5-2.5V51a2.5,2.5,0,0,1,2.5-2.5h8m0-2.5h-8a5,5,0,0,0-5,5v8a5,5,0,0,0,5,5h8a5,5,0,0,0,5-5V51a5,5,0,0,0-5-5Z"/><path d="M58.86,25.44a2.51,2.51,0,0,1,2.5,2.5v8a2.5,2.5,0,0,1-2.5,2.5h-8a2.5,2.5,0,0,1-2.5-2.5v-8a2.51,2.51,0,0,1,2.5-2.5h8m0-2.5h-8a5,5,0,0,0-5,5v8a5,5,0,0,0,5,5h8a5,5,0,0,0,5-5v-8a5,5,0,0,0-5-5Z"/></g></svg>