<svg id="Warstwa_1" data-name="Warstwa 1" xmlns="http://www.w3.org/2000/svg" viewBox="0 0 64 64"><circle cx="20.24" cy="7.16" r="6.74"/><path d="M20,17.05h-.45a6.77,6.77,0,0,1-3,2.85,6.66,6.66,0,0,1-2.71.64A6.73,6.73,0,0,1,7.92,10.32a6.83,6.83,0,0,1,2.21-2.23A13.59,13.59,0,0,1,12.86.17,13.61,13.61,0,1,0,24.47,21.94a13.69,13.69,0,0,0,2.69-7.12A13.57,13.57,0,0,1,20,17.05Z"/><path d="M61.59,35.79a2.51,2.51,0,0,1-2.5,2.5h-8a2.51,2.51,0,0,1-2.5-2.5v-8a2.5,2.5,0,0,1,2.5-2.5h8a2.51,2.51,0,0,1,2.5,2.5v8m2.5,0v-8a5,5,0,0,0-5-5h-8a5,5,0,0,0-5,5v8a5,5,0,0,0,5,5h8a5,5,0,0,0,5-5Z"/><path d="M61.59,58.79a2.51,2.51,0,0,1-2.5,2.5h-8a2.51,2.51,0,0,1-2.5-2.5v-8a2.5,2.5,0,0,1,2.5-2.5h8a2.51,2.51,0,0,1,2.5,2.5v8m2.5,0v-8a5,5,0,0,0-5-5h-8a5,5,0,0,0-5,5v8a5,5,0,0,0,5,5h8a5,5,0,0,0,5-5Z"/><path d="M61.5,12.79a2.51,2.51,0,0,1-2.5,2.5H51a2.51,2.51,0,0,1-2.5-2.5v-8A2.51,2.51,0,0,1,51,2.29h8a2.5,2.5,0,0,1,2.5,2.5v8m2.5,0v-8a5,5,0,0,0-5-5H51a5,5,0,0,0-5,5v8a5,5,0,0,0,5,5h8a5,5,0,0,0,5-5Z"/></svg>