<svg xmlns="http://www.w3.org/2000/svg" viewBox="0 0 64 64"><defs><style>.cls-1{fill:none;stroke:red;stroke-miterlimit:10;stroke-width:3px;}.cls-2{fill:#fff;}</style></defs><g id="Warstwa_1" data-name="Warstwa 1"><path d="M51,61.55a2.5,2.5,0,0,1-2.5-2.5v-8a2.5,2.5,0,0,1,2.5-2.5h8a2.5,2.5,0,0,1,2.5,2.5v8a2.5,2.5,0,0,1-2.5,2.5H51m0,2.5h8a5,5,0,0,0,5-5v-8a5,5,0,0,0-5-5H51a5,5,0,0,0-5,5v8a5,5,0,0,0,5,5Z"/><path d="M5,61.55a2.5,2.5,0,0,1-2.5-2.5v-8A2.5,2.5,0,0,1,5,48.55h8a2.5,2.5,0,0,1,2.5,2.5v8a2.5,2.5,0,0,1-2.5,2.5H5m0,2.5h8a5,5,0,0,0,5-5v-8a5,5,0,0,0-5-5H5a5,5,0,0,0-5,5v8a5,5,0,0,0,5,5Z"/><path d="M28,61.55a2.5,2.5,0,0,1-2.5-2.5v-8a2.5,2.5,0,0,1,2.5-2.5h8a2.5,2.5,0,0,1,2.5,2.5v8a2.5,2.5,0,0,1-2.5,2.5H28m0,2.5h8a5,5,0,0,0,5-5v-8a5,5,0,0,0-5-5H28a5,5,0,0,0-5,5v8a5,5,0,0,0,5,5Z"/><polygon class="cls-1" points="-0.11 -283.12 324.38 -283.12 324.38 56.95 1257.97 65.02 1257.97 170.46 999.81 170.56 999.81 347.02 -96.47 347.02 -97.92 -176.28 -290.65 -177.82 -290.65 -342.6 -0.11 -342.53 -0.11 -283.12"/><circle cx="20.24" cy="7.16" r="6.74"/><path d="M20,17.05h-.45a6.77,6.77,0,0,1-3,2.85,6.66,6.66,0,0,1-2.71.64A6.73,6.73,0,0,1,7.92,10.32a6.83,6.83,0,0,1,2.21-2.23A13.59,13.59,0,0,1,12.86.17,13.61,13.61,0,1,0,24.47,21.94a13.69,13.69,0,0,0,2.69-7.12A13.57,13.57,0,0,1,20,17.05Z"/><polygon class="cls-2" points="46.65 38.39 63.35 28.74 46.65 19.1 46.65 38.39"/><path d="M64.55,28.74a1.2,1.2,0,0,1-.6,1l-16.7,9.65a1.22,1.22,0,0,1-1.2,0,1.21,1.21,0,0,1-.6-1V19.1a1.21,1.21,0,0,1,.6-1,1.22,1.22,0,0,1,1.2,0L64,27.71A1.19,1.19,0,0,1,64.55,28.74Zm-16.7,7.57L61,28.74l-13.1-7.56Z"/></g></svg>