<svg xmlns="http://www.w3.org/2000/svg" viewBox="0 0 64 64"><defs><style>.cls-1{fill:none;stroke:red;stroke-width:3px;}.cls-1,.cls-3{stroke-miterlimit:10;}.cls-2{fill:#fff;}.cls-3{stroke:#000;stroke-linecap:round;stroke-width:5px;}</style></defs><g id="nazwy"><polygon class="cls-1" points="-1680.27 -558.19 -1355.78 -558.19 -1355.78 -218.12 -422.18 -210.04 1204.85 -217.52 1204.85 74.01 -680.35 71.95 -1776.63 71.95 -1778.08 -451.35 -1970.81 -452.89 -1970.81 -617.66 -1680.27 -617.59 -1680.27 -558.19"/></g><g id="Warstwa_1" data-name="Warstwa 1"><rect class="cls-2" x="1.25" y="1.25" width="61.5" height="61.5" rx="10.75"/><path d="M52,2.5A9.51,9.51,0,0,1,61.5,12V52A9.51,9.51,0,0,1,52,61.5H12A9.51,9.51,0,0,1,2.5,52V12A9.51,9.51,0,0,1,12,2.5H52M52,0H12A12,12,0,0,0,0,12V52A12,12,0,0,0,12,64H52A12,12,0,0,0,64,52V12A12,12,0,0,0,52,0Z"/><line class="cls-3" x1="22.1" y1="41.9" x2="41.9" y2="22.1"/><line class="cls-3" x1="22.26" y1="22.26" x2="41.74" y2="41.74"/></g></svg>