<svg id="Warstwa_1" data-name="Warstwa 1" xmlns="http://www.w3.org/2000/svg" viewBox="0 0 64 64"><path d="M59.72,41.51H50.26A4.27,4.27,0,0,0,46,45.76v3.13H41V45.76a4.27,4.27,0,0,0-4.28-4.25H33l.1-19h3.47a4.27,4.27,0,0,0,4.28-4.25V8.86a4.27,4.27,0,0,0-4.28-4.25H27.14a4.28,4.28,0,0,0-4.29,4.25v9.38a4.28,4.28,0,0,0,4.29,4.25H30.6l-.1,19H27.27A4.27,4.27,0,0,0,23,45.76v3.13H18V45.76a4.27,4.27,0,0,0-4.28-4.25H4.28A4.27,4.27,0,0,0,0,45.76v9.38a4.27,4.27,0,0,0,4.28,4.25h9.46A4.27,4.27,0,0,0,18,55.14V51.39h5v3.75a4.27,4.27,0,0,0,4.28,4.25h9.46A4.27,4.27,0,0,0,41,55.14V51.39h5v3.75a4.27,4.27,0,0,0,4.28,4.25h9.46A4.27,4.27,0,0,0,64,55.14V45.76A4.27,4.27,0,0,0,59.72,41.51ZM25.37,18.24V8.86a1.77,1.77,0,0,1,1.77-1.75h9.45a1.76,1.76,0,0,1,1.76,1.75v9.38A1.76,1.76,0,0,1,36.59,20H27.14A1.77,1.77,0,0,1,25.37,18.24ZM15.5,55.14a1.76,1.76,0,0,1-1.76,1.75H4.28a1.76,1.76,0,0,1-1.76-1.75V45.76A1.76,1.76,0,0,1,4.28,44h9.46a1.76,1.76,0,0,1,1.76,1.75Zm23,0a1.76,1.76,0,0,1-1.76,1.75H27.27a1.76,1.76,0,0,1-1.76-1.75V45.76A1.76,1.76,0,0,1,27.27,44h9.46a1.76,1.76,0,0,1,1.76,1.75Zm23,0a1.76,1.76,0,0,1-1.76,1.75H50.26a1.76,1.76,0,0,1-1.76-1.75V45.76A1.76,1.76,0,0,1,50.26,44h9.46a1.76,1.76,0,0,1,1.76,1.75Z"/></svg>