<svg xmlns="http://www.w3.org/2000/svg" viewBox="0 0 64 64"><defs><style>.cls-1{fill:none;stroke:red;stroke-miterlimit:10;stroke-width:3px;}</style></defs><g id="Warstwa_1" data-name="Warstwa 1"><path d="M59.72,41.51H50.26A4.27,4.27,0,0,0,46,45.76v3.13H41V45.76a4.27,4.27,0,0,0-4.28-4.25H33l.1-19h3.47a4.27,4.27,0,0,0,4.28-4.25V8.86a4.27,4.27,0,0,0-4.28-4.25H27.14a4.28,4.28,0,0,0-4.29,4.25v9.38a4.28,4.28,0,0,0,4.29,4.25H30.6l-.1,19H27.27A4.27,4.27,0,0,0,23,45.76v3.13H18V45.76a4.27,4.27,0,0,0-4.28-4.25H4.28A4.27,4.27,0,0,0,0,45.76v9.38a4.27,4.27,0,0,0,4.28,4.25h9.46A4.27,4.27,0,0,0,18,55.14V51.39h5v3.75a4.27,4.27,0,0,0,4.28,4.25h9.46A4.27,4.27,0,0,0,41,55.14V51.39h5v3.75a4.27,4.27,0,0,0,4.28,4.25h9.46A4.27,4.27,0,0,0,64,55.14V45.76A4.27,4.27,0,0,0,59.72,41.51ZM25.37,18.24V8.86a1.77,1.77,0,0,1,1.77-1.75h9.45a1.76,1.76,0,0,1,1.76,1.75v9.38A1.76,1.76,0,0,1,36.59,20H27.14A1.77,1.77,0,0,1,25.37,18.24ZM15.5,55.14a1.76,1.76,0,0,1-1.76,1.75H4.28a1.76,1.76,0,0,1-1.76-1.75V45.76A1.76,1.76,0,0,1,4.28,44h9.46a1.76,1.76,0,0,1,1.76,1.75Zm23,0a1.76,1.76,0,0,1-1.76,1.75H27.27a1.76,1.76,0,0,1-1.76-1.75V45.76A1.76,1.76,0,0,1,27.27,44h9.46a1.76,1.76,0,0,1,1.76,1.75Zm23,0a1.76,1.76,0,0,1-1.76,1.75H50.26a1.76,1.76,0,0,1-1.76-1.75V45.76A1.76,1.76,0,0,1,50.26,44h9.46a1.76,1.76,0,0,1,1.76,1.75Z"/><path d="M14.39-2.62h0v3h-.81V-6.9h.81V-6h0a1.91,1.91,0,0,1,1.73-1,1.85,1.85,0,0,1,1.51.67,2.8,2.8,0,0,1,.54,1.8,3.07,3.07,0,0,1-.61,2,2,2,0,0,1-1.67.76A1.69,1.69,0,0,1,14.39-2.62Zm0-2v.7a1.48,1.48,0,0,0,.4,1,1.33,1.33,0,0,0,1,.43A1.33,1.33,0,0,0,16.94-3a2.53,2.53,0,0,0,.41-1.55A2.06,2.06,0,0,0,17-5.87a1.27,1.27,0,0,0-1-.47,1.42,1.42,0,0,0-1.12.48A1.81,1.81,0,0,0,14.38-4.64Z"/><polygon class="cls-1" points="-252.11 -199.12 72.38 -199.12 72.38 140.95 1005.98 149.02 1005.98 254.46 747.81 254.56 747.81 431.02 -348.47 431.02 -349.93 -92.28 -542.65 -93.82 -542.65 -258.6 -252.11 -258.53 -252.11 -199.12"/></g></svg>