<svg id="Warstwa_1" data-name="Warstwa 1" xmlns="http://www.w3.org/2000/svg" viewBox="0 0 64 64"><path d="M58.93,2.5A2.5,2.5,0,0,1,61.43,5V59a2.5,2.5,0,0,1-2.5,2.5H5A2.5,2.5,0,0,1,2.46,59V5A2.5,2.5,0,0,1,5,2.5h54m0-2.5H5A5,5,0,0,0,0,5V59a5,5,0,0,0,5,5h54a5,5,0,0,0,5-5V5a5,5,0,0,0-5-5Z"/><rect x="9.59" y="19.21" width="45.21" height="2.5"/><rect x="9.59" y="29.06" width="23.06" height="2.5"/><rect x="9.59" y="38.92" width="11.16" height="2.5"/><rect x="9.59" y="9.58" width="45.41" height="2.5"/></svg>