<svg xmlns="http://www.w3.org/2000/svg" viewBox="0 0 64 64"><defs><style>.cls-1{fill:none;stroke:red;stroke-miterlimit:10;stroke-width:3px;}</style></defs><g id="Warstwa_1" data-name="Warstwa 1"><polygon class="cls-1" points="-840.11 -558.19 -515.62 -558.19 -515.62 -218.12 417.98 -210.04 417.98 -104.61 159.81 -104.51 159.81 71.95 -936.47 71.95 -937.92 -451.35 -1130.65 -452.89 -1130.65 -617.66 -840.11 -617.59 -840.11 -558.19"/><path d="M58.93,2.5A2.5,2.5,0,0,1,61.43,5V59a2.5,2.5,0,0,1-2.5,2.5H5A2.5,2.5,0,0,1,2.46,59V5A2.5,2.5,0,0,1,5,2.5h54m0-2.5H5A5,5,0,0,0,0,5V59a5,5,0,0,0,5,5h54a5,5,0,0,0,5-5V5a5,5,0,0,0-5-5Z"/><rect x="9.59" y="19.21" width="34.67" height="2.5"/><rect x="9.59" y="29.06" width="17.59" height="2.5"/><rect x="9.59" y="38.92" width="8.79" height="2.5"/><rect x="9.59" y="9.58" width="34.82" height="2.5"/></g></svg>