<svg id="Warstwa_1" data-name="Warstwa 1" xmlns="http://www.w3.org/2000/svg" viewBox="0 0 64 64"><defs><style>.cls-1{fill:none;}</style></defs><polygon class="cls-1" points="2.46 2.76 2.46 61.14 15.48 57.96 15.48 5.76 2.46 2.76"/><path d="M2.46,61.14V2.76l13,3V3.2L1.57,0a1.09,1.09,0,0,0-.26,0A1.24,1.24,0,0,0,.45.33,1.71,1.71,0,0,0,0,1.56v60.8a1.7,1.7,0,0,0,.5,1.24,1.23,1.23,0,0,0,.85.36h0a1.33,1.33,0,0,0,.28,0l13.89-3.4V58Z"/><path d="M62.9,7,32.61,0a1.09,1.09,0,0,0-.26,0,1.24,1.24,0,0,0-.86.37A1.71,1.71,0,0,0,31,1.56V3.2l2.5.58v-1l28,6.46V54.29l-28,6.85V59.92l-2.5.61v1.83a1.7,1.7,0,0,0,.5,1.24,1.23,1.23,0,0,0,.85.36h0a1.33,1.33,0,0,0,.28,0l30.29-7.41A1.56,1.56,0,0,0,64,55V8.55A1.55,1.55,0,0,0,62.9,7Z"/><polygon class="cls-1" points="17.98 3.78 17.98 6.34 17.98 57.34 17.98 59.92 17.98 61.14 31 57.96 31 56.73 31 6.78 31 5.76 17.98 2.76 17.98 3.78"/><path d="M31,3.2,17.09,0a1.09,1.09,0,0,0-.26,0A1.24,1.24,0,0,0,16,.33a1.71,1.71,0,0,0-.49,1.23v60.8A1.7,1.7,0,0,0,16,63.6a1.23,1.23,0,0,0,.85.36h0a1.33,1.33,0,0,0,.28,0L31,60.53l2.5-.61V3.78Zm0,3.58V58L18,61.14V2.76l13,3Z"/><polygon points="54.33 20.86 38.86 19.12 38.86 16.62 54.33 18.36 54.33 20.86"/><polygon points="13.31 17.86 5.31 17.25 5.31 14.75 13.31 15.36 13.31 17.86"/><rect x="38.61" y="30.89" width="15.97" height="2.5"/><rect x="5.31" y="30.89" width="7.92" height="2.5"/><polygon points="54.62 45.92 38.65 47.16 38.65 44.66 54.62 43.42 54.62 45.92"/><polygon points="29.53 18.59 21.53 17.98 21.53 15.48 29.53 16.09 29.53 18.59"/><rect x="21.53" y="30.62" width="7.92" height="2.5"/><polygon points="29.53 44.73 21.53 45.34 21.53 47.84 29.53 47.23 29.53 44.73"/><polygon points="5.39 49.14 13.4 48.54 13.4 46.04 5.39 46.64 5.39 49.14"/></svg>