<svg xmlns="http://www.w3.org/2000/svg" viewBox="0 0 64 64"><defs><style>.cls-1,.cls-2{fill:none;}.cls-2{stroke:red;stroke-miterlimit:10;stroke-width:3px;}</style></defs><g id="Warstwa_1" data-name="Warstwa 1"><polygon class="cls-1" points="2.46 2.76 2.46 61.14 15.48 57.96 15.48 5.76 2.46 2.76"/><path d="M2.46,61.14V2.76l13,3V3.2L1.57,0a1.09,1.09,0,0,0-.26,0A1.24,1.24,0,0,0,.45.33,1.71,1.71,0,0,0,0,1.56v60.8a1.7,1.7,0,0,0,.5,1.24,1.23,1.23,0,0,0,.85.36h0a1.33,1.33,0,0,0,.28,0l13.89-3.4V58Z"/><path d="M62.9,7,32.61,0a1.09,1.09,0,0,0-.26,0,1.24,1.24,0,0,0-.86.37A1.71,1.71,0,0,0,31,1.56V3.2l2.5.58v-1l28,6.46V54.29l-28,6.85V59.92l-2.5.61v1.83a1.7,1.7,0,0,0,.5,1.24,1.23,1.23,0,0,0,.85.36h0a1.33,1.33,0,0,0,.28,0l30.29-7.41A1.56,1.56,0,0,0,64,55V8.55A1.55,1.55,0,0,0,62.9,7Z"/><polygon class="cls-1" points="17.98 3.78 17.98 6.34 17.98 57.34 17.98 59.92 17.98 61.14 31 57.96 31 56.73 31 6.78 31 5.76 17.98 2.76 17.98 3.78"/><path d="M31,3.2,17.09,0a1.09,1.09,0,0,0-.26,0A1.24,1.24,0,0,0,16,.33a1.71,1.71,0,0,0-.49,1.23v60.8A1.7,1.7,0,0,0,16,63.6a1.23,1.23,0,0,0,.85.36h0a1.33,1.33,0,0,0,.28,0L31,60.53l2.5-.61V3.78Zm0,3.58V58L18,61.14V2.76l13,3Z"/><polygon class="cls-2" points="-84.11 -115.12 240.38 -115.12 240.38 224.95 1173.97 233.02 1173.97 338.46 915.81 338.56 915.81 515.02 -180.47 515.02 -181.93 -8.29 -374.65 -9.82 -374.65 -174.6 -84.11 -174.53 -84.11 -115.12"/></g></svg>