<svg xmlns="http://www.w3.org/2000/svg" viewBox="0 0 64 64"><defs><style>.cls-1{fill:none;stroke:red;stroke-width:3px;}.cls-1,.cls-2{stroke-miterlimit:10;}.cls-2{stroke:#000;stroke-linecap:round;stroke-width:5px;}</style></defs><g id="nazwy"><polygon class="cls-1" points="-1764.35 -558.19 -1439.86 -558.19 -1439.86 -218.12 -506.26 -210.04 1120.77 -217.52 1120.77 74.01 -764.43 71.95 -1860.71 71.95 -1862.16 -451.35 -2054.89 -452.89 -2054.89 -617.66 -1764.35 -617.59 -1764.35 -558.19"/><path d="M54.17,29.26a1.4,1.4,0,0,1,1,.4l6,5.94a1.28,1.28,0,0,1,.4.93V60.17a1.36,1.36,0,0,1-1.39,1.33H30.57a1.36,1.36,0,0,1-1.38-1.33V30.59a1.35,1.35,0,0,1,1.38-1.33h23.6m0-2.5H30.57a3.85,3.85,0,0,0-3.88,3.83V60.17A3.85,3.85,0,0,0,30.57,64H60.19a3.86,3.86,0,0,0,3.89-3.83V36.53a3.8,3.8,0,0,0-1.14-2.71l-6-5.94a3.87,3.87,0,0,0-2.74-1.12Z"/><path d="M53.8,52a1.35,1.35,0,0,1,1.38,1.3l.18,8.19H35.59V53.34A1.35,1.35,0,0,1,37,52H53.8m0-2.5H37a3.85,3.85,0,0,0-3.88,3.83V64H57.91l-.23-10.74a3.86,3.86,0,0,0-3.88-3.75Z"/><path d="M50.16,29.26v7.61H40.31V29.26h9.85m2.5-2.5H37.81V37.05a2.33,2.33,0,0,0,2.35,2.32H50.58a2.06,2.06,0,0,0,2.08-2V26.76Z"/></g><g id="Warstwa_1" data-name="Warstwa 1"><line class="cls-2" x1="2.55" y1="22.13" x2="22.35" y2="2.33"/><line class="cls-2" x1="2.71" y1="2.5" x2="22.18" y2="21.97"/></g></svg>