<svg xmlns="http://www.w3.org/2000/svg" viewBox="0 0 64 64"><defs><style>.cls-1{fill:none;stroke:red;stroke-width:3px;}.cls-1,.cls-3{stroke-miterlimit:10;}.cls-2{fill:#fff;}.cls-3{stroke:#000;stroke-linecap:round;stroke-width:5px;}</style></defs><g id="nazwy"><polygon class="cls-1" points="-1428.11 -469.48 -1103.62 -469.48 -1103.62 -129.41 -170.03 -121.33 1457.01 -128.81 1457.01 162.72 -428.19 160.66 -1524.47 160.66 -1525.92 -362.64 -1718.65 -364.18 -1718.65 -528.95 -1428.11 -528.88 -1428.11 -469.48"/></g><g id="Warstwa_1" data-name="Warstwa 1"><rect class="cls-2" x="17.25" y="1.31" width="45.5" height="45.5" rx="7.75"/><path d="M55,2.56a6.51,6.51,0,0,1,6.5,6.5v30a6.51,6.51,0,0,1-6.5,6.5H25a6.51,6.51,0,0,1-6.5-6.5v-30A6.51,6.51,0,0,1,25,2.56H55m0-2.5H25a9,9,0,0,0-9,9v30a9,9,0,0,0,9,9H55a9,9,0,0,0,9-9v-30a9,9,0,0,0-9-9Z"/><rect class="cls-2" x="1.25" y="17.92" width="45.5" height="45.5" rx="7.75"/><path d="M39,19.17a6.51,6.51,0,0,1,6.5,6.5v30a6.51,6.51,0,0,1-6.5,6.5H9a6.51,6.51,0,0,1-6.5-6.5v-30A6.51,6.51,0,0,1,9,19.17H39m0-2.5H9a9,9,0,0,0-9,9v30a9,9,0,0,0,9,9H39a9,9,0,0,0,9-9v-30a9,9,0,0,0-9-9Z"/><line class="cls-3" x1="14.15" y1="40" x2="36.35" y2="40"/><line class="cls-3" x1="25.25" y1="29.08" x2="25.25" y2="50.92"/></g></svg>