<svg xmlns="http://www.w3.org/2000/svg" viewBox="0 0 64 64"><defs><style>.cls-1,.cls-3{fill:none;stroke-miterlimit:10;}.cls-1{stroke:red;stroke-width:3px;}.cls-2{fill:#fff;}.cls-3{stroke:#000;stroke-linecap:round;stroke-width:5px;}</style></defs><g id="nazwy"><polygon class="cls-1" points="-1344.11 -469.48 -1019.62 -469.48 -1019.62 -129.41 -86.03 -121.33 1541.01 -128.81 1541.01 162.72 -344.19 160.66 -1440.47 160.66 -1441.92 -362.64 -1634.65 -364.18 -1634.65 -528.95 -1344.11 -528.88 -1344.11 -469.48"/></g><g id="Warstwa_1" data-name="Warstwa 1"><rect class="cls-2" x="1.25" y="17.25" width="45.5" height="45.5" rx="7.75"/><path d="M39,18.5A6.51,6.51,0,0,1,45.5,25V55A6.51,6.51,0,0,1,39,61.5H9A6.51,6.51,0,0,1,2.5,55V25A6.51,6.51,0,0,1,9,18.5H39M39,16H9a9,9,0,0,0-9,9V55a9,9,0,0,0,9,9H39a9,9,0,0,0,9-9V25a9,9,0,0,0-9-9Z"/></g><g id="Warstwa_3" data-name="Warstwa 3"><line class="cls-3" x1="29.62" y1="34.52" x2="57.22" y2="7.66"/></g></svg>