<svg id="Warstwa_1" data-name="Warstwa 1" xmlns="http://www.w3.org/2000/svg" viewBox="0 0 64 64"><circle cx="20.11" cy="7.15" r="6.74"/><path d="M19.64,17h-.45a6.73,6.73,0,0,1-12.55-3.4A6.7,6.7,0,0,1,7.71,10,6.83,6.83,0,0,1,10,7.81,13.49,13.49,0,0,1,12.92,0a13.61,13.61,0,1,0,13.9,15A13.5,13.5,0,0,1,19.64,17Z"/><path d="M35,47.46a14.38,14.38,0,0,0,18.07.23,18.22,18.22,0,0,1,8.76,13.85h-36A18.09,18.09,0,0,1,35,47.46m.48-3.19a20.73,20.73,0,0,0-12.38,19c0,.32,0,.63,0,.95h41.4c0-.32,0-.63,0-.95a20.72,20.72,0,0,0-11.9-18.75,11.72,11.72,0,0,1-17.18-.22Z"/><path d="M44.18,27.49a7.61,7.61,0,0,1,7.6,7.59,7.6,7.6,0,1,1-15.19,0,7.6,7.6,0,0,1,7.59-7.59m0-2.65A10.24,10.24,0,1,0,54.42,35.08,10.25,10.25,0,0,0,44.18,24.84Z"/></svg>