<svg xmlns="http://www.w3.org/2000/svg" viewBox="0 0 64 64"><defs><style>.cls-1,.cls-2{fill:none;stroke-miterlimit:10;}.cls-1{stroke:red;stroke-width:3px;}.cls-2{stroke:#000;stroke-width:2.5px;}</style></defs><g id="Warstwa_1" data-name="Warstwa 1"><path d="M33.39,2.74l28,6.47V54.28l-28,6.85V2.74M32.25,0a1.21,1.21,0,0,0-.86.36,1.68,1.68,0,0,0-.5,1.23V62.35a1.76,1.76,0,0,0,.5,1.24,1.27,1.27,0,0,0,.86.36h0a1.26,1.26,0,0,0,.27,0l30.3-7.41a1.56,1.56,0,0,0,1.08-1.56V8.53A1.56,1.56,0,0,0,62.8,7L32.51,0a1.15,1.15,0,0,0-.26,0Z"/><polygon class="cls-1" points="83.89 -558.19 408.38 -558.19 408.38 -218.12 1341.97 -210.04 1341.97 -104.61 1083.81 -104.51 1083.81 71.95 -12.47 71.95 -13.93 -451.35 -206.65 -452.89 -206.65 -617.66 83.89 -617.59 83.89 -558.19"/><path class="cls-2" d="M8,21.72V48.89a4.63,4.63,0,0,0,5.07,4.32c5.5-.06,5.5-4.32,5.5-4.32V17.68s-.19-7.47-8.91-7.47c-8.08,0-8.08,7.19-8.08,7.19V49.61s0,10.18,11.49,10.18c11.32,0,11.54-10.68,11.54-10.68V15.35"/></g></svg>