<svg id="Warstwa_1" data-name="Warstwa 1" xmlns="http://www.w3.org/2000/svg" viewBox="0 0 64 64"><defs><style>.cls-1{fill:none;stroke:#000;stroke-miterlimit:10;stroke-width:2.5px;}</style></defs><path class="cls-1" d="M42,15.24V49s.22,5.43,6.3,5.37C55.16,54.3,55.16,49,55.16,49V10.22S54.93.94,44.09.94c-10,0-10,8.94-10,8.94v40s0,12.65,14.27,12.65c14.05,0,14.33-13.27,14.33-13.27V7.34"/><path d="M10.56,45a1.22,1.22,0,0,1,1,.6l9.64,16.7a1.22,1.22,0,0,1,0,1.2,1.21,1.21,0,0,1-1,.6H.91a1.22,1.22,0,0,1-1-.6,1.2,1.2,0,0,1,0-1.2l9.64-16.7A1.2,1.2,0,0,1,10.56,45Zm7.56,16.7-7.56-13.1L3,61.65Z"/></svg>