<svg xmlns="http://www.w3.org/2000/svg" viewBox="0 0 64 64"><defs><style>.cls-1,.cls-2{fill:none;stroke-miterlimit:10;}.cls-1{stroke:red;stroke-width:3px;}.cls-2{stroke:#000;stroke-width:2.5px;}</style></defs><g id="Warstwa_1" data-name="Warstwa 1"><polygon class="cls-1" points="83.89 -558.19 408.38 -558.19 408.38 -218.12 1341.97 -210.04 1341.97 -104.61 1083.81 -104.51 1083.81 71.95 -12.47 71.95 -13.93 -451.35 -206.65 -452.89 -206.65 -617.66 83.89 -617.59 83.89 -558.19"/><path class="cls-2" d="M25.37,15.24V49s.23,5.43,6.3,5.37C38.51,54.3,38.51,49,38.51,49V10.22S38.27.94,27.44.94c-10,0-10,8.94-10,8.94v40s0,12.65,14.27,12.65c14,0,14.33-13.27,14.33-13.27V7.34"/></g></svg>