<svg xmlns="http://www.w3.org/2000/svg" viewBox="0 0 64 64"><defs><style>.cls-1,.cls-2{fill:none;stroke-miterlimit:10;}.cls-1{stroke:red;stroke-width:3px;}.cls-2{stroke:#000;stroke-width:2.5px;}</style></defs><g id="Warstwa_1" data-name="Warstwa 1"><polygon class="cls-1" points="-0.11 -558.19 324.38 -558.19 324.38 -218.12 1257.97 -210.04 1257.97 -104.61 999.81 -104.51 999.81 71.95 -96.47 71.95 -97.92 -451.35 -290.65 -452.89 -290.65 -617.66 -0.11 -617.59 -0.11 -558.19"/><path d="M14.74,44.85a1.17,1.17,0,0,1,1,.6l9.65,16.7a1.22,1.22,0,0,1,0,1.2,1.21,1.21,0,0,1-1,.6H5.09a1.21,1.21,0,0,1-1-.6,1.22,1.22,0,0,1,0-1.2l9.65-16.7A1.18,1.18,0,0,1,14.74,44.85Zm7.56,16.7-7.56-13.1L7.17,61.55Z"/><path d="M33.5,2.8l28,6.46V54.33l-28,6.85V2.8M32.35,0a1.27,1.27,0,0,0-.86.36A1.75,1.75,0,0,0,31,1.6V62.4a1.7,1.7,0,0,0,.5,1.24,1.23,1.23,0,0,0,.85.36h0a1.33,1.33,0,0,0,.28,0l30.29-7.41A1.57,1.57,0,0,0,64,55V8.59A1.55,1.55,0,0,0,62.9,7L32.61,0a1.09,1.09,0,0,0-.26,0Z"/><path class="cls-2" d="M11.5,9.44v20a3.42,3.42,0,0,0,3.74,3.19c4.06,0,4.06-3.19,4.06-3.19v-23S19.16.94,12.72.94c-6,0-6,5.31-6,5.31V30s0,7.52,8.48,7.52,8.51-7.88,8.51-7.88V4.74"/></g></svg>