<svg id="Warstwa_1" data-name="Warstwa 1" xmlns="http://www.w3.org/2000/svg" viewBox="0 0 64 64"><path d="M61.73,2a8.69,8.69,0,0,0-1.15-.84A8,8,0,0,0,59.26.54C59,.45,58.79.38,58.54.31A8.71,8.71,0,0,0,56.23,0H25.51A8.56,8.56,0,0,0,21.8.83c-.22.1-.43.22-.64.34A8.69,8.69,0,0,0,20,2a6.47,6.47,0,0,0-2.27,4.85V9.79a13.7,13.7,0,0,0-3.94-.54c-7.38,0-9.33,5.52-9.33,8.44V49.9c0,.12.14,11.44,12.74,11.44C29.6,61.34,30,49.55,30,49.41V27.75H56.23a8.71,8.71,0,0,0,2.31-.31l.72-.23a8.93,8.93,0,0,0,1.32-.64,7.81,7.81,0,0,0,1.15-.83A6.48,6.48,0,0,0,64,20.89v-14A6.47,6.47,0,0,0,61.73,2ZM27.49,49.38c0,.38-.37,9.46-10.28,9.46C7.14,58.84,7,50.26,7,49.9V17.69c0-.24.07-5.94,6.83-5.94a10.33,10.33,0,0,1,3.94.69v8.45A6.48,6.48,0,0,0,20,25.74a7.81,7.81,0,0,0,1.15.83l.3.16V49.17c0,.51-.28,3-4.27,3.08-3.41,0-3.77-2.6-3.8-3.07V22h-2.5V49.24c.08,1.91,1.48,5.51,6.23,5.51h.1c5.33,0,6.74-3.66,6.74-5.57V27.61a9,9,0,0,0,1.48.13h2Zm34-28.49c0,2.4-2.36,4.36-5.27,4.36H25.51A6,6,0,0,1,24,25a5.29,5.29,0,0,1-2.5-1.39,3.89,3.89,0,0,1-1.22-2.75v-14c0-2.4,2.36-4.36,5.27-4.36H56.23c2.91,0,5.27,2,5.27,4.36Z"/><polygon points="35.85 8.07 33.28 8.07 31.23 11.88 29.17 8.07 26.58 8.07 29.77 13.48 26.5 18.99 29.11 18.99 31.23 15.1 33.34 18.99 35.94 18.99 32.68 13.48 35.85 8.07"/><polygon points="39.32 8.07 37.07 8.07 37.07 18.99 38.59 18.99 39.32 18.99 44.09 18.99 44.09 17.23 39.32 17.23 39.32 8.07"/><path d="M53.09,14.91a2.79,2.79,0,0,0-.7-.95,4.64,4.64,0,0,0-1.13-.76,9.71,9.71,0,0,0-1.57-.61,8.3,8.3,0,0,1-.94-.34,3.3,3.3,0,0,1-.68-.36,1.39,1.39,0,0,1-.42-.42,1,1,0,0,1-.14-.51,1.19,1.19,0,0,1,.2-.66,1.31,1.31,0,0,1,.58-.47,2.35,2.35,0,0,1,1-.18,2.19,2.19,0,0,1,1,.21,1.46,1.46,0,0,1,.6.58,1.74,1.74,0,0,1,.2.84h2.23a3.08,3.08,0,0,0-.5-1.73,3.37,3.37,0,0,0-1.4-1.2,4.79,4.79,0,0,0-2.11-.43,5.52,5.52,0,0,0-1.62.22,4.11,4.11,0,0,0-1.28.61,3,3,0,0,0-.84,1,2.62,2.62,0,0,0-.3,1.25,2.54,2.54,0,0,0,.29,1.23,3,3,0,0,0,.8.94,5.11,5.11,0,0,0,1.17.7,13.58,13.58,0,0,0,1.4.54,9,9,0,0,1,1.09.4,3.23,3.23,0,0,1,.65.4,1.05,1.05,0,0,1,.32.43,1.51,1.51,0,0,1,.09.53,1.14,1.14,0,0,1-.19.66,1.18,1.18,0,0,1-.56.46,2.39,2.39,0,0,1-1,.17,3.94,3.94,0,0,1-.88-.1,1.83,1.83,0,0,1-.69-.32,1.35,1.35,0,0,1-.45-.57,2,2,0,0,1-.16-.86H44.92a3.16,3.16,0,0,0,1.41,2.71,4.9,4.9,0,0,0,1.43.65,6.42,6.42,0,0,0,3.22,0,3.68,3.68,0,0,0,1.26-.6,2.52,2.52,0,0,0,.8-.95,2.89,2.89,0,0,0,.28-1.27A3.07,3.07,0,0,0,53.09,14.91Z"/></svg>