<svg xmlns="http://www.w3.org/2000/svg" viewBox="0 0 64 64"><defs><style>.cls-1{fill:none;stroke:red;stroke-miterlimit:10;stroke-width:3px;}</style></defs><g id="Warstwa_1" data-name="Warstwa 1"><path d="M32,50.82a2.84,2.84,0,1,1-2.84,2.84A2.84,2.84,0,0,1,32,50.82m0-2.5a5.34,5.34,0,1,0,5.34,5.34A5.34,5.34,0,0,0,32,48.32Z"/><path d="M32,7.5a6,6,0,0,1,6,5.78L33,41.6l0,.21V42A1,1,0,0,1,31,42v-.22l0-.21L26,13.28A6,6,0,0,1,32,7.5M32,5a8.48,8.48,0,0,0-8.48,8.48l5,28.55a3.46,3.46,0,0,0,6.92,0l5-28.55A8.48,8.48,0,0,0,32,5Z"/><polygon class="cls-1" points="-84.11 -558.19 240.38 -558.19 240.38 -218.12 1173.97 -210.04 1173.97 -104.61 915.81 -104.51 915.81 71.95 -180.47 71.95 -181.93 -451.35 -374.65 -452.89 -374.65 -617.66 -84.11 -617.59 -84.11 -558.19"/></g></svg>