<svg xmlns="http://www.w3.org/2000/svg" viewBox="0 0 64 64"><defs><style>.cls-1{fill:none;stroke:red;stroke-miterlimit:10;stroke-width:3px;}</style></defs><g id="Warstwa_1" data-name="Warstwa 1"><path d="M27.23,19a1,1,0,0,1,.34-.8,1.2,1.2,0,0,1,.89-.32,1.18,1.18,0,0,1,.88.32,1.11,1.11,0,0,1,0,1.6,1.18,1.18,0,0,1-.88.33,1.21,1.21,0,0,1-.89-.33A1,1,0,0,1,27.23,19Z"/><path d="M31.69,19a1.06,1.06,0,0,1,.33-.8,1.22,1.22,0,0,1,.89-.32,1.2,1.2,0,0,1,.89.32,1.13,1.13,0,0,1,0,1.6,1.21,1.21,0,0,1-.89.33,1.22,1.22,0,0,1-.89-.33A1.06,1.06,0,0,1,31.69,19Z"/><path d="M36.14,19a1,1,0,0,1,.34-.8,1.2,1.2,0,0,1,.89-.32,1.22,1.22,0,0,1,.89.32,1.13,1.13,0,0,1,0,1.6,1.22,1.22,0,0,1-.89.33,1.21,1.21,0,0,1-.89-.33A1,1,0,0,1,36.14,19Z"/><polygon class="cls-1" points="-1008.11 -367.12 -683.62 -367.12 -683.62 -27.05 249.97 -18.98 249.97 86.46 -8.19 86.56 -8.19 263.02 -1104.47 263.02 -1105.92 -260.29 -1298.65 -261.82 -1298.65 -426.6 -1008.11 -426.53 -1008.11 -367.12"/><path d="M61.63,2a8.08,8.08,0,0,0-1.15-.84A8,8,0,0,0,59.16.54c-.23-.09-.47-.16-.72-.23A8.71,8.71,0,0,0,56.13,0H25.41A8.59,8.59,0,0,0,21.7.83c-.22.1-.43.22-.64.34A8,8,0,0,0,19.92,2a6.44,6.44,0,0,0-2.28,4.85V9.79a13.7,13.7,0,0,0-3.94-.54c-7.38,0-9.33,5.52-9.33,8.44V49.9c0,.12.14,11.44,12.74,11.44,12.39,0,12.78-11.79,12.78-11.93V27.75H56.13a8.71,8.71,0,0,0,2.31-.31l.72-.23a8.93,8.93,0,0,0,1.32-.64,7.31,7.31,0,0,0,1.15-.83,6.48,6.48,0,0,0,2.27-4.85v-14A6.47,6.47,0,0,0,61.63,2ZM27.39,49.38c0,.38-.36,9.46-10.28,9.46S6.87,50.26,6.87,49.9V17.69c0-.24.08-5.94,6.83-5.94a10.33,10.33,0,0,1,3.94.69v8.45a6.46,6.46,0,0,0,2.28,4.85,7.23,7.23,0,0,0,1.14.83l.3.16V49.17c0,.51-.28,3-4.26,3.08-3.42,0-3.78-2.6-3.81-3.07V22h-2.5V49.24c.08,1.91,1.48,5.51,6.24,5.51h.09c5.33,0,6.74-3.66,6.74-5.57V27.61a9,9,0,0,0,1.48.13h2.05Zm34-28.49c0,2.4-2.36,4.36-5.27,4.36H25.41A6,6,0,0,1,23.86,25a5.29,5.29,0,0,1-2.5-1.39,3.89,3.89,0,0,1-1.22-2.75v-14c0-2.4,2.36-4.36,5.27-4.36H56.13c2.91,0,5.27,2,5.27,4.36Z"/></g></svg>