<svg xmlns="http://www.w3.org/2000/svg" viewBox="0 0 64 64"><defs><style>.cls-1,.cls-2{fill:none;stroke-miterlimit:10;}.cls-1{stroke:red;stroke-width:3px;}.cls-2{stroke:#000;stroke-width:2.5px;}</style></defs><g id="nazwy"><polygon class="cls-1" points="-1260.11 -367.12 -935.62 -367.12 -935.62 -27.05 -2.02 -18.98 1625.01 -26.45 1625.01 265.08 -260.19 263.02 -1356.47 263.02 -1357.92 -260.29 -1550.65 -261.82 -1550.65 -426.6 -1260.11 -426.53 -1260.11 -367.12"/></g><g id="Warstwa_1" data-name="Warstwa 1"><path d="M42,8.4a4,4,0,1,1-4,4,4,4,0,0,1,4-4m0-2.5a6.5,6.5,0,1,0,6.5,6.5A6.51,6.51,0,0,0,42,5.9Z"/><path d="M22,28.4a4,4,0,1,1-4,4,4,4,0,0,1,4-4m0-2.5a6.5,6.5,0,1,0,6.5,6.5A6.51,6.51,0,0,0,22,25.9Z"/><path d="M42,48.4a4,4,0,1,1-4,4,4,4,0,0,1,4-4m0-2.5a6.5,6.5,0,1,0,6.5,6.5A6.51,6.51,0,0,0,42,45.9Z"/><line class="cls-2" x1="36.5" y1="12.4" x2="6.49" y2="12.4"/><line class="cls-2" x1="47.5" y1="12.4" x2="57.41" y2="12.4"/><line class="cls-2" x1="27.45" y1="32.4" x2="57.46" y2="32.4"/><line class="cls-2" x1="16.45" y1="32.4" x2="6.54" y2="32.4"/><line class="cls-2" x1="36.5" y1="52.4" x2="6.49" y2="52.4"/><line class="cls-2" x1="47.5" y1="52.4" x2="57.41" y2="52.4"/></g></svg>