<svg xmlns="http://www.w3.org/2000/svg" viewBox="0 0 64 64"><defs><style>.cls-1{fill:none;stroke:red;stroke-miterlimit:10;stroke-width:3px;}</style></defs><g id="Warstwa_1" data-name="Warstwa 1"><path d="M21.06,8a7.6,7.6,0,0,1,7.59,7.59,7.6,7.6,0,1,1-15.19,0A7.6,7.6,0,0,1,21.06,8m0-2.65A10.24,10.24,0,1,0,31.3,15.56,10.25,10.25,0,0,0,21.06,5.32Z"/><path d="M2.71,42a18.1,18.1,0,0,1,9.17-14.08,14.41,14.41,0,0,0,9.18,3.31,14.15,14.15,0,0,0,8.86-3.06l-.19-3.13-.18-.1a11.71,11.71,0,0,1-17.19-.22A20.73,20.73,0,0,0,0,43.72c0,.32,0,.63,0,1H23.65L25.09,42Z"/><path d="M34.45,47.27a14.36,14.36,0,0,0,18.07.24,18.2,18.2,0,0,1,8.77,13.84h-36a18.12,18.12,0,0,1,9.17-14.08m.48-3.19a20.74,20.74,0,0,0-12.37,19c0,.32,0,.64,0,1H64c0-.31,0-.63,0-1A20.71,20.71,0,0,0,52.12,44.3a11.73,11.73,0,0,1-17.19-.22Z"/><path d="M43.63,27.3a7.6,7.6,0,0,1,7.59,7.6A7.6,7.6,0,0,1,36,34.9a7.61,7.61,0,0,1,7.6-7.6m0-2.65A10.24,10.24,0,1,0,53.87,34.9,10.24,10.24,0,0,0,43.63,24.65Z"/><path d="M21.3-.06h-.2A12.23,12.23,0,0,0,9,10.84H6.85V13.5H11a9.75,9.75,0,0,0-.2,1.88A10.3,10.3,0,0,0,21,25.8h0A10.29,10.29,0,0,0,31.4,15.65a10.31,10.31,0,0,0-.21-2.17h4.07V10.81h-2A12.22,12.22,0,0,0,21.3-.06ZM21,23.26a7.65,7.65,0,0,1-7.52-7.73s0,0,0-.07,0,0,0-.05a7.69,7.69,0,0,1,.29-1.92H28.46a7.88,7.88,0,0,1,.29,2.13.2.2,0,0,0,0,.07v0a7.52,7.52,0,0,1-2.47,5.53,7.62,7.62,0,0,1-5.26,2Z"/><polygon class="cls-1" points="83.89 -199.12 408.38 -199.12 408.38 140.95 1341.97 149.02 1341.97 254.46 1083.81 254.56 1083.81 431.02 -12.47 431.02 -13.93 -92.28 -206.65 -93.82 -206.65 -258.6 83.89 -258.53 83.89 -199.12"/><path d="M43.69,45.23a10.26,10.26,0,1,0-7.21-3A10.22,10.22,0,0,0,43.69,45.23Zm0-17.84a7.59,7.59,0,1,1-7.6,7.6A7.61,7.61,0,0,1,43.69,27.39Z"/></g></svg>