<svg xmlns="http://www.w3.org/2000/svg" viewBox="0 0 64 64"><defs><style>.cls-1,.cls-2{fill:none;stroke-miterlimit:10;}.cls-1{stroke:#000;}.cls-2{stroke:red;stroke-width:3px;}</style></defs><g id="Warstwa_1" data-name="Warstwa 1"><path class="cls-1" d="M45.48,61.21a14.51,14.51,0,0,0,3-.05,4.4,4.4,0,0,1-.06-.73,4.24,4.24,0,0,1,7.62-2.56,14.43,14.43,0,0,0,2.14-2.21A4.24,4.24,0,0,1,60.71,48l.5,0c0-.43.06-.86.06-1.28a14.52,14.52,0,0,0-.12-1.86,4.25,4.25,0,0,1-3.32-7.53,14.33,14.33,0,0,0-2.1-2,4.25,4.25,0,0,1-7.68-2.49,5.46,5.46,0,0,1,0-.57,15.34,15.34,0,0,0-3,0,4.9,4.9,0,0,1,.07.77,4.25,4.25,0,0,1-7.68,2.49,15,15,0,0,0-2.18,2.25,4.24,4.24,0,0,1-2.43,7.72,5.46,5.46,0,0,1-.58,0c0,.42,0,.83,0,1.25a16,16,0,0,0,.09,1.69,4.09,4.09,0,0,1,.85-.09,4.24,4.24,0,0,1,2.44,7.72,14.86,14.86,0,0,0,2.17,2.1,4.21,4.21,0,0,1,3.53-1.89,4.25,4.25,0,0,1,4.24,4.25A5.34,5.34,0,0,1,45.48,61.21Zm1.26-19.49a5,5,0,1,0,5,5A5,5,0,0,0,46.74,41.72Z"/><polygon class="cls-2" points="-840.11 -469.48 -515.62 -469.48 -515.62 -129.41 417.98 -121.33 417.98 -15.9 159.81 -15.8 159.81 160.66 -936.47 160.66 -937.92 -362.64 -1130.65 -364.18 -1130.65 -528.95 -840.11 -528.88 -840.11 -469.48"/><path d="M23.33,18.83a10.69,10.69,0,0,0,.15-10.27H21.54a2.32,2.32,0,0,1-2.33-2.32v-2h0a10.61,10.61,0,0,0-10.6.12h0v2A2.33,2.33,0,0,1,6.28,8.64H4.5a10.74,10.74,0,0,0-1.2,4.92A10.61,10.61,0,0,0,4.82,19H6.4a2.33,2.33,0,0,1,2.33,2.33v1.5a10.58,10.58,0,0,0,10.64-.05V21.16a2.33,2.33,0,0,1,2.33-2.33Z"/><path d="M6.19,1.16A1.21,1.21,0,0,1,7.4,2.37V6.26A1.22,1.22,0,0,1,6.19,7.48H2.29A1.22,1.22,0,0,1,1.08,6.26V2.37A1.21,1.21,0,0,1,2.29,1.16h3.9m0-1.22H2.29A2.43,2.43,0,0,0-.14,2.37V6.26A2.43,2.43,0,0,0,2.29,8.7h3.9A2.43,2.43,0,0,0,8.62,6.26V2.37A2.43,2.43,0,0,0,6.19-.06Z"/><path d="M25.4,1a1.22,1.22,0,0,1,1.22,1.21V6.14A1.22,1.22,0,0,1,25.4,7.36H21.51a1.22,1.22,0,0,1-1.22-1.22V2.25A1.22,1.22,0,0,1,21.51,1H25.4m0-1.22H21.51a2.43,2.43,0,0,0-2.43,2.43V6.14a2.43,2.43,0,0,0,2.43,2.44H25.4a2.43,2.43,0,0,0,2.43-2.44V2.25A2.43,2.43,0,0,0,25.4-.18Z"/><path d="M6.34,20.25a1.22,1.22,0,0,1,1.22,1.21v3.89a1.22,1.22,0,0,1-1.22,1.22H2.45a1.22,1.22,0,0,1-1.21-1.22V21.46a1.21,1.21,0,0,1,1.21-1.21H6.34m0-1.22H2.45A2.43,2.43,0,0,0,0,21.46v3.89a2.43,2.43,0,0,0,2.43,2.44H6.34a2.43,2.43,0,0,0,2.43-2.44V21.46A2.43,2.43,0,0,0,6.34,19Z"/><path d="M25.69,19.88A1.22,1.22,0,0,1,26.9,21.1V25a1.21,1.21,0,0,1-1.21,1.21h-3.9A1.21,1.21,0,0,1,20.58,25V21.1a1.22,1.22,0,0,1,1.21-1.22h3.9m0-1.22h-3.9a2.43,2.43,0,0,0-2.43,2.44V25a2.43,2.43,0,0,0,2.43,2.43h3.9A2.43,2.43,0,0,0,28.12,25V21.1a2.43,2.43,0,0,0-2.43-2.44Z"/></g></svg>