<svg id="Warstwa_1" data-name="Warstwa 1" xmlns="http://www.w3.org/2000/svg" viewBox="0 0 64 64"><path d="M61.14,53.67H59.75a14.38,14.38,0,0,0,.15-12.6h1a2.87,2.87,0,0,0,2.86-2.86v-5a2.87,2.87,0,0,0-2.86-2.86h-5a2.87,2.87,0,0,0-2.86,2.86v.9a14.45,14.45,0,0,0-13,.12V33.3a2.86,2.86,0,0,0-2.86-2.86h-5a2.86,2.86,0,0,0-2.86,2.86v5a2.86,2.86,0,0,0,2.86,2.86h1.24a14.45,14.45,0,0,0,.33,12.78H32.34a2.86,2.86,0,0,0-2.86,2.85v5a2.87,2.87,0,0,0,2.86,2.86h5a2.87,2.87,0,0,0,2.86-2.86V60.26a14.47,14.47,0,0,0,13.07-.06v1.34a2.86,2.86,0,0,0,2.86,2.85h5A2.86,2.86,0,0,0,64,61.54v-5A2.86,2.86,0,0,0,61.14,53.67ZM54.5,33.2a1.44,1.44,0,0,1,1.43-1.43h5a1.44,1.44,0,0,1,1.43,1.43v5a1.44,1.44,0,0,1-1.43,1.43h-5a1.43,1.43,0,0,1-1.43-1.43v-5ZM32.19,39.73a1.43,1.43,0,0,1-1.43-1.43v-5a1.43,1.43,0,0,1,1.43-1.43h5a1.43,1.43,0,0,1,1.43,1.43v5a1.43,1.43,0,0,1-1.43,1.43h-5ZM38.78,61.8a1.44,1.44,0,0,1-1.43,1.43h-5a1.43,1.43,0,0,1-1.43-1.43v-5a1.43,1.43,0,0,1,1.43-1.42h5a1.43,1.43,0,0,1,1.43,1.42v5Zm7.91-1.44a13,13,0,0,1-6.48-1.72V56.79a2.86,2.86,0,0,0-2.86-2.85h-2A13,13,0,0,1,35,41.16h2.17a2.86,2.86,0,0,0,2.86-2.86V35.87h0a13.06,13.06,0,0,1,13-.16h0v2.5a2.87,2.87,0,0,0,2.86,2.86h2.39a13.07,13.07,0,0,1-.18,12.6h-2a2.86,2.86,0,0,0-2.86,2.86v2A13.05,13.05,0,0,1,46.69,60.36Zm15.88,1.18A1.44,1.44,0,0,1,61.14,63h-5a1.44,1.44,0,0,1-1.43-1.43v-5a1.43,1.43,0,0,1,1.43-1.43h5a1.43,1.43,0,0,1,1.43,1.43Z"/><path d="M21.74,17.92a9.76,9.76,0,0,0,.13-9.39H20.1A2.14,2.14,0,0,1,18,6.39V4.53h0a9.73,9.73,0,0,0-9.7.11h0V6.46A2.14,2.14,0,0,1,6.12,8.6H4.5a9.76,9.76,0,0,0,.29,9.52H6.24a2.14,2.14,0,0,1,2.13,2.13v1.38a9.76,9.76,0,0,0,9.75-.05V20.05a2.13,2.13,0,0,1,2.13-2.13Z"/><path d="M5.31,19.65H1.15A1.19,1.19,0,0,0,0,20.84V25A1.19,1.19,0,0,0,1.15,26.2H5.31A1.19,1.19,0,0,0,6.51,25V20.84A1.19,1.19,0,0,0,5.31,19.65Z"/><path d="M4.22,6.55h1.1A1.19,1.19,0,0,0,6.51,5.36V1.19A1.19,1.19,0,0,0,5.32,0H1.15A1.19,1.19,0,0,0,0,1.19V5.36A1.19,1.19,0,0,0,1.15,6.55H4.22Z"/><path d="M21.09,6.55h4.17a1.19,1.19,0,0,0,1.19-1.19V1.19A1.19,1.19,0,0,0,25.26,0H21.09A1.19,1.19,0,0,0,19.9,1.19V5.36A1.19,1.19,0,0,0,21.09,6.55Z"/><path d="M25.26,19.65H21.09a1.19,1.19,0,0,0-1.19,1.19V25a1.19,1.19,0,0,0,1.19,1.19h4.17A1.19,1.19,0,0,0,26.45,25V20.84A1.19,1.19,0,0,0,25.26,19.65Z"/></svg>