<svg xmlns="http://www.w3.org/2000/svg" viewBox="0 0 64 64"><defs><style>.cls-1{fill:none;stroke:red;stroke-miterlimit:10;stroke-width:3px;}</style></defs><g id="Warstwa_1" data-name="Warstwa 1"><polygon class="cls-1" points="-840.11 -469.48 -515.62 -469.48 -515.62 -129.41 417.98 -121.33 417.98 -15.9 159.81 -15.8 159.81 160.66 -936.47 160.66 -937.92 -362.64 -1130.65 -364.18 -1130.65 -528.95 -840.11 -528.88 -840.11 -469.48"/><path d="M21.74,17.92a9.76,9.76,0,0,0,.13-9.39H20.1A2.14,2.14,0,0,1,18,6.39V4.53h0a9.73,9.73,0,0,0-9.7.11h0V6.46A2.14,2.14,0,0,1,6.12,8.6H4.5a9.76,9.76,0,0,0,.29,9.52H6.24a2.14,2.14,0,0,1,2.13,2.13v1.38a9.76,9.76,0,0,0,9.75-.05V20.05a2.13,2.13,0,0,1,2.13-2.13Z"/><path d="M5.31,19.65H1.15A1.19,1.19,0,0,0,0,20.84V25A1.19,1.19,0,0,0,1.15,26.2H5.31A1.19,1.19,0,0,0,6.51,25V20.84A1.19,1.19,0,0,0,5.31,19.65Z"/><path d="M4.22,6.55h1.1A1.19,1.19,0,0,0,6.51,5.36V1.19A1.19,1.19,0,0,0,5.32,0H1.15A1.19,1.19,0,0,0,0,1.19V5.36A1.19,1.19,0,0,0,1.15,6.55H4.22Z"/><path d="M21.09,6.55h4.17a1.19,1.19,0,0,0,1.19-1.19V1.19A1.19,1.19,0,0,0,25.26,0H21.09A1.19,1.19,0,0,0,19.9,1.19V5.36A1.19,1.19,0,0,0,21.09,6.55Z"/><path d="M25.26,19.65H21.09a1.19,1.19,0,0,0-1.19,1.19V25a1.19,1.19,0,0,0,1.19,1.19h4.17A1.19,1.19,0,0,0,26.45,25V20.84A1.19,1.19,0,0,0,25.26,19.65Z"/><path d="M32.65,42.66l-8.33,3.05,8.33,3v3.13l-11.9-4.53V44.08l11.9-4.52Z"/><path d="M41.6,33.41h3.47L36.82,57H33.35Z"/><path d="M57.42,44.08v3.25l-11.9,4.53V48.73l8.33-3-8.33-3.05v-3.1Z"/></g></svg>