<svg id="Warstwa_1" data-name="Warstwa 1" xmlns="http://www.w3.org/2000/svg" viewBox="0 0 64 64"><path d="M59,23H51a4.9,4.9,0,0,0-2,.44l-8.65-8A5,5,0,0,0,41,12.94v-8a5,5,0,0,0-5-5H28a5,5,0,0,0-5,5v8a5,5,0,0,0,5,5h8a4.9,4.9,0,0,0,2.57-.73L47,25a4.94,4.94,0,0,0-1,3v2.75H41V28a5,5,0,0,0-5-5H28a4.9,4.9,0,0,0-2.52.71l-8.19-8.24A4.93,4.93,0,0,0,18,12.94v-8a5,5,0,0,0-5-5H5a5,5,0,0,0-5,5v8a5,5,0,0,0,5,5h8a4.92,4.92,0,0,0,2.52-.7l8.19,8.23A5,5,0,0,0,23,28v8a5,5,0,0,0,.53,2.2l-8,8.54A5,5,0,0,0,13,46.06H5a5,5,0,0,0-5,5v8a5,5,0,0,0,5,5h8a5,5,0,0,0,5-5v-8a5,5,0,0,0-.73-2.57l7.89-8.38A5,5,0,0,0,28,41h8a5,5,0,0,0,5-5V33.25h5V36a5,5,0,0,0,.71,2.53l-8.19,8.23a4.92,4.92,0,0,0-2.52-.7H28a5,5,0,0,0-5,5v8a5,5,0,0,0,5,5h8a5,5,0,0,0,5-5v-8a4.93,4.93,0,0,0-.71-2.53l8.19-8.24A4.9,4.9,0,0,0,51,41h8a5,5,0,0,0,5-5V28A5,5,0,0,0,59,23ZM38.52,12.94a2.5,2.5,0,0,1-2.5,2.5H28a2.5,2.5,0,0,1-2.5-2.5v-8A2.51,2.51,0,0,1,28,2.44h8a2.51,2.51,0,0,1,2.5,2.5Zm-23,0a2.5,2.5,0,0,1-2.5,2.5H5a2.5,2.5,0,0,1-2.5-2.5v-8A2.51,2.51,0,0,1,5,2.44h8a2.51,2.51,0,0,1,2.5,2.5Zm0,46.12a2.51,2.51,0,0,1-2.5,2.5H5a2.51,2.51,0,0,1-2.5-2.5v-8A2.5,2.5,0,0,1,5,48.56h8a2.5,2.5,0,0,1,2.5,2.5ZM38.52,36A2.5,2.5,0,0,1,36,38.5H28a2.5,2.5,0,0,1-2.5-2.5V28A2.5,2.5,0,0,1,28,25.5h8a2.5,2.5,0,0,1,2.5,2.5Zm0,23.06a2.51,2.51,0,0,1-2.5,2.5H28a2.51,2.51,0,0,1-2.5-2.5v-8a2.5,2.5,0,0,1,2.5-2.5h8a2.5,2.5,0,0,1,2.5,2.5ZM61.52,36A2.5,2.5,0,0,1,59,38.5H51a2.5,2.5,0,0,1-2.5-2.5V28A2.5,2.5,0,0,1,51,25.5h8a2.5,2.5,0,0,1,2.5,2.5Z"/></svg>