<svg xmlns="http://www.w3.org/2000/svg" viewBox="0 0 64 64"><defs><style>.cls-1{fill:#fff;}.cls-2{fill:none;stroke:red;stroke-miterlimit:10;stroke-width:3px;}</style></defs><g id="czarne_lot" data-name="czarne lot"><path class="cls-1" d="M61.79,49.27a1.16,1.16,0,0,1-.62-.17L32.49,32.55a1.25,1.25,0,0,1-.62-1.09,1.24,1.24,0,0,1,.62-1.08L61.17,13.82a1.26,1.26,0,0,1,.62-.17,1.29,1.29,0,0,1,.63.17A1.26,1.26,0,0,1,63,14.9V48a1.25,1.25,0,0,1-.62,1.08A1.19,1.19,0,0,1,61.79,49.27Z"/><path d="M61.79,14.9V48L33.12,31.46,61.79,14.9m0-2.5a2.55,2.55,0,0,0-1.25.34L31.87,29.3a2.5,2.5,0,0,0,0,4.33L60.54,50.19a2.54,2.54,0,0,0,1.25.33,2.49,2.49,0,0,0,2.5-2.5V14.9A2.49,2.49,0,0,0,63,12.74a2.52,2.52,0,0,0-1.25-.34Z"/></g><g id="nazwy"><polygon class="cls-2" points="-1008.11 -558.19 -683.62 -558.19 -683.62 -218.12 249.97 -210.04 249.97 -104.61 250.82 71.95 -8.19 71.95 -1104.47 71.95 -1105.92 -451.35 -1298.65 -452.89 -1298.65 -617.66 -1008.11 -617.59 -1008.11 -558.19"/></g></svg>