<svg xmlns="http://www.w3.org/2000/svg" viewBox="0 0 64 64"><defs><style>.cls-1{fill:#fff;}.cls-2{fill:none;stroke:red;stroke-miterlimit:10;stroke-width:3px;}</style></defs><g id="czarne_lot" data-name="czarne lot"><path class="cls-1" d="M46.34,49.81a1.29,1.29,0,0,1-.63-.17L17,33.08a1.24,1.24,0,0,1,0-2.16L45.71,14.36a1.29,1.29,0,0,1,.63-.17,1.26,1.26,0,0,1,1.25,1.25V48.56A1.24,1.24,0,0,1,47,49.64,1.26,1.26,0,0,1,46.34,49.81Z"/><path d="M46.34,15.44V48.56L17.66,32,46.34,15.44m0-2.5a2.42,2.42,0,0,0-1.25.34L16.41,29.84A2.5,2.5,0,0,0,15.16,32a2.52,2.52,0,0,0,1.25,2.17L45.09,50.72a2.42,2.42,0,0,0,1.25.34,2.45,2.45,0,0,0,1.25-.34,2.5,2.5,0,0,0,1.25-2.16V15.44a2.5,2.5,0,0,0-1.25-2.16,2.45,2.45,0,0,0-1.25-.34Z"/></g><g id="nazwy"><polygon class="cls-2" points="-1008.11 -558.19 -683.62 -558.19 -683.62 -218.12 249.97 -210.04 1877.01 -217.52 1877.01 74.01 -8.19 71.95 -1104.47 71.95 -1105.92 -451.35 -1298.65 -452.89 -1298.65 -617.66 -1008.11 -617.59 -1008.11 -558.19"/></g></svg>