<svg xmlns="http://www.w3.org/2000/svg" viewBox="0 0 64 64"><defs><style>.cls-1{fill:none;stroke:red;stroke-miterlimit:10;stroke-width:3px;}</style></defs><g id="czarne_lot" data-name="czarne lot"><path d="M13,2.44a2.51,2.51,0,0,1,2.5,2.5v8a2.5,2.5,0,0,1-2.5,2.5H5a2.5,2.5,0,0,1-2.5-2.5v-8A2.51,2.51,0,0,1,5,2.44h8m0-2.5H5a5,5,0,0,0-5,5v8a5,5,0,0,0,5,5h8a5,5,0,0,0,5-5v-8a5,5,0,0,0-5-5Z"/><path d="M13,48.56a2.5,2.5,0,0,1,2.5,2.5v8a2.51,2.51,0,0,1-2.5,2.5H5a2.51,2.51,0,0,1-2.5-2.5v-8A2.5,2.5,0,0,1,5,48.56h8m0-2.5H5a5,5,0,0,0-5,5v8a5,5,0,0,0,5,5h8a5,5,0,0,0,5-5v-8a5,5,0,0,0-5-5Z"/><path d="M13,25.5A2.5,2.5,0,0,1,15.5,28v8A2.5,2.5,0,0,1,13,38.5H5A2.5,2.5,0,0,1,2.5,36V28A2.5,2.5,0,0,1,5,25.5h8M13,23H5a5,5,0,0,0-5,5v8a5,5,0,0,0,5,5h8a5,5,0,0,0,5-5V28a5,5,0,0,0-5-5Z"/><path d="M59,25.5A2.5,2.5,0,0,1,61.5,28v8A2.5,2.5,0,0,1,59,38.5H27.84a2.5,2.5,0,0,1-2.5-2.5V28a2.5,2.5,0,0,1,2.5-2.5H59M59,23H27.84a5,5,0,0,0-5,5v8a5,5,0,0,0,5,5H59a5,5,0,0,0,5-5V28a5,5,0,0,0-5-5Z"/><path d="M59,2.3a2.5,2.5,0,0,1,2.5,2.5v8A2.5,2.5,0,0,1,59,15.3H27.84a2.5,2.5,0,0,1-2.5-2.5v-8a2.5,2.5,0,0,1,2.5-2.5H59M59-.2H27.84a5,5,0,0,0-5,5v8a5,5,0,0,0,5,5H59a5,5,0,0,0,5-5v-8a5,5,0,0,0-5-5Z"/><path d="M59,48.7a2.5,2.5,0,0,1,2.5,2.5v8A2.5,2.5,0,0,1,59,61.7H27.84a2.5,2.5,0,0,1-2.5-2.5v-8a2.5,2.5,0,0,1,2.5-2.5H59m0-2.5H27.84a5,5,0,0,0-5,5v8a5,5,0,0,0,5,5H59a5,5,0,0,0,5-5v-8a5,5,0,0,0-5-5Z"/></g><g id="nazwy"><polygon class="cls-1" points="-1344.11 -558.19 -1019.62 -558.19 -1019.62 -218.12 -86.03 -210.04 1541.01 -217.52 1541.01 74.01 -344.19 71.95 -1440.47 71.95 -1441.92 -451.35 -1634.65 -452.89 -1634.65 -617.66 -1344.11 -617.59 -1344.11 -558.19"/></g></svg>