<svg id="Warstwa_1" data-name="Warstwa 1" xmlns="http://www.w3.org/2000/svg" viewBox="0 0 64 64"><path d="M52-.12H12a12,12,0,0,0-12,12v40a12,12,0,0,0,12,12H52a12,12,0,0,0,12-12v-40A12,12,0,0,0,52-.12Zm-40,3H52a9,9,0,0,1,9,9v.6H3v-.6A9,9,0,0,1,12,2.88Zm40,58H12a9,9,0,0,1-9-9V15.48H61v36.4A9,9,0,0,1,52,60.88Z"/><rect x="20.85" y="24.36" width="35.8" height="2.5"/><rect x="7.43" y="24.36" width="7.92" height="2.5"/><rect x="20.77" y="36.89" width="35.8" height="2.5"/><rect x="7.35" y="36.89" width="7.92" height="2.5"/><rect x="20.85" y="49.42" width="35.8" height="2.5"/><rect x="7.43" y="49.42" width="7.92" height="2.5"/></svg>