<svg xmlns="http://www.w3.org/2000/svg" viewBox="0 0 64 64"><defs><style>.cls-1{fill:none;stroke:red;stroke-miterlimit:10;stroke-width:3px;}</style></defs><g id="Warstwa_1" data-name="Warstwa 1"><path d="M52-.12H12a12,12,0,0,0-12,12v40a12,12,0,0,0,12,12H52a12,12,0,0,0,12-12v-40A12,12,0,0,0,52-.12Zm-40,3H52a9,9,0,0,1,9,9v.6H3v-.6A9,9,0,0,1,12,2.88Zm40,58H12a9,9,0,0,1-9-9V15.48H61v36.4A9,9,0,0,1,52,60.88Z"/><rect x="21.28" y="26.82" width="35.8" height="2.5"/><rect x="21.28" y="36.68" width="35.8" height="2.5"/><rect x="21.28" y="46.53" width="35.8" height="2.5"/><rect x="7.87" y="26.82" width="7.92" height="2.5"/><rect x="7.87" y="36.68" width="7.92" height="2.5"/><rect x="7.87" y="46.53" width="7.92" height="2.5"/><polygon class="cls-1" points="-252.11 -367.12 72.38 -367.12 72.38 -27.05 1005.98 -18.98 1005.98 86.46 747.81 86.56 747.81 263.02 -348.47 263.02 -349.93 -260.29 -542.65 -261.82 -542.65 -426.6 -252.11 -426.53 -252.11 -367.12"/></g></svg>