<svg id="Warstwa_1" data-name="Warstwa 1" xmlns="http://www.w3.org/2000/svg" viewBox="0 0 64 64"><path d="M32,2.48A20.86,20.86,0,0,1,46.92,8.9a22.5,22.5,0,0,1,6.52,15.22c.27,10.46-17.15,33.78-21.65,37.15-1.86-1.45-6.63-6.85-11.88-15.05-6-9.33-9.47-17.6-9.35-22.1A22.5,22.5,0,0,1,17.08,8.9,20.86,20.86,0,0,1,32,2.48m0,35.05A14.5,14.5,0,1,0,17.5,23,14.51,14.51,0,0,0,32,37.53M32,0C19,0,8.4,11.08,8.06,24.05,7.74,36.32,28.31,64,31.78,64s24.48-27.7,24.16-40C55.6,11.08,45,0,32,0ZM32,35A12,12,0,1,1,44,23,12,12,0,0,1,32,35Z"/></svg>