<svg xmlns="http://www.w3.org/2000/svg" viewBox="0 0 208 64"><defs><style>.cls-1{fill:none;stroke:red;stroke-miterlimit:10;stroke-width:3px;}</style></defs><g id="nazwy"><polygon class="cls-1" points="220.09 -9.39 544.58 -9.39 544.58 330.68 1478.18 338.76 1478.18 444.2 1479.03 620.75 1220.02 620.75 123.73 620.75 122.28 97.45 -70.44 95.91 -70.44 -68.86 220.09 -68.79 220.09 -9.39"/></g><g id="Warstwa_1" data-name="Warstwa 1"><path d="M30.81,38.6A14,14,0,0,0,31,25.12H28.45a3.06,3.06,0,0,1-3.05-3.05V19.4h0a14,14,0,0,0-13.92.16h0v2.61a3.06,3.06,0,0,1-3.06,3H6.09a14,14,0,0,0,.42,13.66H8.58a3.06,3.06,0,0,1,3.06,3v2a13.95,13.95,0,0,0,14-.07V41.65a3.06,3.06,0,0,1,3.06-3Z"/><path d="M8.42,40.41H3.07a1.53,1.53,0,0,0-1.53,1.52v5.35a1.53,1.53,0,0,0,1.53,1.53H8.42A1.53,1.53,0,0,0,10,47.28V41.93A1.53,1.53,0,0,0,8.42,40.41Z"/><path d="M7,23.59H8.42A1.53,1.53,0,0,0,10,22.07V16.72a1.53,1.53,0,0,0-1.53-1.53H3.07a1.53,1.53,0,0,0-1.53,1.53v5.35a1.53,1.53,0,0,0,1.53,1.52H7Z"/><path d="M28.45,23.59H33.8a1.53,1.53,0,0,0,1.53-1.52V16.72a1.53,1.53,0,0,0-1.53-1.53H28.45a1.53,1.53,0,0,0-1.53,1.53v5.35A1.53,1.53,0,0,0,28.45,23.59Z"/><path d="M34,40.12H28.67a1.54,1.54,0,0,0-1.53,1.53V47a1.54,1.54,0,0,0,1.53,1.53H34A1.54,1.54,0,0,0,35.55,47V41.65A1.54,1.54,0,0,0,34,40.12Z"/></g></svg>