<svg xmlns="http://www.w3.org/2000/svg" viewBox="0 0 256 124"><defs><style>.cls-1{fill:none;stroke:red;stroke-miterlimit:10;stroke-width:3px;}</style></defs><g id="Warstwa_1" data-name="Warstwa 1"><polygon class="cls-1" points="272.74 29.08 597.23 29.08 597.23 369.15 1530.83 377.23 1530.83 482.67 1272.66 482.76 1272.66 659.22 176.38 659.22 174.93 135.92 -17.8 134.38 -17.8 -30.39 272.74 -30.32 272.74 29.08"/><path d="M69.22,71.05V52h2.64v19Z"/><path d="M79.32,71.05V52h2.61v3.05h.13a6.13,6.13,0,0,1,.84-1.43,4.8,4.8,0,0,1,1.7-1.34,6.31,6.31,0,0,1,2.83-.55c.21,0,.41,0,.61,0l.57.05v2.43l-.62,0c-.27,0-.56,0-.86,0a5.79,5.79,0,0,0-2.84.64,4.31,4.31,0,0,0-1.76,1.73,5.15,5.15,0,0,0-.6,2.51v12Z"/><path d="M100.2,51.73a8.53,8.53,0,0,1,4.07,1,7.1,7.1,0,0,1,2.87,2.83,8.87,8.87,0,0,1,1.07,4.5v3a8.87,8.87,0,0,1-1.07,4.5,7.1,7.1,0,0,1-2.87,2.83,8.53,8.53,0,0,1-4.07,1,8.67,8.67,0,0,1-4.12-1,7,7,0,0,1-2.86-2.82,9,9,0,0,1-1-4.52v-3a8.89,8.89,0,0,1,1-4.44,7.21,7.21,0,0,1,2.87-2.87A8.34,8.34,0,0,1,100.2,51.73Zm0,2.34a5,5,0,0,0-4.74,3,7.63,7.63,0,0,0-.67,3.32v2.43a7.9,7.9,0,0,0,.64,3.34,4.92,4.92,0,0,0,1.86,2.16,5.91,5.91,0,0,0,5.78,0,5,5,0,0,0,1.85-2.16,8,8,0,0,0,.65-3.35V60.34a7.58,7.58,0,0,0-.67-3.31A5.21,5.21,0,0,0,103,54.85,5.1,5.1,0,0,0,100.22,54.07Z"/><path d="M114,71.05V52h2.61v3.54h.15a6.58,6.58,0,0,1,.86-1.69,4.83,4.83,0,0,1,1.81-1.51,8,8,0,0,1,7.86.94,6,6,0,0,1,1.8,4.75v13h-2.6V58.9a5.91,5.91,0,0,0-.53-2.6,3.75,3.75,0,0,0-1.51-1.66,4.7,4.7,0,0,0-2.43-.58,5.09,5.09,0,0,0-3,.85,5.2,5.2,0,0,0-1.79,2.28,8.22,8.22,0,0,0-.59,3.15V71.05Z"/><path d="M136.18,71.05V52h2.64v19Z"/><path d="M146,71.05V52h2.61v3.54h.15a6.58,6.58,0,0,1,.86-1.69,4.83,4.83,0,0,1,1.81-1.51,8,8,0,0,1,7.86.94,6,6,0,0,1,1.8,4.75v13h-2.6V58.9a5.91,5.91,0,0,0-.53-2.6,3.75,3.75,0,0,0-1.51-1.66,4.7,4.7,0,0,0-2.43-.58,5.09,5.09,0,0,0-3,.85,5.2,5.2,0,0,0-1.79,2.28,8.22,8.22,0,0,0-.59,3.15V71.05Z"/><path d="M166.8,57.36a5.08,5.08,0,0,1,1-3.2,5.76,5.76,0,0,1,2.51-1.83,9.23,9.23,0,0,1,3.35-.6,8.27,8.27,0,0,1,3.57.7,5.51,5.51,0,0,1,2.27,1.87,4.58,4.58,0,0,1,.79,2.64h-2.47a3,3,0,0,0-.52-1.39,3.46,3.46,0,0,0-1.38-1.15,5.32,5.32,0,0,0-2.35-.45,5.19,5.19,0,0,0-3,.8,2.62,2.62,0,0,0-1.19,2.32,2.39,2.39,0,0,0,.41,1.44,2.76,2.76,0,0,0,1.08.88,7,7,0,0,0,1.51.52l1.72.37a22,22,0,0,1,3.3.85,5.58,5.58,0,0,1,2.41,1.54,4.12,4.12,0,0,1,.92,2.88,5.2,5.2,0,0,1-.95,3.18,6,6,0,0,1-2.61,2,10.13,10.13,0,0,1-3.79.67,9.56,9.56,0,0,1-3.67-.64,5.42,5.42,0,0,1-2.42-1.8,4.45,4.45,0,0,1-.87-2.75H169a3.63,3.63,0,0,0,.61,1.55A3.09,3.09,0,0,0,171,68.78a8.11,8.11,0,0,0,5.06,0,3.29,3.29,0,0,0,1.54-1.17,2.9,2.9,0,0,0,.51-1.68,2.29,2.29,0,0,0-.68-1.77,4.38,4.38,0,0,0-1.77-.94q-1.1-.33-2.46-.6a30.14,30.14,0,0,1-3.26-.91,5.28,5.28,0,0,1-2.31-1.5A4.13,4.13,0,0,1,166.8,57.36Z"/><path d="M186.79,71.05V52h2.63v19Z"/><path d="M203.22,75.62a5.47,5.47,0,0,0,4-1.35,5,5,0,0,0,1.34-3.69v-3h-.16a4.48,4.48,0,0,1-.75,1.14,5.16,5.16,0,0,1-1.19,1,6.41,6.41,0,0,1-3.53,1,7.81,7.81,0,0,1-3.82-1A7.11,7.11,0,0,1,196.42,67a8.36,8.36,0,0,1-1-4.21V59.63a8.25,8.25,0,0,1,1-4.24,7,7,0,0,1,2.73-2.71,7.65,7.65,0,0,1,3.77-1,6.47,6.47,0,0,1,2.66.51,6.24,6.24,0,0,1,1.92,1.27A4.64,4.64,0,0,1,208.59,55h.13V52h2.49V70.49a8.5,8.5,0,0,1-.59,3.3A6,6,0,0,1,209,76.11a6.83,6.83,0,0,1-2.55,1.38,11,11,0,0,1-3.3.46,9.42,9.42,0,0,1-3.93-.72,5.78,5.78,0,0,1-2.38-1.88,5.11,5.11,0,0,1-1-2.49h2.73a2.53,2.53,0,0,0,.68,1.34,4.17,4.17,0,0,0,1.57,1A6.52,6.52,0,0,0,203.22,75.62Zm.23-21.56A5,5,0,0,0,198.71,57a7.54,7.54,0,0,0-.67,3.27v1.91a7.13,7.13,0,0,0,.7,3.22,5.36,5.36,0,0,0,1.93,2.17,5.08,5.08,0,0,0,2.8.78,4.8,4.8,0,0,0,2.81-.8A5.23,5.23,0,0,0,208,65.45a6.49,6.49,0,0,0,.59-2.72v-3A6.38,6.38,0,0,0,208,57a5.54,5.54,0,0,0-1.77-2.12A4.59,4.59,0,0,0,203.45,54.06Z"/><path d="M218.18,71.05V45h2.61V55.58h.15A5.86,5.86,0,0,1,221.8,54a5.3,5.3,0,0,1,1.9-1.56,7,7,0,0,1,3.23-.65,6.75,6.75,0,0,1,4.59,1.59,6,6,0,0,1,1.84,4.75v13h-2.62V58.94a5.71,5.71,0,0,0-.55-2.63,3.85,3.85,0,0,0-1.57-1.67,4.85,4.85,0,0,0-2.45-.58,5,5,0,0,0-3,.85,5.22,5.22,0,0,0-1.8,2.28,8,8,0,0,0-.6,3.15V71.05Z"/><path d="M241,52.06V47.3h2.61v4.76H248v2.18h-4.47V66a3.07,3.07,0,0,0,.69,2.37,4,4,0,0,0,2.52.59c.23,0,.51,0,.83,0s.57,0,.74-.07v2.22l-1,.09c-.5,0-.91,0-1.21,0a7.52,7.52,0,0,1-3.3-.57,3,3,0,0,1-1.51-1.76,9.49,9.49,0,0,1-.4-3V54.24h-3V52.06Z"/><path d="M59,71.42H56.93a21.78,21.78,0,0,0,.23-19.05h1.57a4.33,4.33,0,0,0,4.32-4.32V40.48a4.33,4.33,0,0,0-4.32-4.32H51.16a4.33,4.33,0,0,0-4.32,4.32v1.36A21.87,21.87,0,0,0,27.16,42v-1.4a4.33,4.33,0,0,0-4.32-4.32H15.27A4.33,4.33,0,0,0,11,40.62v7.57a4.33,4.33,0,0,0,4.32,4.32h1.88a21.82,21.82,0,0,0,.5,19.31H15.5a4.33,4.33,0,0,0-4.32,4.32V83.7A4.33,4.33,0,0,0,15.5,88h7.57a4.33,4.33,0,0,0,4.32-4.33V81.37a21.78,21.78,0,0,0,19.76-.08v2a4.33,4.33,0,0,0,4.32,4.32H59a4.33,4.33,0,0,0,4.32-4.32V75.74A4.33,4.33,0,0,0,59,71.42ZM49,40.48a2.16,2.16,0,0,1,2.16-2.16h7.57a2.16,2.16,0,0,1,2.16,2.16v7.57a2.16,2.16,0,0,1-2.16,2.16H51.16A2.16,2.16,0,0,1,49,48.05V40.48ZM15.27,50.35a2.16,2.16,0,0,1-2.16-2.16V40.62a2.16,2.16,0,0,1,2.16-2.16h7.57A2.16,2.16,0,0,1,25,40.62v7.57a2.16,2.16,0,0,1-2.16,2.16H15.27Zm10,33.35a2.17,2.17,0,0,1-2.16,2.17H15.5a2.17,2.17,0,0,1-2.16-2.17V76.14A2.16,2.16,0,0,1,15.5,74h7.57a2.16,2.16,0,0,1,2.16,2.16V83.7Zm12-2.16a19.76,19.76,0,0,1-9.8-2.61V76.14a4.33,4.33,0,0,0-4.32-4.32H20.13a19.69,19.69,0,0,1-.58-19.31h3.29a4.33,4.33,0,0,0,4.32-4.32V44.5h0a19.77,19.77,0,0,1,19.68-.23h0v3.78a4.33,4.33,0,0,0,4.32,4.32h3.61a19.76,19.76,0,0,1-.28,19.05h-3a4.33,4.33,0,0,0-4.32,4.32v3.1A19.8,19.8,0,0,1,37.19,81.54Zm24,1.77A2.16,2.16,0,0,1,59,85.47H51.47a2.16,2.16,0,0,1-2.16-2.16V75.74a2.16,2.16,0,0,1,2.16-2.16H59a2.16,2.16,0,0,1,2.16,2.16Z"/></g></svg>