<svg id="Warstwa_1" data-name="Warstwa 1" xmlns="http://www.w3.org/2000/svg" viewBox="0 0 256 124"><path d="M64.44,51.86h3.12V70.68H64.44Z"/><path d="M77.2,53.27a8.84,8.84,0,0,1,8.85-1l-1,2.5A8.54,8.54,0,0,0,82,54.17a8.25,8.25,0,0,0-4.48,1.31v15.2H74.42V51.86h2.19Z"/><path d="M97.88,51.5A8.79,8.79,0,0,1,104.31,54a9.29,9.29,0,0,1,2.52,6.9,10.42,10.42,0,0,1-2.58,7.42,8.76,8.76,0,0,1-6.68,2.75,8.45,8.45,0,0,1-6.38-2.58,9.7,9.7,0,0,1-2.47-7,10.26,10.26,0,0,1,2.52-7.27A8.64,8.64,0,0,1,97.88,51.5Zm-.27,2.67A5.51,5.51,0,0,0,93.52,56a6.82,6.82,0,0,0-1.75,5,8.23,8.23,0,0,0,1.71,5.29,5.42,5.42,0,0,0,4.44,2.15,5.36,5.36,0,0,0,4.19-1.9,7.29,7.29,0,0,0,1.67-5,8.91,8.91,0,0,0-.54-3.18,6.26,6.26,0,0,0-3.4-3.7A5.45,5.45,0,0,0,97.61,54.17Z"/><path d="M112.73,51.86h2.19l.69,1.6a14.06,14.06,0,0,1,6.62-2,6.73,6.73,0,0,1,2.69.49,4.67,4.67,0,0,1,1.77,1.22,5.38,5.38,0,0,1,1,1.84,9.8,9.8,0,0,1,.48,2.13,22.53,22.53,0,0,1,.1,2.3V70.68h-3.12V59.25q0-4.95-4.27-5a11.14,11.14,0,0,0-5,1.47V70.68h-3.12Z"/><path d="M135.13,51.86h3.12V70.68h-3.12Z"/><path d="M145.1,51.86h2.19l.69,1.6a14.06,14.06,0,0,1,6.63-2,6.68,6.68,0,0,1,2.68.49,4.67,4.67,0,0,1,1.77,1.22,5.22,5.22,0,0,1,1,1.84,9.8,9.8,0,0,1,.48,2.13,22.53,22.53,0,0,1,.1,2.3V70.68h-3.12V59.25q0-4.95-4.27-5a11.11,11.11,0,0,0-5,1.47V70.68H145.1Z"/><path d="M175.31,51.5h.75c.23,0,.46,0,.68.05l.58,0,.55.08.46.09.47.11.41.11.45.13.43.13-.8,2.38a17.13,17.13,0,0,0-4.5-.7,7.51,7.51,0,0,0-2,.23,4.09,4.09,0,0,0-1.33.55,2.86,2.86,0,0,0-.76.75,2.27,2.27,0,0,0-.47,1.38,1.73,1.73,0,0,0,.81,1.39,6.45,6.45,0,0,0,2,1c.81.26,1.68.56,2.62.91s1.81.71,2.62,1.1a5.59,5.59,0,0,1,2,1.63,3.84,3.84,0,0,1,.81,2.42,5.45,5.45,0,0,1-.2,1.51,4.74,4.74,0,0,1-.76,1.53,4.92,4.92,0,0,1-1.45,1.38,8,8,0,0,1-2.37,1,13.91,13.91,0,0,1-3.4.38,17,17,0,0,1-6.4-1.43l.87-2.36c1.31.48,2.38.82,3.21,1a10.46,10.46,0,0,0,2.45.3q4.65,0,4.65-2.95a1.65,1.65,0,0,0-.46-1.14,3.43,3.43,0,0,0-1.22-.81c-.51-.21-1.08-.43-1.72-.65s-1.3-.43-2-.62a12.33,12.33,0,0,1-2-.75,11.34,11.34,0,0,1-1.72-1,4.06,4.06,0,0,1-1.22-1.46,4.41,4.41,0,0,1-.46-2,5,5,0,0,1,.22-1.41,5.12,5.12,0,0,1,.82-1.5,6.07,6.07,0,0,1,1.5-1.39,7.78,7.78,0,0,1,2.39-1A13.36,13.36,0,0,1,175.31,51.5Z"/><path d="M186.85,51.86H190V70.68h-3.12Z"/><path d="M204.58,51.48A11.65,11.65,0,0,1,209.77,53l.4-1.13h2.19v20c0,.38,0,.75,0,1.1s-.11.86-.23,1.51a9.16,9.16,0,0,1-.54,1.77,8.37,8.37,0,0,1-1,1.72,6.7,6.7,0,0,1-1.64,1.55,8.55,8.55,0,0,1-2.44,1,12.36,12.36,0,0,1-3.34.42,15.06,15.06,0,0,1-5.83-1.22l.88-2.27a12.83,12.83,0,0,0,4.55.88q6.53,0,6.53-7.22V69.76a10.48,10.48,0,0,1-5,1.3,9.1,9.1,0,0,1-2.38-.32,7.83,7.83,0,0,1-2.27-1,7.7,7.7,0,0,1-2-1.83,8.88,8.88,0,0,1-1.33-2.78,13,13,0,0,1-.51-3.76,12.28,12.28,0,0,1,.61-4A8.37,8.37,0,0,1,198,54.55a8.75,8.75,0,0,1,2.14-1.79,8.38,8.38,0,0,1,2.31-1A8.56,8.56,0,0,1,204.58,51.48Zm.19,2.53a5.33,5.33,0,0,0-4.27,1.91,7.52,7.52,0,0,0-1.62,5,10,10,0,0,0,.67,3.77,6,6,0,0,0,2.11,2.72,5.86,5.86,0,0,0,3.49,1,8.59,8.59,0,0,0,4.09-1.09V55.08A12.24,12.24,0,0,0,204.77,54Z"/><path d="M227.56,54.3a11.08,11.08,0,0,0-5,1.47V70.68h-3.12V41.9h3.12V53.29a13.42,13.42,0,0,1,6.25-1.77,7.52,7.52,0,0,1,2.26.32,5.83,5.83,0,0,1,1.64.81,4.56,4.56,0,0,1,1.12,1.26,7.92,7.92,0,0,1,.7,1.45,7.71,7.71,0,0,1,.36,1.61c.09.62.14,1.13.16,1.52s0,.86,0,1.39v10.8h-3.19V59.31Q231.85,54.3,227.56,54.3Z"/><path d="M251.9,70.35a18.78,18.78,0,0,1-4.31.71,6.23,6.23,0,0,1-2.61-.5,3.54,3.54,0,0,1-1.61-1.41,6.27,6.27,0,0,1-.79-2,11,11,0,0,1-.24-2.43V54.32h-2.53V51.86h2.53V46.47h3.12v5.39h5.73v2.46h-5.73v10.4q0,3.9,3.09,3.9a25.24,25.24,0,0,0,2.91-.4Z"/><path d="M53,71.3h-2.1a21.76,21.76,0,0,0,.23-19h1.56A4.32,4.32,0,0,0,57,48V40.44a4.31,4.31,0,0,0-4.31-4.31H45.12a4.32,4.32,0,0,0-4.32,4.31v1.35A21.81,21.81,0,0,0,21.17,42v-1.4a4.32,4.32,0,0,0-4.31-4.31H9.31A4.31,4.31,0,0,0,5,40.58v7.55a4.31,4.31,0,0,0,4.31,4.31h1.87a21.8,21.8,0,0,0,.5,19.26H9.54A4.32,4.32,0,0,0,5.23,76v7.55a4.31,4.31,0,0,0,4.31,4.31h7.55a4.32,4.32,0,0,0,4.31-4.31V81.23a21.8,21.8,0,0,0,19.71-.07v2a4.31,4.31,0,0,0,4.31,4.31H53a4.31,4.31,0,0,0,4.31-4.31V75.62A4.32,4.32,0,0,0,53,71.3ZM43,40.44a2.16,2.16,0,0,1,2.16-2.16h7.54a2.16,2.16,0,0,1,2.16,2.16V48a2.16,2.16,0,0,1-2.16,2.15H45.12A2.16,2.16,0,0,1,43,48V40.44ZM9.31,50.28a2.16,2.16,0,0,1-2.16-2.15V40.58a2.16,2.16,0,0,1,2.16-2.15h7.55A2.15,2.15,0,0,1,19,40.58v7.55a2.15,2.15,0,0,1-2.15,2.15H9.31Zm9.93,33.28a2.16,2.16,0,0,1-2.15,2.16H9.54a2.16,2.16,0,0,1-2.16-2.16V76a2.16,2.16,0,0,1,2.16-2.15h7.55A2.15,2.15,0,0,1,19.24,76v7.55ZM31.18,81.4a19.65,19.65,0,0,1-9.78-2.6V76a4.32,4.32,0,0,0-4.31-4.31H14.16a19.63,19.63,0,0,1-.59-19.26h3.29a4.32,4.32,0,0,0,4.31-4.31V44.45h0a19.67,19.67,0,0,1,19.63-.23h0V48a4.33,4.33,0,0,0,4.32,4.31h3.59a19.69,19.69,0,0,1-.27,19h-3a4.32,4.32,0,0,0-4.31,4.32V78.7A19.62,19.62,0,0,1,31.18,81.4Zm23.94,1.76A2.16,2.16,0,0,1,53,85.32H45.42a2.16,2.16,0,0,1-2.15-2.16V75.62a2.16,2.16,0,0,1,2.15-2.16H53a2.16,2.16,0,0,1,2.15,2.16Z"/></svg>