<svg xmlns="http://www.w3.org/2000/svg" viewBox="0 0 208 64"><defs><style>.cls-1{fill:none;stroke:red;stroke-miterlimit:10;stroke-width:3px;}</style></defs><g id="nazwy"><polygon class="cls-1" points="220.09 -9.39 544.58 -9.39 544.58 330.68 1478.18 338.76 1478.18 444.2 1479.03 620.75 1220.02 620.75 123.73 620.75 122.28 97.45 -70.44 95.91 -70.44 -68.86 220.09 -68.79 220.09 -9.39"/></g><g id="Warstwa_1" data-name="Warstwa 1"><path d="M34,38.59H32.49a15.35,15.35,0,0,0,.17-13.46h1.11a3.06,3.06,0,0,0,3-3.06V16.73a3.06,3.06,0,0,0-3-3.06H28.42a3.06,3.06,0,0,0-3.06,3.06v1a15.36,15.36,0,0,0-13.91.13v-1a3.06,3.06,0,0,0-3-3.06H3.05a3.06,3.06,0,0,0-3,3.06v5.34a3.06,3.06,0,0,0,3.05,3.06H4.38a15.43,15.43,0,0,0,.35,13.64H3.22A3.06,3.06,0,0,0,.16,41.93v5.34a3.06,3.06,0,0,0,3.06,3.06H8.56a3.06,3.06,0,0,0,3.06-3.06V45.62a15.38,15.38,0,0,0,14,0V47a3.06,3.06,0,0,0,3.06,3.06H34A3.06,3.06,0,0,0,37,47V41.65A3.06,3.06,0,0,0,34,38.59ZM26.89,16.73a1.53,1.53,0,0,1,1.53-1.53h5.35a1.52,1.52,0,0,1,1.52,1.53v5.34a1.53,1.53,0,0,1-1.52,1.53H28.42a1.54,1.54,0,0,1-1.53-1.53V16.73Zm-23.84,7a1.52,1.52,0,0,1-1.52-1.53V16.83A1.52,1.52,0,0,1,3.05,15.3H8.4a1.53,1.53,0,0,1,1.53,1.53v5.34A1.53,1.53,0,0,1,8.4,23.7H3.05Zm7,23.57A1.52,1.52,0,0,1,8.56,48.8H3.22a1.53,1.53,0,0,1-1.53-1.53V41.93A1.54,1.54,0,0,1,3.22,40.4H8.56a1.53,1.53,0,0,1,1.53,1.53v5.34Zm8.45-1.53a13.92,13.92,0,0,1-6.92-1.84v-2a3.06,3.06,0,0,0-3.06-3.06H6.49a13.94,13.94,0,0,1-.42-13.64H8.4a3.06,3.06,0,0,0,3-3.06v-2.6h0a13.94,13.94,0,0,1,13.91-.16h0v2.66a3.06,3.06,0,0,0,3.06,3.06H31a14,14,0,0,1-.2,13.46H28.64a3.06,3.06,0,0,0-3.06,3.06v2.18A13.9,13.9,0,0,1,18.54,45.74Zm17,1.25A1.53,1.53,0,0,1,34,48.52H28.64A1.54,1.54,0,0,1,27.11,47V41.65a1.53,1.53,0,0,1,1.53-1.53H34a1.52,1.52,0,0,1,1.53,1.53Z"/><path d="M34,38.59H32.49a15.35,15.35,0,0,0,.17-13.46h1.11a3.06,3.06,0,0,0,3-3.06V16.73a3.06,3.06,0,0,0-3-3.06H28.42a3.06,3.06,0,0,0-3.06,3.06v1a15.36,15.36,0,0,0-13.91.13v-1a3.06,3.06,0,0,0-3-3.06H3.05a3.06,3.06,0,0,0-3,3.06v5.34a3.06,3.06,0,0,0,3.05,3.06H4.38a15.43,15.43,0,0,0,.35,13.64H3.22A3.06,3.06,0,0,0,.16,41.93v5.34a3.06,3.06,0,0,0,3.06,3.06H8.56a3.06,3.06,0,0,0,3.06-3.06V45.62a15.38,15.38,0,0,0,14,0V47a3.06,3.06,0,0,0,3.06,3.06H34A3.06,3.06,0,0,0,37,47V41.65A3.06,3.06,0,0,0,34,38.59ZM18.54,45.74a13.92,13.92,0,0,1-6.92-1.84v-2a3.06,3.06,0,0,0-3.06-3.06H6.49a13.94,13.94,0,0,1-.42-13.64H8.4a3.06,3.06,0,0,0,3-3.06v-2.6h0a13.94,13.94,0,0,1,13.91-.16h0v2.66a3.06,3.06,0,0,0,3.06,3.06H31a14,14,0,0,1-.2,13.46H28.64a3.06,3.06,0,0,0-3.06,3.06v2.18A13.9,13.9,0,0,1,18.54,45.74Z"/></g></svg>