<svg id="Warstwa_1" data-name="Warstwa 1" xmlns="http://www.w3.org/2000/svg" viewBox="0 0 208 64"><defs><style>.cls-1{font-size:32.73px;font-family:Cantarell-Regular, Cantarell;}</style></defs><text class="cls-1" transform="translate(46.84 39.63)">ironinsight</text><path d="M40.09,40.16H38.33A18.46,18.46,0,0,0,40.26,32a18.27,18.27,0,0,0-1.74-7.77h1.31a3.62,3.62,0,0,0,3.62-3.62V14.25a3.63,3.63,0,0,0-3.62-3.62H33.5a3.63,3.63,0,0,0-3.62,3.62v1.14a18.27,18.27,0,0,0-16.48.15V14.37a3.62,3.62,0,0,0-3.62-3.62H3.45A3.62,3.62,0,0,0-.17,14.37V20.7a3.62,3.62,0,0,0,3.62,3.62H5a18.34,18.34,0,0,0,.41,16.17H3.64A3.62,3.62,0,0,0,0,44.11v6.33a3.62,3.62,0,0,0,3.62,3.62H10a3.62,3.62,0,0,0,3.62-3.62V48.49a18.24,18.24,0,0,0,16.55-.07v1.69a3.63,3.63,0,0,0,3.62,3.62h6.33a3.63,3.63,0,0,0,3.62-3.62V43.78A3.62,3.62,0,0,0,40.09,40.16Zm-8.4-25.91a1.81,1.81,0,0,1,1.81-1.81h6.33a1.81,1.81,0,0,1,1.81,1.81v6.33a1.81,1.81,0,0,1-1.81,1.81H33.5a1.81,1.81,0,0,1-1.81-1.81V14.25ZM3.45,22.51A1.81,1.81,0,0,1,1.64,20.7V14.37a1.81,1.81,0,0,1,1.81-1.81H9.78a1.81,1.81,0,0,1,1.81,1.81V20.7a1.81,1.81,0,0,1-1.81,1.81H3.45Zm8.33,27.93A1.81,1.81,0,0,1,10,52.25H3.64a1.81,1.81,0,0,1-1.81-1.81V44.11A1.81,1.81,0,0,1,3.64,42.3H10a1.81,1.81,0,0,1,1.81,1.81v6.33Zm10-1.81a16.55,16.55,0,0,1-8.21-2.18V44.11A3.62,3.62,0,0,0,10,40.49H7.51A16.57,16.57,0,0,1,7,24.32H9.78A3.62,3.62,0,0,0,13.4,20.7V17.62h0a16.54,16.54,0,0,1,16.48-.2v3.17A3.62,3.62,0,0,0,33.5,24.2h3a16.61,16.61,0,0,1-.23,16H33.76a3.62,3.62,0,0,0-3.62,3.62v2.59A16.53,16.53,0,0,1,21.8,48.63Zm20.1,1.48a1.81,1.81,0,0,1-1.81,1.81H33.76A1.81,1.81,0,0,1,32,50.11V43.78A1.81,1.81,0,0,1,33.76,42h6.33a1.81,1.81,0,0,1,1.81,1.81Z"/></svg>