<svg xmlns="http://www.w3.org/2000/svg" viewBox="0 0 208 64"><defs><style>.cls-1{fill:none;stroke:red;stroke-miterlimit:10;stroke-width:3px;}</style></defs><g id="nazwy"><polygon class="cls-1" points="220.09 -9.39 544.58 -9.39 544.58 330.68 1478.18 338.76 1478.18 444.2 1479.03 620.75 1220.02 620.75 123.73 620.75 122.28 97.45 -70.44 95.91 -70.44 -68.86 220.09 -68.79 220.09 -9.39"/></g><g id="Warstwa_1" data-name="Warstwa 1"><path d="M33.81,38.59H32.32a15.35,15.35,0,0,0,.17-13.46h1.1a3.06,3.06,0,0,0,3.06-3.06V16.73a3.06,3.06,0,0,0-3.06-3.06H28.25a3.06,3.06,0,0,0-3.06,3.06v1a15.36,15.36,0,0,0-13.91.13v-1a3.06,3.06,0,0,0-3-3.06H2.88a3.06,3.06,0,0,0-3,3.06v5.34a3.06,3.06,0,0,0,3.05,3.06H4.21a15.43,15.43,0,0,0,.35,13.64H3.05A3.06,3.06,0,0,0,0,41.93v5.34a3.06,3.06,0,0,0,3.06,3.06H8.39a3.06,3.06,0,0,0,3.06-3.06V45.62a15.38,15.38,0,0,0,14,0V47a3.06,3.06,0,0,0,3.05,3.06h5.35A3.06,3.06,0,0,0,36.87,47V41.65A3.06,3.06,0,0,0,33.81,38.59ZM26.72,16.73a1.53,1.53,0,0,1,1.53-1.53h5.34a1.53,1.53,0,0,1,1.53,1.53v5.34a1.54,1.54,0,0,1-1.53,1.53H28.25a1.54,1.54,0,0,1-1.53-1.53V16.73Zm-23.84,7a1.53,1.53,0,0,1-1.53-1.53V16.83A1.53,1.53,0,0,1,2.88,15.3H8.23a1.52,1.52,0,0,1,1.52,1.53v5.34A1.52,1.52,0,0,1,8.23,23.7H2.88Zm7,23.57A1.53,1.53,0,0,1,8.39,48.8H3.05a1.52,1.52,0,0,1-1.53-1.53V41.93A1.53,1.53,0,0,1,3.05,40.4H8.39a1.54,1.54,0,0,1,1.53,1.53v5.34Zm8.45-1.53a13.86,13.86,0,0,1-6.92-1.84v-2a3.06,3.06,0,0,0-3.06-3.06H6.32A13.94,13.94,0,0,1,5.9,25.23H8.23a3.06,3.06,0,0,0,3-3.06v-2.6h0a13.94,13.94,0,0,1,13.91-.16h0v2.66a3.06,3.06,0,0,0,3.06,3.06h2.54a13.93,13.93,0,0,1-.19,13.46H28.46a3.06,3.06,0,0,0-3.05,3.06v2.18A13.9,13.9,0,0,1,18.37,45.74Zm17,1.25a1.54,1.54,0,0,1-1.53,1.53H28.46A1.53,1.53,0,0,1,26.94,47V41.65a1.52,1.52,0,0,1,1.52-1.53h5.35a1.53,1.53,0,0,1,1.53,1.53Z"/></g></svg>