<svg id="Warstwa_1" data-name="Warstwa 1" xmlns="http://www.w3.org/2000/svg" viewBox="0 0 64 64"><path d="M14.69,44.21a8.25,8.25,0,0,0-1.22.09l-.53.08.17.51a1.63,1.63,0,0,1,.07.45,1.46,1.46,0,0,1-2.74.69l-.25-.47-.43.33a8.08,8.08,0,0,0-1.6,1.65l-.3.42.46.24a1.47,1.47,0,0,1,.78,1.3A1.45,1.45,0,0,1,7.65,51a1.74,1.74,0,0,1-.39-.05l-.5-.14-.07.52a8.06,8.06,0,0,0-.06,1,8.25,8.25,0,0,0,.1,1.22l.08.54.52-.18a1.51,1.51,0,0,1,.48-.08,1.46,1.46,0,0,1,.66,2.75L8,56.76l.33.43a8,8,0,0,0,1.62,1.57l.44.32.24-.48a1.44,1.44,0,0,1,1.31-.82,1.45,1.45,0,0,1,1.45,1.45,1.54,1.54,0,0,1-.06.43l-.16.52.54.06a7.93,7.93,0,0,0,1,.07,8.8,8.8,0,0,0,1.26-.1l.52-.08-.16-.5a1.61,1.61,0,0,1-.06-.44,1.45,1.45,0,0,1,1.45-1.45,1.47,1.47,0,0,1,1.27.73l.26.46.41-.32A8.08,8.08,0,0,0,21.2,57l.3-.42-.45-.24a1.46,1.46,0,0,1,.71-2.74,1.34,1.34,0,0,1,.35.05l.5.12.06-.51a8.36,8.36,0,0,0,0-2.29l-.09-.51-.49.15a1.54,1.54,0,0,1-.43.06,1.45,1.45,0,0,1-1.45-1.45,1.49,1.49,0,0,1,.71-1.26l.44-.26L21,47.27a7.92,7.92,0,0,0-1.56-1.5L19,45.46l-.25.46a1.48,1.48,0,0,1-1.28.76A1.47,1.47,0,0,1,16,45.22a1.58,1.58,0,0,1,.05-.38l.14-.5-.52-.07a8.72,8.72,0,0,0-1-.06Zm0,11.28a3.24,3.24,0,1,1,3.24-3.23,3.23,3.23,0,0,1-3.24,3.23Z"/><path d="M26,16.26l-.46-.73-.66.55a2.39,2.39,0,0,1-.62.36,2.42,2.42,0,0,1-2.87-3.69l.51-.69-.75-.42a13.57,13.57,0,0,0-3.37-1.32l-.84-.2-.09.86a2.42,2.42,0,0,1-4.65.68,2.72,2.72,0,0,1-.17-.62L12,10.18l-.83.23a13.6,13.6,0,0,0-3.44,1.48l-.76.46.58.67a2.67,2.67,0,0,1,.39.65,2.43,2.43,0,0,1-3.77,2.82l-.69-.56L3,16.7a13.53,13.53,0,0,0-1.4,3.57l-.2.85.87.07A2.43,2.43,0,0,1,3,25.85a2.66,2.66,0,0,1-.63.17l-.86.11.23.84a14,14,0,0,0,.54,1.54,13.11,13.11,0,0,0,.93,1.83l.47.77.67-.6A2.53,2.53,0,0,1,5,30.07a2.43,2.43,0,0,1,2.79,3.81l-.58.69L8,35a13.87,13.87,0,0,0,3.5,1.38l.88.21,0-.9a2.43,2.43,0,0,1,4.67-.78,2.39,2.39,0,0,1,.17.7l.09.89.86-.24a13.71,13.71,0,0,0,3.43-1.49l.75-.46-.56-.67a2.52,2.52,0,0,1-.38-.63,2.43,2.43,0,0,1,1.31-3.17,2.45,2.45,0,0,1,2.42.32l.69.54.43-.76a13.41,13.41,0,0,0,1.37-3.51l.2-.83-.85-.1a2.43,2.43,0,0,1-.66-4.65,2.19,2.19,0,0,1,.57-.16l.84-.13-.23-.82A11.93,11.93,0,0,0,27,18.2,14.83,14.83,0,0,0,26,16.26ZM16.72,28.33a5.39,5.39,0,1,1,2.91-7A5.39,5.39,0,0,1,16.72,28.33Z"/><path d="M62.79,26.3l-.36-1.2-1.15.52a3.83,3.83,0,0,1-1,.29,3.54,3.54,0,0,1-2.67-6.29l1-.78L57.69,18a19.1,19.1,0,0,0-4.24-3.12l-1.11-.61-.45,1.18a3.54,3.54,0,0,1-6.81-.79,3.22,3.22,0,0,1,0-.93l.16-1.25H44a19.76,19.76,0,0,0-5.4.79l-1.25.36.56,1.17a3.53,3.53,0,0,1-2.72,5,3.56,3.56,0,0,1-3.33-1.43l-.76-1-.91.92a19.55,19.55,0,0,0-3.32,4.5l-.6,1.12,1.19.43a3.54,3.54,0,0,1-.73,6.84,3.7,3.7,0,0,1-.94,0L24.5,31l0,1.27a18.62,18.62,0,0,0,.18,2.37,19.19,19.19,0,0,0,.62,2.92l.37,1.28,1.18-.6a3.54,3.54,0,0,1,3.63,6.05L29.42,45l.95.93a20.09,20.09,0,0,0,4.4,3.26l1.16.62.41-1.24a3.54,3.54,0,0,1,6.87.64,3.36,3.36,0,0,1,0,1L43,51.6l1.31,0a21.34,21.34,0,0,0,2.4-.17,19.33,19.33,0,0,0,3-.65l1.22-.36-.54-1.16a3.54,3.54,0,0,1,6-3.63l.77,1,.89-.91a19.94,19.94,0,0,0,3.26-4.43l.59-1.1-1.16-.45a3.54,3.54,0,0,1,.8-6.81,3.62,3.62,0,0,1,.87,0l1.24.14,0-1.24a19.09,19.09,0,0,0-.17-2.4A19.86,19.86,0,0,0,62.79,26.3ZM45.13,39.81A7.86,7.86,0,1,1,51.87,31,7.88,7.88,0,0,1,45.13,39.81Z"/></svg>