<svg xmlns="http://www.w3.org/2000/svg" viewBox="0 0 64 64"><defs><style>.cls-1{fill:none;stroke:red;stroke-miterlimit:10;stroke-width:3px;}</style></defs><g id="Warstwa_1" data-name="Warstwa 1"><path d="M24.85,6.14l-.46-.73L23.73,6a2.92,2.92,0,0,1-.61.37,2.43,2.43,0,0,1-2.88-3.7l.51-.69L20,1.52A14,14,0,0,0,16.63.2L15.8,0l-.09.86a2.46,2.46,0,0,1-1.49,2,2.43,2.43,0,0,1-3.17-1.31,2.72,2.72,0,0,1-.17-.62L10.77.07,9.94.29A13.6,13.6,0,0,0,6.5,1.77l-.76.46.58.68a2.34,2.34,0,0,1,.39.64A2.42,2.42,0,0,1,3,6.37l-.69-.56-.44.77A13.56,13.56,0,0,0,.41,10.15L.21,11l.87.08a2.42,2.42,0,0,1,.72,4.65,2.26,2.26,0,0,1-.63.17L.31,16l.23.84a13.35,13.35,0,0,0,.54,1.54A12.58,12.58,0,0,0,2,20.22l.47.78.68-.61A2.3,2.3,0,0,1,3.84,20a2.42,2.42,0,0,1,2.79,3.8l-.58.69.79.45a13.3,13.3,0,0,0,3.49,1.38l.88.21,0-.9a2.43,2.43,0,0,1,4.67-.78,2.39,2.39,0,0,1,.17.7l.09.89.87-.24a12.37,12.37,0,0,0,1.55-.54,14.4,14.4,0,0,0,1.88-.95l.74-.46-.56-.67a2.65,2.65,0,0,1-.38-.62A2.43,2.43,0,0,1,24,20.07l.69.53.43-.76a13.79,13.79,0,0,0,1.38-3.51l.19-.83-.84-.09a2.43,2.43,0,0,1-.67-4.66,2.84,2.84,0,0,1,.57-.16l.85-.13-.23-.82a13.51,13.51,0,0,0-.54-1.55A14.34,14.34,0,0,0,24.85,6.14ZM15.53,18.21a5.39,5.39,0,1,1,2.91-7A5.38,5.38,0,0,1,15.53,18.21Z"/><path d="M19.06,53.2a1.2,1.2,0,0,1-.6,1L1.76,63.88a1.17,1.17,0,0,1-1.2,0,1.18,1.18,0,0,1-.6-1V43.56a1.18,1.18,0,0,1,.6-1,1.17,1.17,0,0,1,1.2,0l16.7,9.64A1.21,1.21,0,0,1,19.06,53.2ZM2.36,60.76l13.1-7.56L2.36,45.64Z"/><path d="M41.63,53.2a1.2,1.2,0,0,1-.6,1l-16.7,9.64a1.2,1.2,0,0,1-1.8-1V43.56a1.2,1.2,0,0,1,1.8-1L41,52.16A1.2,1.2,0,0,1,41.63,53.2Zm-16.7,7.56L38,53.2,24.93,45.64Z"/><path d="M64,53.2a1.2,1.2,0,0,1-.6,1L46.7,63.88a1.17,1.17,0,0,1-1.2,0,1.2,1.2,0,0,1-.6-1V43.56a1.2,1.2,0,0,1,.6-1,1.17,1.17,0,0,1,1.2,0l16.7,9.64A1.2,1.2,0,0,1,64,53.2ZM47.3,60.76,60.4,53.2,47.3,45.64Z"/><polygon class="cls-1" points="-168.11 -283.12 156.38 -283.12 156.38 56.95 1089.97 65.02 1089.97 170.46 831.81 170.56 831.81 347.02 -264.47 347.02 -265.93 -176.28 -458.65 -177.82 -458.65 -342.6 -168.11 -342.53 -168.11 -283.12"/></g></svg>