<svg id="Warstwa_1" data-name="Warstwa 1" xmlns="http://www.w3.org/2000/svg" xmlns:xlink="http://www.w3.org/1999/xlink" viewBox="0 0 64 64"><defs><style>.cls-1{fill:url(#Gradient_bez_nazwy_2);}.cls-2{fill:url(#Gradient_bez_nazwy_2-2);}.cls-3{fill:url(#Gradient_bez_nazwy_2-3);}.cls-4{fill:url(#Gradient_bez_nazwy_2-4);}.cls-5{fill:url(#Gradient_bez_nazwy_2-5);}.cls-6{fill:url(#Gradient_bez_nazwy_2-6);}.cls-7{fill:url(#Gradient_bez_nazwy_2-7);}</style><linearGradient id="Gradient_bez_nazwy_2" x1="12.9" y1="52.71" x2="53.65" y2="12.97" gradientUnits="userSpaceOnUse"><stop offset="0.01" stop-color="#d7e1ed"/><stop offset="1" stop-color="#eaf0f9"/></linearGradient><linearGradient id="Gradient_bez_nazwy_2-2" x1="28.88" y1="68.57" x2="69.62" y2="28.83" xlink:href="#Gradient_bez_nazwy_2"/><linearGradient id="Gradient_bez_nazwy_2-3" x1="20.89" y1="60.64" x2="61.63" y2="20.9" xlink:href="#Gradient_bez_nazwy_2"/><linearGradient id="Gradient_bez_nazwy_2-4" x1="4.7" y1="44.56" x2="45.44" y2="4.82" xlink:href="#Gradient_bez_nazwy_2"/><linearGradient id="Gradient_bez_nazwy_2-5" x1="20.67" y1="60.42" x2="61.41" y2="20.68" xlink:href="#Gradient_bez_nazwy_2"/><linearGradient id="Gradient_bez_nazwy_2-6" x1="12.68" y1="52.49" x2="53.43" y2="12.75" xlink:href="#Gradient_bez_nazwy_2"/><linearGradient id="Gradient_bez_nazwy_2-7" x1="11.01" y1="16.09" x2="55.86" y2="16.09" xlink:href="#Gradient_bez_nazwy_2"/></defs><rect class="cls-1" x="13.51" y="44.6" width="7.61" height="7.61" rx="1"/><path d="M20.12,42.1H14.51A3.5,3.5,0,0,0,11,45.6v5.61a3.5,3.5,0,0,0,3.5,3.5h5.61a3.5,3.5,0,0,0,3.5-3.5V45.6A3.5,3.5,0,0,0,20.12,42.1Zm1,9.11a1,1,0,0,1-1,1H14.51a1,1,0,0,1-1-1V45.6a1,1,0,0,1,1-1h5.61a1,1,0,0,1,1,1Z"/><rect class="cls-2" x="45.75" y="44.6" width="7.61" height="7.61" rx="1"/><path d="M52.36,42.1H46.75a3.5,3.5,0,0,0-3.5,3.5v5.61a3.5,3.5,0,0,0,3.5,3.5h5.61a3.5,3.5,0,0,0,3.5-3.5V45.6A3.5,3.5,0,0,0,52.36,42.1Zm1,9.11a1,1,0,0,1-1,1H46.75a1,1,0,0,1-1-1V45.6a1,1,0,0,1,1-1h5.61a1,1,0,0,1,1,1Z"/><rect class="cls-3" x="29.63" y="44.6" width="7.61" height="7.61" rx="1"/><path d="M36.24,42.1H30.63a3.5,3.5,0,0,0-3.5,3.5v5.61a3.5,3.5,0,0,0,3.5,3.5h5.61a3.5,3.5,0,0,0,3.5-3.5V45.6A3.5,3.5,0,0,0,36.24,42.1Zm1,9.11a1,1,0,0,1-1,1H30.63a1,1,0,0,1-1-1V45.6a1,1,0,0,1,1-1h5.61a1,1,0,0,1,1,1Z"/><rect class="cls-4" x="13.51" y="28.44" width="7.61" height="7.61" rx="1"/><path d="M20.12,25.94H14.51A3.51,3.51,0,0,0,11,29.45v5.6a3.51,3.51,0,0,0,3.5,3.51h5.61a3.5,3.5,0,0,0,3.5-3.51v-5.6A3.5,3.5,0,0,0,20.12,25.94Zm1,9.11a1,1,0,0,1-1,1H14.51a1,1,0,0,1-1-1v-5.6a1,1,0,0,1,1-1h5.61a1,1,0,0,1,1,1Z"/><rect class="cls-5" x="45.75" y="28.44" width="7.61" height="7.61" rx="1"/><path d="M52.36,25.94H46.75a3.51,3.51,0,0,0-3.5,3.51v5.6a3.51,3.51,0,0,0,3.5,3.51h5.61a3.51,3.51,0,0,0,3.5-3.51v-5.6A3.51,3.51,0,0,0,52.36,25.94Zm1,9.11a1,1,0,0,1-1,1H46.75a1,1,0,0,1-1-1v-5.6a1,1,0,0,1,1-1h5.61a1,1,0,0,1,1,1Z"/><rect class="cls-6" x="29.63" y="28.44" width="7.61" height="7.61" rx="1"/><path d="M36.24,25.94H30.63a3.51,3.51,0,0,0-3.5,3.51v5.6a3.51,3.51,0,0,0,3.5,3.51h5.61a3.51,3.51,0,0,0,3.5-3.51v-5.6A3.51,3.51,0,0,0,36.24,25.94Zm1,9.11a1,1,0,0,1-1,1H30.63a1,1,0,0,1-1-1v-5.6a1,1,0,0,1,1-1h5.61a1,1,0,0,1,1,1Z"/><rect class="cls-7" x="13.51" y="12.28" width="39.85" height="7.61" rx="1"/><path d="M52.36,9.78H14.51A3.51,3.51,0,0,0,11,13.29v5.6a3.51,3.51,0,0,0,3.5,3.51H52.36a3.51,3.51,0,0,0,3.5-3.51v-5.6A3.51,3.51,0,0,0,52.36,9.78Zm1,9.11a1,1,0,0,1-1,1H14.51a1,1,0,0,1-1-1v-5.6a1,1,0,0,1,1-1H52.36a1,1,0,0,1,1,1Z"/></svg>