<svg xmlns="http://www.w3.org/2000/svg" viewBox="0 0 64 64"><defs><style>.cls-1{fill:none;stroke:red;stroke-miterlimit:10;stroke-width:3px;}</style></defs><g id="Warstwa_1" data-name="Warstwa 1"><path d="M32,2.5a5.74,5.74,0,0,1,5.64,5.59l0,1.61,1.49.62A19.49,19.49,0,0,1,51.09,28.4V41.14l.44.64a24.16,24.16,0,0,1,4.28,13.09H37.94l-.42,2a5.63,5.63,0,0,1-11,0l-.42-2H8.19a24.33,24.33,0,0,1,4-12.71l.41-.62V28.4A19.41,19.41,0,0,1,24.79,10.22l1.5-.6L26.36,8A5.68,5.68,0,0,1,32,2.5M32,0a8.2,8.2,0,0,0-8.13,7.9A22,22,0,0,0,10.12,28.4V40.79A26.8,26.8,0,0,0,5.67,55.64v1.73H24a8.12,8.12,0,0,0,15.92,0H58.33V55.64a26.73,26.73,0,0,0-4.74-15.28v-12A22.07,22.07,0,0,0,40.14,8,8.21,8.21,0,0,0,32,0Z"/><polygon class="cls-1" points="83.89 -115.12 408.38 -115.12 408.38 224.95 1341.97 233.02 1341.97 338.46 1083.81 338.56 1083.81 515.02 -12.47 515.02 -13.93 -8.29 -206.65 -9.82 -206.65 -174.6 83.89 -174.53 83.89 -115.12"/></g></svg>