<svg xmlns="http://www.w3.org/2000/svg" viewBox="0 0 64 64"><defs><style>.cls-1{fill:none;stroke:red;stroke-miterlimit:10;stroke-width:3px;}</style></defs><g id="Warstwa_1" data-name="Warstwa 1"><path d="M12.88,25.5a2.5,2.5,0,0,1,2.5,2.5v8a2.5,2.5,0,0,1-2.5,2.5h-8A2.5,2.5,0,0,1,2.38,36V28a2.5,2.5,0,0,1,2.5-2.5h8m0-2.5h-8a5,5,0,0,0-5,5v8a5,5,0,0,0,5,5h8a5,5,0,0,0,5-5V28a5,5,0,0,0-5-5Z"/><path d="M58.88,25.5a2.5,2.5,0,0,1,2.5,2.5v8a2.5,2.5,0,0,1-2.5,2.5h-8a2.5,2.5,0,0,1-2.5-2.5V28a2.5,2.5,0,0,1,2.5-2.5h8m0-2.5h-8a5,5,0,0,0-5,5v8a5,5,0,0,0,5,5h8a5,5,0,0,0,5-5V28a5,5,0,0,0-5-5Z"/><path d="M35.88,25.5a2.5,2.5,0,0,1,2.5,2.5v8a2.5,2.5,0,0,1-2.5,2.5h-8a2.5,2.5,0,0,1-2.5-2.5V28a2.5,2.5,0,0,1,2.5-2.5h8m0-2.5h-8a5,5,0,0,0-5,5v8a5,5,0,0,0,5,5h8a5,5,0,0,0,5-5V28a5,5,0,0,0-5-5Z"/><path d="M36,2.5A2.5,2.5,0,0,1,38.5,5v8A2.5,2.5,0,0,1,36,15.5H28A2.5,2.5,0,0,1,25.5,13V5A2.5,2.5,0,0,1,28,2.5h8M36,0H28a5,5,0,0,0-5,5v8a5,5,0,0,0,5,5h8a5,5,0,0,0,5-5V5a5,5,0,0,0-5-5Z"/><path d="M35.88,48.5a2.5,2.5,0,0,1,2.5,2.5v8a2.5,2.5,0,0,1-2.5,2.5h-8a2.5,2.5,0,0,1-2.5-2.5V51a2.5,2.5,0,0,1,2.5-2.5h8m0-2.5h-8a5,5,0,0,0-5,5v8a5,5,0,0,0,5,5h8a5,5,0,0,0,5-5V51a5,5,0,0,0-5-5Z"/><polygon points="10.13 23.88 7.63 23.88 7.63 7.75 24.09 7.75 24.09 10.25 10.13 10.25 10.13 23.88"/><polygon points="56.13 23.88 53.63 23.88 53.63 10.25 39.74 10.25 39.74 7.75 56.13 7.75 56.13 23.88"/><rect x="30.75" y="16.87" width="2.5" height="7.02"/><rect x="30.75" y="39.6" width="2.5" height="7.3"/><polygon class="cls-1" points="-168.11 -115.12 156.38 -115.12 156.38 224.95 1089.97 233.02 1089.97 338.46 831.81 338.56 831.81 515.02 -264.47 515.02 -265.93 -8.29 -458.65 -9.82 -458.65 -174.6 -168.11 -174.53 -168.11 -115.12"/></g></svg>