<svg id="Warstwa_1" data-name="Warstwa 1" xmlns="http://www.w3.org/2000/svg" viewBox="0 0 64 64"><path d="M12.88,25.5a2.5,2.5,0,0,1,2.5,2.5v8a2.5,2.5,0,0,1-2.5,2.5h-8A2.5,2.5,0,0,1,2.38,36V28a2.5,2.5,0,0,1,2.5-2.5h8m0-2.5h-8a5,5,0,0,0-5,5v8a5,5,0,0,0,5,5h8a5,5,0,0,0,5-5V28a5,5,0,0,0-5-5Z"/><path d="M58.88,25.5a2.5,2.5,0,0,1,2.5,2.5v8a2.5,2.5,0,0,1-2.5,2.5h-8a2.5,2.5,0,0,1-2.5-2.5V28a2.5,2.5,0,0,1,2.5-2.5h8m0-2.5h-8a5,5,0,0,0-5,5v8a5,5,0,0,0,5,5h8a5,5,0,0,0,5-5V28a5,5,0,0,0-5-5Z"/><path d="M35.88,25.5a2.5,2.5,0,0,1,2.5,2.5v8a2.5,2.5,0,0,1-2.5,2.5h-8a2.5,2.5,0,0,1-2.5-2.5V28a2.5,2.5,0,0,1,2.5-2.5h8m0-2.5h-8a5,5,0,0,0-5,5v8a5,5,0,0,0,5,5h8a5,5,0,0,0,5-5V28a5,5,0,0,0-5-5Z"/><path d="M36,2.5A2.5,2.5,0,0,1,38.5,5v8A2.5,2.5,0,0,1,36,15.5H28A2.5,2.5,0,0,1,25.5,13V5A2.5,2.5,0,0,1,28,2.5h8M36,0H28a5,5,0,0,0-5,5v8a5,5,0,0,0,5,5h8a5,5,0,0,0,5-5V5a5,5,0,0,0-5-5Z"/><path d="M35.88,48.5a2.5,2.5,0,0,1,2.5,2.5v8a2.5,2.5,0,0,1-2.5,2.5h-8a2.5,2.5,0,0,1-2.5-2.5V51a2.5,2.5,0,0,1,2.5-2.5h8m0-2.5h-8a5,5,0,0,0-5,5v8a5,5,0,0,0,5,5h8a5,5,0,0,0,5-5V51a5,5,0,0,0-5-5Z"/><polygon points="10.13 23.88 7.63 23.88 7.63 7.75 24.09 7.75 24.09 10.25 10.13 10.25 10.13 23.88"/><polygon points="56.13 23.88 53.63 23.88 53.63 10.25 39.74 10.25 39.74 7.75 56.13 7.75 56.13 23.88"/><rect x="30.75" y="16.87" width="2.5" height="7.02"/><rect x="30.75" y="39.6" width="2.5" height="7.3"/></svg>