<svg id="Warstwa_1" data-name="Warstwa 1" xmlns="http://www.w3.org/2000/svg" viewBox="0 0 64 64"><path d="M33.25,8.53a4.83,4.83,0,0,0-2.2-.46H26.79V19h2.26V15.1h2a5.27,5.27,0,0,0,2.2-.42,3.2,3.2,0,0,0,1.41-1.2,3.37,3.37,0,0,0,.48-1.83,3.57,3.57,0,0,0-.48-1.85A3.42,3.42,0,0,0,33.25,8.53Zm-.56,4a1.27,1.27,0,0,1-.59.6,2.28,2.28,0,0,1-1.05.21h-2V9.83h2a1.94,1.94,0,0,1,1.05.26,1.47,1.47,0,0,1,.59.67,2.12,2.12,0,0,1,.19.91A1.84,1.84,0,0,1,32.69,12.53Z"/><path d="M43.66,9.5a4.63,4.63,0,0,0-1.58-1.06,5.25,5.25,0,0,0-2-.37H36.7V19h3.35a5.32,5.32,0,0,0,2-.37,4.53,4.53,0,0,0,1.58-1.06,4.86,4.86,0,0,0,1-1.64,6.06,6.06,0,0,0,.36-2.13v-.52a6,6,0,0,0-.36-2.12A4.81,4.81,0,0,0,43.66,9.5Zm-.89,4.29a5,5,0,0,1-.31,1.87,2.42,2.42,0,0,1-.92,1.17,2.61,2.61,0,0,1-1.49.41H39V9.83h1.12a3,3,0,0,1,1.16.22,2.25,2.25,0,0,1,.84.66,3.07,3.07,0,0,1,.53,1.07,6,6,0,0,1,.17,1.48Z"/><polygon points="53.8 9.83 53.8 8.07 48.93 8.07 48.31 8.07 46.68 8.07 46.68 18.99 48.93 18.99 48.93 14.49 53.28 14.49 53.28 12.73 48.93 12.73 48.93 9.83 53.8 9.83"/><path d="M61.72,2a8.69,8.69,0,0,0-1.15-.84A8,8,0,0,0,59.25.54C59,.45,58.78.38,58.53.31A8.71,8.71,0,0,0,56.22,0H25.5a8.56,8.56,0,0,0-3.71.83c-.22.1-.43.22-.64.34A8.69,8.69,0,0,0,20,2a6.47,6.47,0,0,0-2.27,4.85V9.79a13.7,13.7,0,0,0-3.94-.54c-7.38,0-9.33,5.52-9.33,8.44V49.9c0,.12.14,11.44,12.74,11.44C29.59,61.34,30,49.55,30,49.41V27.75H56.22a8.71,8.71,0,0,0,2.31-.31l.72-.23a8.93,8.93,0,0,0,1.32-.64,7.81,7.81,0,0,0,1.15-.83A6.48,6.48,0,0,0,64,20.89v-14A6.47,6.47,0,0,0,61.72,2ZM27.48,49.38c0,.38-.36,9.46-10.28,9.46S7,50.26,7,49.9V17.69c0-.24.07-5.94,6.83-5.94a10.33,10.33,0,0,1,3.94.69v8.45A6.48,6.48,0,0,0,20,25.74a7.81,7.81,0,0,0,1.15.83l.3.16V49.17c0,.51-.28,3-4.26,3.08-3.42,0-3.78-2.6-3.81-3.07V22h-2.5V49.24c.08,1.91,1.48,5.51,6.24,5.51h.09c5.33,0,6.74-3.66,6.74-5.57V27.61a9,9,0,0,0,1.48.13h2.05Zm34-28.49c0,2.4-2.36,4.36-5.27,4.36H25.5A6,6,0,0,1,24,25a5.29,5.29,0,0,1-2.5-1.39,3.89,3.89,0,0,1-1.22-2.75v-14c0-2.4,2.36-4.36,5.27-4.36H56.22c2.91,0,5.27,2,5.27,4.36Z"/></svg>