<svg id="Warstwa_1" data-name="Warstwa 1" xmlns="http://www.w3.org/2000/svg" viewBox="0 0 64 64"><defs><style>.cls-1{fill:none;}</style></defs><path d="M13.23,14.85a2.28,2.28,0,0,1-.18,1,1.3,1.3,0,0,1-.49.59,1.39,1.39,0,0,1-.74.2,1.75,1.75,0,0,1-.76-.15,1,1,0,0,1-.48-.5,2.28,2.28,0,0,1-.17-.95H8.15a3.53,3.53,0,0,0,.47,1.89A2.87,2.87,0,0,0,9.92,18a4.7,4.7,0,0,0,1.9.36,4,4,0,0,0,1.86-.42A3.12,3.12,0,0,0,15,16.73a3.53,3.53,0,0,0,.48-1.88V7.29H13.23Z"/><path d="M23.85,7.75a4.86,4.86,0,0,0-2.2-.46H17.39V18.21h2.25v-3.9h2a5.3,5.3,0,0,0,2.2-.42,3.1,3.1,0,0,0,1.4-1.19,3.29,3.29,0,0,0,.49-1.83A3.48,3.48,0,0,0,25.25,9,3.26,3.26,0,0,0,23.85,7.75Zm-.56,4a1.42,1.42,0,0,1-.59.6,2.28,2.28,0,0,1-1.05.21h-2V9.05h2a1.94,1.94,0,0,1,1.05.25,1.55,1.55,0,0,1,.59.68,2.28,2.28,0,0,1,.19.91A2,2,0,0,1,23.29,11.75Z"/><path d="M31.64,12.5v1.6H33.7V16a1.76,1.76,0,0,1-.34.25,2.13,2.13,0,0,1-.58.22,3.7,3.7,0,0,1-.89.09,2.63,2.63,0,0,1-1.12-.22,2.15,2.15,0,0,1-.8-.67,3.14,3.14,0,0,1-.49-1.11,6.16,6.16,0,0,1-.17-1.51v-.7a6.19,6.19,0,0,1,.16-1.51,3.26,3.26,0,0,1,.46-1.1,2,2,0,0,1,.74-.67,2.14,2.14,0,0,1,1-.23,2.28,2.28,0,0,1,1.11.24,1.65,1.65,0,0,1,.67.64,2.84,2.84,0,0,1,.31,1h2.18a4.57,4.57,0,0,0-.59-1.87A3.39,3.39,0,0,0,34,7.59a5.16,5.16,0,0,0-2.34-.46,4.87,4.87,0,0,0-1.87.35,4.13,4.13,0,0,0-1.45,1,4.69,4.69,0,0,0-.93,1.66A7,7,0,0,0,27,12.41v.68a6.72,6.72,0,0,0,.34,2.24,4.63,4.63,0,0,0,1,1.65,4.11,4.11,0,0,0,1.5,1,5.18,5.18,0,0,0,1.93.35,7.05,7.05,0,0,0,2-.26,5,5,0,0,0,1.37-.61,3.83,3.83,0,0,0,.79-.66V12.5Z"/><path class="cls-1" d="M46.28,20.91c0,3.79-3.47,6.86-7.76,6.86H33.47V61.16l28-6.85v-45L46.17,5.75a6,6,0,0,1,.11,1.13Z"/><path d="M62.88,7,44.81,2.87a6.45,6.45,0,0,1,1.36,2.88L61.48,9.28v45l-28,6.85V27.77H31V62.38a1.74,1.74,0,0,0,.5,1.24,1.27,1.27,0,0,0,.86.36h0a1,1,0,0,0,.28,0l30.29-7.4A1.55,1.55,0,0,0,64,55V8.6A1.54,1.54,0,0,0,62.88,7Z"/><path d="M7.79,25.27c-2.9,0-5.27-2-5.27-4.36v-14c0-2.4,2.37-4.36,5.27-4.36H31v-.9a1.72,1.72,0,0,1,.5-1.23A1.22,1.22,0,0,1,32.33,0H7.79C3.5,0,0,3.09,0,6.88v14c0,3.79,3.48,6.86,7.77,6.86H31v-2.5Z"/><path d="M44.81,2.87A8.11,8.11,0,0,0,38.52,0H32.33a1.09,1.09,0,0,1,.26,0Z"/><path d="M43.78,6.88v14c0,2.4-2.36,4.36-5.26,4.36H33.47v2.5h5.05c4.29,0,7.76-3.07,7.76-6.86v-14a6,6,0,0,0-.11-1.13l-2.86-.66A3.71,3.71,0,0,1,43.78,6.88Z"/><rect x="30.97" y="25.27" width="2.5" height="2.5"/><path d="M31,1.62v.9h7.55a5.41,5.41,0,0,1,4.79,2.57l2.86.66a6.45,6.45,0,0,0-1.36-2.88L32.59.05a1.09,1.09,0,0,0-.26,0,1.22,1.22,0,0,0-.86.37A1.72,1.72,0,0,0,31,1.62Z"/><path d="M15.4,37.83a1.2,1.2,0,0,1,1,.6l9.64,16.7a1.17,1.17,0,0,1,0,1.2,1.2,1.2,0,0,1-1,.6H5.76a1.2,1.2,0,0,1-1-.6,1.17,1.17,0,0,1,0-1.2l9.64-16.7A1.21,1.21,0,0,1,15.4,37.83ZM23,54.53,15.4,41.43,7.84,54.53Z"/></svg>