<svg id="Warstwa_1" data-name="Warstwa 1" xmlns="http://www.w3.org/2000/svg" viewBox="0 0 64 64"><path d="M10.09,16A17.06,17.06,0,0,0-.1,31.61c0,.26,0,.52,0,.78H34c0-.26,0-.52,0-.78a17.06,17.06,0,0,0-9.79-15.45A9.66,9.66,0,0,1,10.09,16Z"/><path d="M17.25,0a8.43,8.43,0,1,0,8.44,8.43A8.43,8.43,0,0,0,17.25,0Z"/><path d="M30.45,46.23H27.22a4.28,4.28,0,0,0-4.3,4.25V53.6H18V50.48a4.27,4.27,0,0,0-4.29-4.25H4.19A4.27,4.27,0,0,0-.1,50.48v9.37A4.27,4.27,0,0,0,4.19,64.1h9.47A4.27,4.27,0,0,0,18,59.85V56.1h5v3.75a4.28,4.28,0,0,0,4.3,4.25h9.46A4.27,4.27,0,0,0,41,59.85V56.1h5v3.75a4.27,4.27,0,0,0,4.29,4.25h9.47A4.27,4.27,0,0,0,64,59.85V50.48a4.27,4.27,0,0,0-4.29-4.25H50.24A4.27,4.27,0,0,0,46,50.48V53.6H41V50.48a4.27,4.27,0,0,0-4.29-4.25H30.45Zm-15,13.62a1.75,1.75,0,0,1-1.76,1.75H4.19a1.76,1.76,0,0,1-1.77-1.75V50.48a1.76,1.76,0,0,1,1.77-1.75h9.47a1.75,1.75,0,0,1,1.76,1.75Zm23,0a1.76,1.76,0,0,1-1.77,1.75H27.22a1.76,1.76,0,0,1-1.77-1.75V50.48a1.76,1.76,0,0,1,1.77-1.75h9.46a1.76,1.76,0,0,1,1.77,1.75Zm23,0a1.76,1.76,0,0,1-1.77,1.75H50.24a1.75,1.75,0,0,1-1.76-1.75V50.48a1.75,1.75,0,0,1,1.76-1.75h9.47a1.76,1.76,0,0,1,1.77,1.75Z"/></svg>