<svg xmlns="http://www.w3.org/2000/svg" viewBox="0 0 64 64"><defs><style>.cls-1{fill:none;stroke:red;stroke-miterlimit:10;stroke-width:3px;}</style></defs><g id="Warstwa_1" data-name="Warstwa 1"><polygon class="cls-1" points="83.89 -367.12 408.38 -367.12 408.38 -27.05 1341.97 -18.98 1341.97 86.46 1083.81 86.56 1083.81 263.02 -12.47 263.02 -13.93 -260.29 -206.65 -261.82 -206.65 -426.6 83.89 -426.53 83.89 -367.12"/><path d="M11.89,22.62a14.41,14.41,0,0,0,9.18,3.31A14.2,14.2,0,0,0,30,22.85,18.19,18.19,0,0,1,38.72,36.7h-36a18.1,18.1,0,0,1,9.17-14.08m.48-3.2A20.73,20.73,0,0,0,0,38.4c0,.31,0,.63,0,1H41.43c0-.32,0-.64,0-1A20.73,20.73,0,0,0,29.56,19.64a11.71,11.71,0,0,1-17.19-.22Z"/><path d="M21.07,2.65a7.6,7.6,0,0,1,7.59,7.59,7.6,7.6,0,1,1-15.19,0,7.6,7.6,0,0,1,7.6-7.59m0-2.65A10.24,10.24,0,1,0,31.31,10.24,10.25,10.25,0,0,0,21.07,0Z"/><path d="M30.45,46.23H27.22a4.28,4.28,0,0,0-4.3,4.25V53.6H18V50.48a4.27,4.27,0,0,0-4.29-4.25H4.19A4.27,4.27,0,0,0-.1,50.48v9.37A4.27,4.27,0,0,0,4.19,64.1h9.47A4.27,4.27,0,0,0,18,59.85V56.1h5v3.75a4.28,4.28,0,0,0,4.3,4.25h9.46A4.27,4.27,0,0,0,41,59.85V56.1h5v3.75a4.27,4.27,0,0,0,4.29,4.25h9.47A4.27,4.27,0,0,0,64,59.85V50.48a4.27,4.27,0,0,0-4.29-4.25H50.24A4.27,4.27,0,0,0,46,50.48V53.6H41V50.48a4.27,4.27,0,0,0-4.29-4.25H30.45Zm-15,13.62a1.75,1.75,0,0,1-1.76,1.75H4.19a1.76,1.76,0,0,1-1.77-1.75V50.48a1.76,1.76,0,0,1,1.77-1.75h9.47a1.75,1.75,0,0,1,1.76,1.75Zm23,0a1.76,1.76,0,0,1-1.77,1.75H27.22a1.76,1.76,0,0,1-1.77-1.75V50.48a1.76,1.76,0,0,1,1.77-1.75h9.46a1.76,1.76,0,0,1,1.77,1.75Zm23,0a1.76,1.76,0,0,1-1.77,1.75H50.24a1.75,1.75,0,0,1-1.76-1.75V50.48a1.75,1.75,0,0,1,1.76-1.75h9.47a1.76,1.76,0,0,1,1.77,1.75Z"/></g></svg>