<svg id="Warstwa_1" data-name="Warstwa 1" xmlns="http://www.w3.org/2000/svg" viewBox="0 0 64 64"><defs><style>.cls-1{fill:#fff;}</style></defs><rect class="cls-1" x="21.88" y="25.5" width="23.24" height="36.85"/><path d="M11.89,47.25a14.44,14.44,0,0,0,9.18,3.31A14.2,14.2,0,0,0,30,47.48a18.23,18.23,0,0,1,8.77,13.85h-36a18.07,18.07,0,0,1,9.16-14.08m.48-3.19A20.72,20.72,0,0,0,0,63c0,.32,0,.63,0,.95H41.43c0-.32,0-.63,0-.95A20.71,20.71,0,0,0,29.56,44.28a11.73,11.73,0,0,1-17.19-.22Z"/><path d="M21.07,27.28a7.61,7.61,0,0,1,7.6,7.59,7.6,7.6,0,1,1-15.2,0,7.61,7.61,0,0,1,7.6-7.59m0-2.65A10.24,10.24,0,1,0,31.31,34.87,10.24,10.24,0,0,0,21.07,24.63Z"/><path d="M55.11,2.52A6.4,6.4,0,0,1,61.5,8.91V23.13a6.4,6.4,0,0,1-6.39,6.39H40.89a6.4,6.4,0,0,1-6.39-6.39V8.91a6.4,6.4,0,0,1,6.39-6.39H55.11m0-2.5H40.89A8.89,8.89,0,0,0,32,8.91V23.13A8.89,8.89,0,0,0,40.89,32H55.11A8.89,8.89,0,0,0,64,23.13V8.91A8.89,8.89,0,0,0,55.11,0Z"/></svg>