<svg xmlns="http://www.w3.org/2000/svg" viewBox="0 0 64 64"><defs><style>.cls-1{fill:none;stroke:red;stroke-miterlimit:10;stroke-width:3px;}</style></defs><g id="Warstwa_1" data-name="Warstwa 1"><path d="M59,48.5A2.5,2.5,0,0,1,61.5,51v8A2.5,2.5,0,0,1,59,61.5H5A2.5,2.5,0,0,1,2.5,59V51A2.5,2.5,0,0,1,5,48.5H59M59,46H5a5,5,0,0,0-5,5v8a5,5,0,0,0,5,5H59a5,5,0,0,0,5-5V51a5,5,0,0,0-5-5Z"/><path d="M50.29,30.5a2.5,2.5,0,0,1,2.5,2.5v8a2.5,2.5,0,0,1-2.5,2.5h-8a2.5,2.5,0,0,1-2.5-2.5V33a2.5,2.5,0,0,1,2.5-2.5h8m0-2.5h-8a5,5,0,0,0-5,5v8a5,5,0,0,0,5,5h8a5,5,0,0,0,5-5V33a5,5,0,0,0-5-5Z"/><path d="M24.64,6l-.45-.73-.67.54a2.12,2.12,0,0,1-.61.37A2.43,2.43,0,0,1,20,2.51l.51-.69-.75-.42A13.51,13.51,0,0,0,16.43.08l-.84-.2L15.5.73a2.43,2.43,0,0,1-4.66.69A2.27,2.27,0,0,1,10.68.8l-.12-.86L9.73.17A13.6,13.6,0,0,0,6.29,1.65l-.76.46.58.67a2.53,2.53,0,0,1,.4.65A2.43,2.43,0,0,1,2.74,6.25l-.69-.56-.44.77A13.56,13.56,0,0,0,.2,10l-.2.84L.87,11a2.43,2.43,0,0,1,2,1.49,2.44,2.44,0,0,1-1.31,3.17,2.72,2.72,0,0,1-.62.17l-.87.11.24.84a12.18,12.18,0,0,0,.53,1.54,13.55,13.55,0,0,0,.93,1.82l.47.78L3,20.26a2.53,2.53,0,0,1,.68-.43,2.44,2.44,0,0,1,3.18,1.31,2.4,2.4,0,0,1-.39,2.49l-.58.7.79.45a13.58,13.58,0,0,0,3.5,1.38l.87.21.05-.9a2.4,2.4,0,0,1,1.5-2.09,2.43,2.43,0,0,1,3.17,1.3,2.47,2.47,0,0,1,.17.7l.09.9.87-.24a14.38,14.38,0,0,0,1.56-.54,13.76,13.76,0,0,0,1.87-1l.74-.45-.56-.67a2.85,2.85,0,0,1-.38-.63,2.43,2.43,0,0,1,3.73-2.85l.69.54.43-.76a13.5,13.5,0,0,0,1.38-3.52l.2-.83-.85-.09A2.42,2.42,0,0,1,25,10.63a2.31,2.31,0,0,1,.57-.16l.85-.13-.23-.82A13.67,13.67,0,0,0,25.64,8,13.18,13.18,0,0,0,24.64,6ZM15.32,18.09a5.39,5.39,0,1,1,2.91-7A5.39,5.39,0,0,1,15.32,18.09Z"/><polygon class="cls-1" points="-336.11 -367.12 -11.62 -367.12 -11.62 -27.05 921.98 -18.98 921.98 86.46 663.81 86.56 663.81 263.02 -432.47 263.02 -433.93 -260.29 -626.65 -261.82 -626.65 -426.6 -336.11 -426.53 -336.11 -367.12"/></g></svg>