<svg xmlns="http://www.w3.org/2000/svg" viewBox="0 0 64 64"><defs><style>.cls-1{fill:none;stroke:red;stroke-miterlimit:10;stroke-width:3px;}</style></defs><g id="Warstwa_1" data-name="Warstwa 1"><path d="M51.89-.11h-40a12,12,0,0,0-12,12v40a12,12,0,0,0,12,12h40a12,12,0,0,0,12-12v-40A12,12,0,0,0,51.89-.11Zm-40,3h40a9,9,0,0,1,9,9v.6h-58v-.6A9,9,0,0,1,11.89,2.89Zm40,58h-40a9,9,0,0,1-9-9V15.49h58v36.4A9,9,0,0,1,51.89,60.89Z"/><path d="M25.56,35.3l-8.32,3,8.32,3V44.5L13.66,40V36.72l11.9-4.53Z"/><path d="M34.51,26.05H38L29.74,49.59H26.26Z"/><path d="M50.34,36.72V40L38.44,44.5V41.37l8.32-3-8.32-3V32.19Z"/><polygon class="cls-1" points="-84.11 -199.12 240.38 -199.12 240.38 140.95 1173.97 149.02 1173.97 254.46 915.81 254.56 915.81 431.02 -180.47 431.02 -181.93 -92.28 -374.65 -93.82 -374.65 -258.6 -84.11 -258.53 -84.11 -199.12"/></g></svg>