<svg xmlns="http://www.w3.org/2000/svg" viewBox="0 0 64 64"><defs><style>.cls-1{fill:none;stroke:red;stroke-miterlimit:10;stroke-width:3px;}</style></defs><g id="Warstwa_1" data-name="Warstwa 1"><path d="M48,3.73A13.25,13.25,0,1,1,34.76,17,13.26,13.26,0,0,1,48,3.73m0-2.5A15.75,15.75,0,1,0,63.74,17,15.74,15.74,0,0,0,48,1.23Z"/><path d="M26.12,3.3a34.09,34.09,0,0,0-4.2,13.81,18.24,18.24,0,0,0,17.7,31.72,18.52,18.52,0,0,0,7.59-6.24,34.4,34.4,0,0,0,13.08-2.71A29.32,29.32,0,1,1,26.12,3.3M31.2.2A31.8,31.8,0,1,0,63.69,35.3a31.58,31.58,0,0,1-16.78,4.79l-1,0a15.82,15.82,0,0,1-7.25,6.47,15.74,15.74,0,0,1-14.27-28A31.65,31.65,0,0,1,31.2.2Z"/><polygon class="cls-1" points="-588.11 -367.12 -263.62 -367.12 -263.62 -27.05 669.98 -18.98 669.98 86.46 411.81 86.56 411.81 263.02 -684.47 263.02 -685.92 -260.29 -878.65 -261.82 -878.65 -426.6 -588.11 -426.53 -588.11 -367.12"/></g></svg>