<svg xmlns="http://www.w3.org/2000/svg" viewBox="0 0 64 64"><defs><style>.cls-1,.cls-2{fill:none;}.cls-1{stroke:red;stroke-miterlimit:10;stroke-width:3px;}.cls-2{stroke:#000;stroke-width:2.5px;}</style></defs><g id="Warstwa_1" data-name="Warstwa 1"><polygon class="cls-1" points="-924.11 -367.12 -599.62 -367.12 -599.62 -27.05 333.98 -18.98 333.98 86.46 75.81 86.56 75.81 263.02 -1020.47 263.02 -1021.92 -260.29 -1214.65 -261.82 -1214.65 -426.6 -924.11 -426.53 -924.11 -367.12"/><path d="M21.78,17.92a9.72,9.72,0,0,0,.14-9.39H20.14A2.13,2.13,0,0,1,18,6.39V4.53h0a9.75,9.75,0,0,0-9.71.11h0V6.46A2.14,2.14,0,0,1,6.17,8.6H4.55a9.72,9.72,0,0,0,.28,9.52H6.28a2.13,2.13,0,0,1,2.13,2.13v1.38a9.76,9.76,0,0,0,9.75-.05V20.05a2.14,2.14,0,0,1,2.13-2.13Z"/><path d="M5.36,19.65H1.19A1.19,1.19,0,0,0,0,20.84V25A1.19,1.19,0,0,0,1.19,26.2H5.36A1.19,1.19,0,0,0,6.55,25V20.84A1.19,1.19,0,0,0,5.36,19.65Z"/><path d="M4.26,6.55h1.1A1.19,1.19,0,0,0,6.55,5.36V1.19A1.19,1.19,0,0,0,5.36,0H1.19A1.19,1.19,0,0,0,0,1.19V5.36A1.19,1.19,0,0,0,1.19,6.55H4.26Z"/><path d="M21.14,6.55h4.17A1.19,1.19,0,0,0,26.5,5.36V1.19A1.19,1.19,0,0,0,25.31,0H21.14A1.19,1.19,0,0,0,20,1.19V5.36A1.19,1.19,0,0,0,21.14,6.55Z"/><path d="M25.31,19.65H21.14A1.19,1.19,0,0,0,20,20.84V25a1.19,1.19,0,0,0,1.19,1.19h4.17A1.19,1.19,0,0,0,26.5,25V20.84A1.19,1.19,0,0,0,25.31,19.65Z"/><path class="cls-2" d="M49.4,15.26c8,0,13.56,6.12,13.56,12.62,0,4.95-2.55,8.45-6.59,10.88s-5.14,4.13-5.14,7.44v2H45.71v-2.9c0-4.16,1.67-7.56,6-10.14,3.66-2.24,5.39-3.67,5.39-7,0-3.91-3.25-7.28-8-7.28s-7.56,3.31-7.91,7.82H35.84C36.18,21.89,40.54,15.26,49.4,15.26ZM44.89,59a3.6,3.6,0,1,1,3.6,3.59A3.54,3.54,0,0,1,44.89,59Z"/></g></svg>