<svg xmlns="http://www.w3.org/2000/svg" viewBox="0 0 64 64"><defs><style>.cls-1{fill:none;stroke:red;stroke-miterlimit:10;stroke-width:3px;}</style></defs><g id="Warstwa_1" data-name="Warstwa 1"><path d="M22.8,18.26A10.86,10.86,0,0,0,23,7.76H21a2.38,2.38,0,0,1-2.38-2.38V3.3h0a10.91,10.91,0,0,0-10.85.13h0v2A2.39,2.39,0,0,1,5.36,7.84H3.55a10.85,10.85,0,0,0,.32,10.64H5.49a2.39,2.39,0,0,1,2.38,2.38V22.4a10.88,10.88,0,0,0,10.89-.06v-1.7a2.38,2.38,0,0,1,2.38-2.38Z"/><path d="M5.36,19.67H1.19A1.19,1.19,0,0,0,0,20.86V25a1.19,1.19,0,0,0,1.19,1.19H5.36A1.19,1.19,0,0,0,6.55,25V20.86A1.19,1.19,0,0,0,5.36,19.67Z"/><path d="M4.26,6.57h1.1A1.19,1.19,0,0,0,6.55,5.38V1.21A1.19,1.19,0,0,0,5.36,0H1.19A1.19,1.19,0,0,0,0,1.21V5.38A1.19,1.19,0,0,0,1.19,6.57H4.26Z"/><path d="M21,6.57h4.17a1.2,1.2,0,0,0,1.19-1.19V1.21A1.19,1.19,0,0,0,25.14,0H21a1.19,1.19,0,0,0-1.19,1.19V5.38A1.19,1.19,0,0,0,21,6.57Z"/><path d="M25.31,19.45H21.14A1.19,1.19,0,0,0,20,20.64v4.17A1.19,1.19,0,0,0,21.14,26h4.17a1.2,1.2,0,0,0,1.19-1.19V20.64A1.19,1.19,0,0,0,25.31,19.45Z"/><polygon class="cls-1" points="-924.11 -367.12 -599.62 -367.12 -599.62 -27.05 333.98 -18.98 333.98 86.46 75.81 86.56 75.81 263.02 -1020.47 263.02 -1021.92 -260.29 -1214.65 -261.82 -1214.65 -426.6 -924.11 -426.53 -924.11 -367.12"/><path d="M52.48,28.4a12.48,12.48,0,0,1,5.16,1,6.15,6.15,0,0,1,2.85,2.45,8,8,0,0,1,1,4.19,6.26,6.26,0,0,1-.61,2.87A11.26,11.26,0,0,1,59,41.51c-.91,1-1.92,2-3,3a9.46,9.46,0,0,0-2.66,3.75,9.88,9.88,0,0,0-.48,1.8H51.21c0-.36.1-.7.17-1a6.63,6.63,0,0,1,.88-2.23,11,11,0,0,1,1.86-2.18,30.79,30.79,0,0,0,2.29-2.24,11.44,11.44,0,0,0,1.83-2.61A7.76,7.76,0,0,0,59,36.3a8.44,8.44,0,0,0-.68-3.52A5.73,5.73,0,0,0,56,30.14a6.84,6.84,0,0,0-3.49-.85,7,7,0,0,0-3.19.74,6.29,6.29,0,0,0-2.56,2.38,5.88,5.88,0,0,0-.64,1.39H43.57a6.26,6.26,0,0,1,.87-1.94,6.83,6.83,0,0,1,3.11-2.54,12.53,12.53,0,0,1,4.93-.92m0-2.5A14.86,14.86,0,0,0,46.57,27a9.38,9.38,0,0,0-4.2,3.43,10.7,10.7,0,0,0-1.64,5.85h7.49a5.12,5.12,0,0,1,.63-2.58,4,4,0,0,1,1.56-1.46,4.56,4.56,0,0,1,2.07-.47,4.41,4.41,0,0,1,2.23.51,3.26,3.26,0,0,1,1.35,1.51,6.09,6.09,0,0,1,.45,2.49A5.1,5.1,0,0,1,56,38.64a8.5,8.5,0,0,1-1.42,2c-.6.65-1.31,1.34-2.12,2.07a14,14,0,0,0-2.31,2.71,9.16,9.16,0,0,0-1.21,3.06,21.79,21.79,0,0,0-.38,4h6.59a10.28,10.28,0,0,1,.56-3.44,7,7,0,0,1,2-2.76c1.13-1.07,2.18-2.1,3.12-3.1A13.42,13.42,0,0,0,63.12,40,8.75,8.75,0,0,0,64,36a10.39,10.39,0,0,0-1.37-5.48,8.71,8.71,0,0,0-4-3.44,15,15,0,0,0-6.2-1.17Z"/><path d="M52.36,58.92a1.2,1.2,0,1,1-1.2,1.2,1.2,1.2,0,0,1,1.2-1.2m0-2.5a3.7,3.7,0,1,0,3.7,3.7,3.7,3.7,0,0,0-3.7-3.7Z"/></g></svg>