<svg xmlns="http://www.w3.org/2000/svg" viewBox="0 0 64 64"><defs><style>.cls-1{fill:none;stroke:red;stroke-miterlimit:10;stroke-width:3px;}</style></defs><g id="Warstwa_1" data-name="Warstwa 1"><path d="M12.87,2.32a2.5,2.5,0,0,1,2.5,2.5v8a2.5,2.5,0,0,1-2.5,2.5h-8a2.5,2.5,0,0,1-2.5-2.5v-8a2.5,2.5,0,0,1,2.5-2.5h8m0-2.5h-8a5,5,0,0,0-5,5v8a5,5,0,0,0,5,5h8a5,5,0,0,0,5-5v-8a5,5,0,0,0-5-5Z"/><path d="M35.87,2.32a2.5,2.5,0,0,1,2.5,2.5v8a2.5,2.5,0,0,1-2.5,2.5h-8a2.5,2.5,0,0,1-2.5-2.5v-8a2.5,2.5,0,0,1,2.5-2.5h8m0-2.5h-8a5,5,0,0,0-5,5v8a5,5,0,0,0,5,5h8a5,5,0,0,0,5-5v-8a5,5,0,0,0-5-5Z"/><path d="M12.87,48.43a2.5,2.5,0,0,1,2.5,2.5v8a2.5,2.5,0,0,1-2.5,2.5h-8a2.5,2.5,0,0,1-2.5-2.5v-8a2.5,2.5,0,0,1,2.5-2.5h8m0-2.5h-8a5,5,0,0,0-5,5v8a5,5,0,0,0,5,5h8a5,5,0,0,0,5-5v-8a5,5,0,0,0-5-5Z"/><path d="M35.87,48.43a2.5,2.5,0,0,1,2.5,2.5v8a2.5,2.5,0,0,1-2.5,2.5h-8a2.5,2.5,0,0,1-2.5-2.5v-8a2.5,2.5,0,0,1,2.5-2.5h8m0-2.5h-8a5,5,0,0,0-5,5v8a5,5,0,0,0,5,5h8a5,5,0,0,0,5-5v-8a5,5,0,0,0-5-5Z"/><path d="M12.87,25.38a2.5,2.5,0,0,1,2.5,2.5v8a2.51,2.51,0,0,1-2.5,2.5h-8a2.51,2.51,0,0,1-2.5-2.5v-8a2.5,2.5,0,0,1,2.5-2.5h8m0-2.5h-8a5,5,0,0,0-5,5v8a5,5,0,0,0,5,5h8a5,5,0,0,0,5-5v-8a5,5,0,0,0-5-5Z"/><path d="M58.87,25.38a2.5,2.5,0,0,1,2.5,2.5v8a2.51,2.51,0,0,1-2.5,2.5h-8a2.51,2.51,0,0,1-2.5-2.5v-8a2.5,2.5,0,0,1,2.5-2.5h8m0-2.5h-8a5,5,0,0,0-5,5v8a5,5,0,0,0,5,5h8a5,5,0,0,0,5-5v-8a5,5,0,0,0-5-5Z"/><path d="M35.87,25.38a2.5,2.5,0,0,1,2.5,2.5v8a2.51,2.51,0,0,1-2.5,2.5h-8a2.51,2.51,0,0,1-2.5-2.5v-8a2.5,2.5,0,0,1,2.5-2.5h8m0-2.5h-8a5,5,0,0,0-5,5v8a5,5,0,0,0,5,5h8a5,5,0,0,0,5-5v-8a5,5,0,0,0-5-5Z"/><polygon class="cls-1" points="-84.11 -367.12 240.38 -367.12 240.38 -27.05 1173.97 -18.98 1173.97 86.46 915.81 86.56 915.81 263.02 -180.47 263.02 -181.93 -260.29 -374.65 -261.82 -374.65 -426.6 -84.11 -426.53 -84.11 -367.12"/><line x1="15.37" y1="15.32" x2="25.4" y2="25.35"/><rect x="19.14" y="13.24" width="2.5" height="14.18" transform="translate(-8.41 20.37) rotate(-45)"/><rect x="39.48" y="30.63" width="7.74" height="2.5"/><rect x="16.49" y="30.63" width="7.66" height="2.5"/><line x1="25.37" y1="38.38" x2="15.61" y2="48.14"/><rect x="13.59" y="42.01" width="13.81" height="2.5" transform="translate(-24.59 27.16) rotate(-45)"/><rect x="30.75" y="16.62" width="2.5" height="7.32"/><rect x="30.62" y="39.18" width="2.5" height="7.36"/></g></svg>