<svg id="Warstwa_1" data-name="Warstwa 1" xmlns="http://www.w3.org/2000/svg" viewBox="0 0 64 64"><path d="M24.5,2A2.5,2.5,0,0,1,27,4.54v8A2.5,2.5,0,0,1,24.5,15h-8a2.5,2.5,0,0,1-2.5-2.5v-8A2.5,2.5,0,0,1,16.5,2h8m0-2.5h-8a5,5,0,0,0-5,5v8a5,5,0,0,0,5,5h8a5,5,0,0,0,5-5v-8a5,5,0,0,0-5-5Z"/><path d="M47.5,2A2.5,2.5,0,0,1,50,4.54v8A2.5,2.5,0,0,1,47.5,15h-8a2.5,2.5,0,0,1-2.5-2.5v-8A2.5,2.5,0,0,1,39.5,2h8m0-2.5h-8a5,5,0,0,0-5,5v8a5,5,0,0,0,5,5h8a5,5,0,0,0,5-5v-8a5,5,0,0,0-5-5Z"/><path d="M24.5,48.66a2.51,2.51,0,0,1,2.5,2.5v8a2.5,2.5,0,0,1-2.5,2.5h-8a2.5,2.5,0,0,1-2.5-2.5v-8a2.51,2.51,0,0,1,2.5-2.5h8m0-2.5h-8a5,5,0,0,0-5,5v8a5,5,0,0,0,5,5h8a5,5,0,0,0,5-5v-8a5,5,0,0,0-5-5Z"/><path d="M47.5,48.66a2.51,2.51,0,0,1,2.5,2.5v8a2.5,2.5,0,0,1-2.5,2.5h-8a2.5,2.5,0,0,1-2.5-2.5v-8a2.51,2.51,0,0,1,2.5-2.5h8m0-2.5h-8a5,5,0,0,0-5,5v8a5,5,0,0,0,5,5h8a5,5,0,0,0,5-5v-8a5,5,0,0,0-5-5Z"/><path d="M12.87,25.38a2.5,2.5,0,0,1,2.5,2.5v8a2.51,2.51,0,0,1-2.5,2.5h-8a2.51,2.51,0,0,1-2.5-2.5v-8a2.5,2.5,0,0,1,2.5-2.5h8m0-2.5h-8a5,5,0,0,0-5,5v8a5,5,0,0,0,5,5h8a5,5,0,0,0,5-5v-8a5,5,0,0,0-5-5Z"/><path d="M58.87,25.38a2.5,2.5,0,0,1,2.5,2.5v8a2.51,2.51,0,0,1-2.5,2.5h-8a2.51,2.51,0,0,1-2.5-2.5v-8a2.5,2.5,0,0,1,2.5-2.5h8m0-2.5h-8a5,5,0,0,0-5,5v8a5,5,0,0,0,5,5h8a5,5,0,0,0,5-5v-8a5,5,0,0,0-5-5Z"/><path d="M35.87,25.38a2.5,2.5,0,0,1,2.5,2.5v8a2.51,2.51,0,0,1-2.5,2.5h-8a2.51,2.51,0,0,1-2.5-2.5v-8a2.5,2.5,0,0,1,2.5-2.5h8m0-2.5h-8a5,5,0,0,0-5,5v8a5,5,0,0,0,5,5h8a5,5,0,0,0,5-5v-8a5,5,0,0,0-5-5Z"/><rect x="39.48" y="30.63" width="7.74" height="2.5"/><rect x="16.49" y="30.63" width="7.66" height="2.5"/></svg>