<svg xmlns="http://www.w3.org/2000/svg" viewBox="0 0 64 64"><defs><style>.cls-1{fill:none;stroke:red;stroke-width:3px;}.cls-1,.cls-2{stroke-miterlimit:10;}.cls-2{stroke:#000;stroke-width:2.5px;}</style></defs><g id="Warstwa_1" data-name="Warstwa 1"><path d="M24.5,2A2.5,2.5,0,0,1,27,4.54v8A2.5,2.5,0,0,1,24.5,15h-8a2.5,2.5,0,0,1-2.5-2.5v-8A2.5,2.5,0,0,1,16.5,2h8m0-2.5h-8a5,5,0,0,0-5,5v8a5,5,0,0,0,5,5h8a5,5,0,0,0,5-5v-8a5,5,0,0,0-5-5Z"/><path d="M47.5,2A2.5,2.5,0,0,1,50,4.54v8A2.5,2.5,0,0,1,47.5,15h-8a2.5,2.5,0,0,1-2.5-2.5v-8A2.5,2.5,0,0,1,39.5,2h8m0-2.5h-8a5,5,0,0,0-5,5v8a5,5,0,0,0,5,5h8a5,5,0,0,0,5-5v-8a5,5,0,0,0-5-5Z"/><path d="M24.5,48.66a2.51,2.51,0,0,1,2.5,2.5v8a2.5,2.5,0,0,1-2.5,2.5h-8a2.5,2.5,0,0,1-2.5-2.5v-8a2.51,2.51,0,0,1,2.5-2.5h8m0-2.5h-8a5,5,0,0,0-5,5v8a5,5,0,0,0,5,5h8a5,5,0,0,0,5-5v-8a5,5,0,0,0-5-5Z"/><path d="M47.5,48.66a2.51,2.51,0,0,1,2.5,2.5v8a2.5,2.5,0,0,1-2.5,2.5h-8a2.5,2.5,0,0,1-2.5-2.5v-8a2.51,2.51,0,0,1,2.5-2.5h8m0-2.5h-8a5,5,0,0,0-5,5v8a5,5,0,0,0,5,5h8a5,5,0,0,0,5-5v-8a5,5,0,0,0-5-5Z"/><path d="M12.87,25.38a2.5,2.5,0,0,1,2.5,2.5v8a2.51,2.51,0,0,1-2.5,2.5h-8a2.51,2.51,0,0,1-2.5-2.5v-8a2.5,2.5,0,0,1,2.5-2.5h8m0-2.5h-8a5,5,0,0,0-5,5v8a5,5,0,0,0,5,5h8a5,5,0,0,0,5-5v-8a5,5,0,0,0-5-5Z"/><path d="M58.87,25.38a2.5,2.5,0,0,1,2.5,2.5v8a2.51,2.51,0,0,1-2.5,2.5h-8a2.51,2.51,0,0,1-2.5-2.5v-8a2.5,2.5,0,0,1,2.5-2.5h8m0-2.5h-8a5,5,0,0,0-5,5v8a5,5,0,0,0,5,5h8a5,5,0,0,0,5-5v-8a5,5,0,0,0-5-5Z"/><path d="M35.87,25.38a2.5,2.5,0,0,1,2.5,2.5v8a2.51,2.51,0,0,1-2.5,2.5h-8a2.51,2.51,0,0,1-2.5-2.5v-8a2.5,2.5,0,0,1,2.5-2.5h8m0-2.5h-8a5,5,0,0,0-5,5v8a5,5,0,0,0,5,5h8a5,5,0,0,0,5-5v-8a5,5,0,0,0-5-5Z"/><polygon class="cls-1" points="-84.11 -367.12 240.38 -367.12 240.38 -27.05 1173.97 -18.98 1173.97 86.46 915.81 86.56 915.81 263.02 -180.47 263.02 -181.93 -260.29 -374.65 -261.82 -374.65 -426.6 -84.11 -426.53 -84.11 -367.12"/><line class="cls-2" x1="44.85" y1="16.37" x2="38.61" y2="25.24"/><rect x="39.48" y="30.63" width="7.74" height="2.5"/><rect x="16.49" y="30.63" width="7.66" height="2.5"/><line class="cls-2" x1="38.05" y1="38.38" x2="43.5" y2="48"/><line class="cls-2" x1="25.53" y1="24.36" x2="20.83" y2="16.37"/><line class="cls-2" x1="25.53" y1="39.35" x2="20.49" y2="48"/></g></svg>