<svg id="Warstwa_1" data-name="Warstwa 1" xmlns="http://www.w3.org/2000/svg" viewBox="0 0 64 64"><defs><style>.cls-1{fill:none;stroke:#fff;stroke-miterlimit:10;stroke-width:2.5px;}</style></defs><path d="M51.55,56.7a2.47,2.47,0,1,1-2.47,2.47,2.48,2.48,0,0,1,2.47-2.47m0-2.5a5,5,0,1,0,5,5,5,5,0,0,0-5-5Z"/><path d="M51.55,16.4a5.39,5.39,0,0,1,5.39,5.19L52.31,47.92l0,.22v.21a.72.72,0,1,1-1.44,0v-.21l0-.22L46.16,21.59a5.41,5.41,0,0,1,5.39-5.19m0-2.5a7.89,7.89,0,0,0-7.89,7.89l4.67,26.56a3.22,3.22,0,1,0,6.44,0l4.67-26.56a7.89,7.89,0,0,0-7.89-7.89Z"/><circle cx="13.98" cy="14.51" r="13.6"/><polygon points="8.67 29.83 8.67 42 14.33 35.91 19.3 42 19.3 29.83 8.67 29.83"/><polyline class="cls-1" points="5.73 14.41 11.32 20 22.24 9.08"/></svg>