<svg xmlns="http://www.w3.org/2000/svg" viewBox="0 0 64 64"><defs><style>.cls-1{fill:none;stroke:red;stroke-miterlimit:10;stroke-width:3px;}</style></defs><g id="Warstwa_1" data-name="Warstwa 1"><path d="M53.11,58.67a1.49,1.49,0,1,1,0,3,1.49,1.49,0,0,1,0-3m0-2.5a4,4,0,1,0,4,4,4,4,0,0,0-4-4Z"/><path d="M53.11,26.34A3.83,3.83,0,0,1,56.94,30L53.24,51l0,.22v.22a.09.09,0,0,1-.09.08.09.09,0,0,1-.08-.08v-.22L53,51,49.29,30a3.82,3.82,0,0,1,3.82-3.64m0-2.5a6.33,6.33,0,0,0-6.33,6.33l3.75,21.31a2.59,2.59,0,0,0,5.17,0l3.74-21.31a6.32,6.32,0,0,0-6.33-6.33Z"/><polygon class="cls-1" points="-672.11 -367.12 -347.62 -367.12 -347.62 -27.05 585.98 -18.98 585.98 86.46 327.81 86.56 327.81 263.02 -768.47 263.02 -769.92 -260.29 -962.65 -261.82 -962.65 -426.6 -672.11 -426.53 -672.11 -367.12"/><path d="M23,28.52a13.77,13.77,0,0,0,2.78-4.89,20.16,20.16,0,0,0,1-6.49v-1.5a20.15,20.15,0,0,0-1-6.51A14,14,0,0,0,23,4.24a12,12,0,0,0-4.28-3.09A13.7,13.7,0,0,0,13.25.08,13.76,13.76,0,0,0,7.78,1.15,11.9,11.9,0,0,0,3.51,4.24,14.41,14.41,0,0,0,.74,9.13a19.61,19.61,0,0,0-1,6.51v1.5a19.61,19.61,0,0,0,1,6.49,14.1,14.1,0,0,0,2.79,4.89,12.07,12.07,0,0,0,4.3,3.08,13.54,13.54,0,0,0,5.46,1.07,14.3,14.3,0,0,0,2.4-.2l6.76,5.43,4.11-3.57-5.29-4.2A11.59,11.59,0,0,0,23,28.52ZM10.34,26.81a5.9,5.9,0,0,1-2.18-2,10.19,10.19,0,0,1-1.34-3.25,19.55,19.55,0,0,1-.45-4.43V15.59a19.58,19.58,0,0,1,.45-4.44A10.06,10.06,0,0,1,8.15,7.92a5.8,5.8,0,0,1,2.16-2,6.36,6.36,0,0,1,2.94-.66A6.31,6.31,0,0,1,16.19,6a5.9,5.9,0,0,1,2.17,2,9.86,9.86,0,0,1,1.35,3.23,19,19,0,0,1,.47,4.44v1.55a19,19,0,0,1-.46,4.43,9.75,9.75,0,0,1-1.34,3.25,6,6,0,0,1-2.15,2,6.19,6.19,0,0,1-2.94.68A6.32,6.32,0,0,1,10.34,26.81Z"/></g></svg>