<svg xmlns="http://www.w3.org/2000/svg" viewBox="0 0 64 64"><defs><style>.cls-1{fill:#fff;}.cls-2{fill:none;stroke:red;stroke-miterlimit:10;stroke-width:3px;}</style></defs><g id="czarne_lot" data-name="czarne lot"><path class="cls-1" d="M2.38,49.27a1.16,1.16,0,0,1-.62-.17A1.24,1.24,0,0,1,1.13,48V14.9a1.26,1.26,0,0,1,1.25-1.25,1.27,1.27,0,0,1,.63.17L31.69,30.38a1.26,1.26,0,0,1,.62,1.08,1.28,1.28,0,0,1-.62,1.09L3,49.1A1.17,1.17,0,0,1,2.38,49.27Z"/><path d="M2.38,14.9,31.06,31.46,2.38,48V14.9m0-2.5a2.53,2.53,0,0,0-2.5,2.5V48a2.49,2.49,0,0,0,2.5,2.5,2.49,2.49,0,0,0,1.25-.33L32.31,33.63a2.5,2.5,0,0,0,0-4.33L3.64,12.74a2.56,2.56,0,0,0-1.26-.34Z"/></g><g id="nazwy"><polygon class="cls-2" points="-1092.11 -558.19 -767.62 -558.19 -767.62 -218.12 165.97 -210.04 165.97 -104.61 166.82 71.95 -92.19 71.95 -1188.47 71.95 -1189.92 -451.35 -1382.65 -452.89 -1382.65 -617.66 -1092.11 -617.59 -1092.11 -558.19"/></g></svg>