<svg xmlns="http://www.w3.org/2000/svg" viewBox="0 0 64 64"><defs><style>.cls-1{fill:#fff;}.cls-2{fill:none;stroke:red;stroke-miterlimit:10;stroke-width:3px;}</style></defs><g id="czarne_lot" data-name="czarne lot"><path class="cls-1" d="M17.66,49.81a1.26,1.26,0,0,1-.62-.17,1.24,1.24,0,0,1-.63-1.08V15.44a1.26,1.26,0,0,1,1.25-1.25,1.29,1.29,0,0,1,.63.17L47,30.92a1.24,1.24,0,0,1,0,2.16L18.29,49.64A1.29,1.29,0,0,1,17.66,49.81Z"/><path d="M17.66,15.44,46.34,32,17.66,48.56V15.44m0-2.5a2.45,2.45,0,0,0-1.25.34,2.5,2.5,0,0,0-1.25,2.16V48.56a2.5,2.5,0,0,0,1.25,2.16,2.45,2.45,0,0,0,1.25.34,2.42,2.42,0,0,0,1.25-.34L47.59,34.17A2.52,2.52,0,0,0,48.84,32a2.5,2.5,0,0,0-1.25-2.16L18.91,13.28a2.42,2.42,0,0,0-1.25-.34Z"/></g><g id="nazwy"><polygon class="cls-2" points="-1092.11 -558.19 -767.62 -558.19 -767.62 -218.12 165.97 -210.04 1793.01 -217.52 1793.01 74.01 -92.19 71.95 -1188.47 71.95 -1189.92 -451.35 -1382.65 -452.89 -1382.65 -617.66 -1092.11 -617.59 -1092.11 -558.19"/></g></svg>