<svg xmlns="http://www.w3.org/2000/svg" viewBox="0 0 64 64"><defs><style>.cls-1{fill:none;stroke:red;stroke-miterlimit:10;stroke-width:3px;}</style></defs><g id="Warstwa_1" data-name="Warstwa 1"><path d="M38.32,18.21a6.39,6.39,0,0,1,6.39,6.39V38.82a6.4,6.4,0,0,1-6.39,6.39H24.1a6.4,6.4,0,0,1-6.39-6.39V24.6a6.4,6.4,0,0,1,6.39-6.39H38.32m0-2.5H24.1a8.89,8.89,0,0,0-8.89,8.89V38.82a8.89,8.89,0,0,0,8.89,8.89H38.32a8.89,8.89,0,0,0,8.89-8.89V24.6a8.89,8.89,0,0,0-8.89-8.89Z"/><path d="M35.21,25.21a2.5,2.5,0,0,1,2.5,2.5v8a2.5,2.5,0,0,1-2.5,2.5h-8a2.5,2.5,0,0,1-2.5-2.5v-8a2.5,2.5,0,0,1,2.5-2.5h8m0-2.5h-8a5,5,0,0,0-5,5v8a5,5,0,0,0,5,5h8a5,5,0,0,0,5-5v-8a5,5,0,0,0-5-5Z"/><path d="M41.88,10.21A10.84,10.84,0,0,1,52.71,21V42.37A10.85,10.85,0,0,1,41.88,53.21H20.55A10.85,10.85,0,0,1,9.71,42.37V21A10.85,10.85,0,0,1,20.55,10.21H41.88m0-2.5H20.55A13.33,13.33,0,0,0,7.21,21V42.37A13.34,13.34,0,0,0,20.55,55.71H41.88A13.33,13.33,0,0,0,55.21,42.37V21A13.33,13.33,0,0,0,41.88,7.71Z"/><polygon class="cls-1" points="-336.11 -558.19 -11.62 -558.19 -11.62 -218.12 921.98 -210.04 921.98 -104.61 663.81 -104.51 663.81 71.95 -432.47 71.95 -433.93 -451.35 -626.65 -452.89 -626.65 -617.66 -336.11 -617.59 -336.11 -558.19"/></g></svg>