<svg id="Warstwa_1" data-name="Warstwa 1" xmlns="http://www.w3.org/2000/svg" viewBox="0 0 64 64"><path d="M38.82,15.75a8.89,8.89,0,0,1,8.89,8.89V38.86a8.89,8.89,0,0,1-8.89,8.89H24.6a8.89,8.89,0,0,1-8.89-8.89V24.64a8.89,8.89,0,0,1,8.89-8.89H38.82m0-2.5H24.6A11.4,11.4,0,0,0,13.21,24.64V38.86A11.4,11.4,0,0,0,24.6,50.25H38.82A11.4,11.4,0,0,0,50.21,38.86V24.64A11.4,11.4,0,0,0,38.82,13.25Z"/><path d="M35.71,22.75a5,5,0,0,1,5,5v8a5,5,0,0,1-5,5h-8a5,5,0,0,1-5-5v-8a5,5,0,0,1,5-5h8m0-2.5h-8a7.5,7.5,0,0,0-7.5,7.5v8a7.51,7.51,0,0,0,7.5,7.5h8a7.52,7.52,0,0,0,7.5-7.5v-8a7.51,7.51,0,0,0-7.5-7.5Z"/><path d="M42.37,7.75A13.33,13.33,0,0,1,55.71,21.08V42.41A13.34,13.34,0,0,1,42.37,55.75H21A13.33,13.33,0,0,1,7.71,42.41V21.08A13.33,13.33,0,0,1,21,7.75H42.37m0-2.5H21A15.85,15.85,0,0,0,5.21,21.08V42.41A15.85,15.85,0,0,0,21,58.25H42.37A15.86,15.86,0,0,0,58.21,42.41V21.08A15.85,15.85,0,0,0,42.37,5.25Z"/></svg>