<svg xmlns="http://www.w3.org/2000/svg" xmlns:xlink="http://www.w3.org/1999/xlink" viewBox="0 0 64 64"><defs><style>.cls-1,.cls-2{fill:none;}.cls-1{stroke:red;stroke-miterlimit:10;stroke-width:3px;}.cls-3{fill:url(#Gradient_bez_nazwy_2);}.cls-4{fill:url(#Gradient_bez_nazwy_2-2);}</style><linearGradient id="Gradient_bez_nazwy_2" x1="6530.27" y1="-1637.21" x2="6558.2" y2="-1637.21" gradientTransform="translate(6560.66 -1605.13) rotate(180)" gradientUnits="userSpaceOnUse"><stop offset="0.01" stop-color="#d7e1ed"/><stop offset="1" stop-color="#eaf0f9"/></linearGradient><linearGradient id="Gradient_bez_nazwy_2-2" x1="6530.27" y1="-1663.81" x2="6558.2" y2="-1663.81" xlink:href="#Gradient_bez_nazwy_2"/></defs><g id="nazwy"><polygon class="cls-1" points="-1512.11 -558.19 -1187.62 -558.19 -1187.62 -218.12 -254.03 -210.04 1373.01 -217.52 1373.01 74.01 -512.19 71.95 -1608.47 71.95 -1609.92 -451.35 -1802.65 -452.89 -1802.65 -617.66 -1512.11 -617.59 -1512.11 -558.19"/></g><g id="Warstwa_1" data-name="Warstwa 1"><path d="M30.4,16.3V7.44H33V16.3a4.22,4.22,0,0,1-.56,2.21,3.81,3.81,0,0,1-1.54,1.41,4.7,4.7,0,0,1-2.18.49A5.58,5.58,0,0,1,26.52,20,3.38,3.38,0,0,1,25,18.69a4.06,4.06,0,0,1-.55-2.22H27.1a2.69,2.69,0,0,0,.19,1.12,1.26,1.26,0,0,0,.57.59,2.17,2.17,0,0,0,.89.17,1.66,1.66,0,0,0,.87-.23,1.54,1.54,0,0,0,.57-.7A2.67,2.67,0,0,0,30.4,16.3Z"/><path d="M40.26,15.67H37V13.62h3.26a2.55,2.55,0,0,0,1.23-.26,1.51,1.51,0,0,0,.7-.69,2.37,2.37,0,0,0,.22-1,2.69,2.69,0,0,0-.22-1.07,1.78,1.78,0,0,0-.7-.79,2.24,2.24,0,0,0-1.23-.3H37.92V20.23H35.28V7.44h5A5.71,5.71,0,0,1,42.84,8a3.86,3.86,0,0,1,1.65,1.49,4.11,4.11,0,0,1,.57,2.17,3.93,3.93,0,0,1-.57,2.14,3.68,3.68,0,0,1-1.65,1.4A6.16,6.16,0,0,1,40.26,15.67Z"/><path d="M57,13.55v5.07a4,4,0,0,1-.92.77,6.06,6.06,0,0,1-1.61.72,8.26,8.26,0,0,1-2.38.3A6.06,6.06,0,0,1,49.85,20a4.72,4.72,0,0,1-1.75-1.2A5.31,5.31,0,0,1,47,16.86a7.84,7.84,0,0,1-.4-2.62v-.8A8.22,8.22,0,0,1,47,10.81a5.24,5.24,0,0,1,1.09-1.94,4.54,4.54,0,0,1,1.7-1.2,5.47,5.47,0,0,1,2.18-.42,6.12,6.12,0,0,1,2.75.54,3.83,3.83,0,0,1,1.63,1.5,5.14,5.14,0,0,1,.7,2.18H54.46a3.42,3.42,0,0,0-.37-1.13,1.85,1.85,0,0,0-.78-.76A2.77,2.77,0,0,0,52,9.31a2.37,2.37,0,0,0-2,1,4,4,0,0,0-.53,1.29,7.74,7.74,0,0,0-.19,1.77v.82a7.19,7.19,0,0,0,.2,1.77A3.82,3.82,0,0,0,50,17.3a2.49,2.49,0,0,0,1,.79,3.12,3.12,0,0,0,1.31.26,4.41,4.41,0,0,0,1-.1A2.76,2.76,0,0,0,54,18a2,2,0,0,0,.4-.3V15.43H52V13.55Z"/><polygon class="cls-2" points="30.67 54.36 20.14 57.05 30.68 54.47 30.68 27.88 30.67 27.88 30.67 54.36"/><polygon class="cls-2" points="48.77 53.23 56.33 40.13 41.2 40.13 48.77 53.23"/><path d="M58.41,37.73H39.12a1.2,1.2,0,0,0-1,1.8l9.64,16.7a1.2,1.2,0,0,0,1,.6,1.21,1.21,0,0,0,1-.6l9.64-16.7a1.22,1.22,0,0,0,0-1.2A1.18,1.18,0,0,0,58.41,37.73Zm-9.64,15.5L41.2,40.13H56.33Z"/><polygon class="cls-2" points="23.75 55.96 30.42 54.33 30.42 27.88 30.39 27.88 30.39 54.27 23.75 55.96"/><polygon class="cls-2" points="2.43 2.8 2.42 2.8 2.42 61.18 2.43 61.18 2.43 61.35 2.46 61.35 2.46 2.81 2.43 2.8"/><path class="cls-3" d="M17.82,21V7c0-.21,0-.42,0-.63l-.17,0L2.46,2.81V61.35l17.42-4.44L23.75,56l6.63-1.69V27.88H25.59C21.3,27.88,17.82,24.81,17.82,21Z"/><polygon points="2.46 61.35 2.46 61.4 23.75 55.96 19.89 56.91 2.46 61.35"/><polygon class="cls-4" points="2.46 61.35 2.46 61.4 23.75 55.96 19.89 56.91 2.46 61.35"/><path d="M61.66,2a8.3,8.3,0,0,0-5.51-2H25.43a7.92,7.92,0,0,0-7,3.92L1.54,0,1.28,0A1.3,1.3,0,0,0,.41.36,1.75,1.75,0,0,0-.08,1.6V62.4a1.7,1.7,0,0,0,.5,1.24,1.25,1.25,0,0,0,.85.36h0a1.27,1.27,0,0,0,.28,0l30.29-7.41A1.57,1.57,0,0,0,32.92,55V27.88H56.31c4.29,0,7.77-3.07,7.77-6.86V7A6.48,6.48,0,0,0,61.66,2ZM30.42,54.33,23.75,56,2.46,61.4v0h0v-.18h0V2.8h0L17.69,6.32l.17,0c0,.21,0,.42,0,.63V21c0,3.79,3.48,6.86,7.77,6.86h4.83Zm31-33.44c0,2.4-2.36,4.36-5.27,4.36l-25.74.13H25.59c-2.91,0-5.27-2-5.27-4.36V7s0-.06,0-.09a3.84,3.84,0,0,1,.88-2.33,5.6,5.6,0,0,1,4.38-1.94H56.31a5.89,5.89,0,0,1,3.63,1.21,4,4,0,0,1,1.48,3Z"/></g></svg>