<svg xmlns="http://www.w3.org/2000/svg" viewBox="0 0 64 64"><defs><style>.cls-1{fill:none;stroke:red;stroke-miterlimit:10;stroke-width:3px;}.cls-2{fill:#fff;}</style></defs><g id="nazwy"><polygon class="cls-1" points="-1596.19 -558.19 -1271.7 -558.19 -1271.7 -218.12 -338.11 -210.04 1288.93 -217.52 1288.93 74.01 -596.27 71.95 -1692.55 71.95 -1694.01 -451.35 -1886.73 -452.89 -1886.73 -617.66 -1596.19 -617.59 -1596.19 -558.19"/><path class="cls-2" d="M6.56,62.6a5.37,5.37,0,0,1-5.41-5.31V6.57A5.38,5.38,0,0,1,6.56,1.25H47a5.4,5.4,0,0,1,3.83,1.56L61.17,13a5.23,5.23,0,0,1,1.58,3.75V57.29a5.37,5.37,0,0,1-5.41,5.31Z"/><path d="M47,2.5a4.28,4.28,0,0,1,3,1.2L60.29,13.89a4,4,0,0,1,1.21,2.86V57.29a4.12,4.12,0,0,1-4.16,4.06H6.56A4.12,4.12,0,0,1,2.4,57.29V6.57A4.12,4.12,0,0,1,6.56,2.5H47M47,0H6.56A6.61,6.61,0,0,0-.1,6.57V57.29a6.61,6.61,0,0,0,6.66,6.56H57.34A6.61,6.61,0,0,0,64,57.29V16.75a6.51,6.51,0,0,0-2-4.64L51.72,1.92A6.71,6.71,0,0,0,47,0Z"/><path d="M46.38,41.51a4.14,4.14,0,0,1,4.16,4l.33,15.86H13.37V45.57a4.11,4.11,0,0,1,4.16-4.06H46.38m0-2.5H17.53a6.61,6.61,0,0,0-6.66,6.56V63.85H53.43L53,45.44A6.61,6.61,0,0,0,46.38,39Z"/><path d="M41.92,2.5V18.12a1,1,0,0,1-1.06,1H23a1.52,1.52,0,0,1-1.54-1.48V2.5H41.92M44.42,0H19V17.65a4,4,0,0,0,4,4H40.86a3.53,3.53,0,0,0,3.56-3.51V0Z"/></g></svg>