<svg xmlns="http://www.w3.org/2000/svg" viewBox="0 0 64 64"><defs><style>.cls-1{fill:none;stroke:red;stroke-miterlimit:10;stroke-width:3px;}</style></defs><g id="czarne_lot" data-name="czarne lot"><path d="M13,2.44a2.51,2.51,0,0,1,2.5,2.5v8a2.5,2.5,0,0,1-2.5,2.5H5a2.5,2.5,0,0,1-2.5-2.5v-8A2.51,2.51,0,0,1,5,2.44h8m0-2.5H5a5,5,0,0,0-5,5v8a5,5,0,0,0,5,5h8a5,5,0,0,0,5-5v-8a5,5,0,0,0-5-5Z"/><path d="M59,2.44a2.51,2.51,0,0,1,2.5,2.5v8a2.5,2.5,0,0,1-2.5,2.5H51a2.5,2.5,0,0,1-2.5-2.5v-8A2.51,2.51,0,0,1,51,2.44h8m0-2.5H51a5,5,0,0,0-5,5v8a5,5,0,0,0,5,5h8a5,5,0,0,0,5-5v-8a5,5,0,0,0-5-5Z"/><path d="M36,2.44a2.51,2.51,0,0,1,2.5,2.5v8a2.5,2.5,0,0,1-2.5,2.5H28a2.5,2.5,0,0,1-2.5-2.5v-8A2.51,2.51,0,0,1,28,2.44h8m0-2.5H28a5,5,0,0,0-5,5v8a5,5,0,0,0,5,5h8a5,5,0,0,0,5-5v-8a5,5,0,0,0-5-5Z"/><path d="M13,48.56a2.5,2.5,0,0,1,2.5,2.5v8a2.51,2.51,0,0,1-2.5,2.5H5a2.51,2.51,0,0,1-2.5-2.5v-8A2.5,2.5,0,0,1,5,48.56h8m0-2.5H5a5,5,0,0,0-5,5v8a5,5,0,0,0,5,5h8a5,5,0,0,0,5-5v-8a5,5,0,0,0-5-5Z"/><path d="M59,48.56a2.5,2.5,0,0,1,2.5,2.5v8a2.51,2.51,0,0,1-2.5,2.5H51a2.51,2.51,0,0,1-2.5-2.5v-8a2.5,2.5,0,0,1,2.5-2.5h8m0-2.5H51a5,5,0,0,0-5,5v8a5,5,0,0,0,5,5h8a5,5,0,0,0,5-5v-8a5,5,0,0,0-5-5Z"/><path d="M36,48.56a2.5,2.5,0,0,1,2.5,2.5v8a2.51,2.51,0,0,1-2.5,2.5H28a2.51,2.51,0,0,1-2.5-2.5v-8a2.5,2.5,0,0,1,2.5-2.5h8m0-2.5H28a5,5,0,0,0-5,5v8a5,5,0,0,0,5,5h8a5,5,0,0,0,5-5v-8a5,5,0,0,0-5-5Z"/><path d="M13,25.5A2.5,2.5,0,0,1,15.5,28v8A2.5,2.5,0,0,1,13,38.5H5A2.5,2.5,0,0,1,2.5,36V28A2.5,2.5,0,0,1,5,25.5h8M13,23H5a5,5,0,0,0-5,5v8a5,5,0,0,0,5,5h8a5,5,0,0,0,5-5V28a5,5,0,0,0-5-5Z"/><path d="M59,25.5A2.5,2.5,0,0,1,61.5,28v8A2.5,2.5,0,0,1,59,38.5H51A2.5,2.5,0,0,1,48.5,36V28A2.5,2.5,0,0,1,51,25.5h8M59,23H51a5,5,0,0,0-5,5v8a5,5,0,0,0,5,5h8a5,5,0,0,0,5-5V28a5,5,0,0,0-5-5Z"/><path d="M36,25.5A2.5,2.5,0,0,1,38.5,28v8A2.5,2.5,0,0,1,36,38.5H28A2.5,2.5,0,0,1,25.5,36V28A2.5,2.5,0,0,1,28,25.5h8M36,23H28a5,5,0,0,0-5,5v8a5,5,0,0,0,5,5h8a5,5,0,0,0,5-5V28a5,5,0,0,0-5-5Z"/></g><g id="nazwy"><polygon class="cls-1" points="-1260.11 -558.19 -935.62 -558.19 -935.62 -218.12 -2.02 -210.04 1625.01 -217.52 1625.01 74.01 -260.19 71.95 -1356.47 71.95 -1357.92 -451.35 -1550.65 -452.89 -1550.65 -617.66 -1260.11 -617.59 -1260.11 -558.19"/></g></svg>