<svg xmlns="http://www.w3.org/2000/svg" viewBox="0 0 64 64"><defs><style>.cls-1{fill:none;stroke:red;stroke-miterlimit:10;stroke-width:3px;}</style></defs><g id="Warstwa_1" data-name="Warstwa 1"><path d="M43.31,4.75A28.14,28.14,0,0,1,46,6.05a7.36,7.36,0,0,0-.62,1.22,8.29,8.29,0,0,0,12.21,10.1,29.71,29.71,0,0,1,2.57,5.9A8.29,8.29,0,0,0,59,39a8.87,8.87,0,0,0,1.57.48,29.85,29.85,0,0,1-1.29,3.84A27.72,27.72,0,0,1,58,45.89a8.74,8.74,0,0,0-1.1-.56A8.29,8.29,0,0,0,46.8,57.52a29.87,29.87,0,0,1-6.22,2.7,8.3,8.3,0,0,0-16.23.27,29.59,29.59,0,0,1-3.65-1.24c-.87-.36-1.73-.77-2.56-1.21A8.29,8.29,0,0,0,6.42,46.69a29.81,29.81,0,0,1-2.65-6.14,8.24,8.24,0,0,0,6.12-5A8.31,8.31,0,0,0,5.41,24.74a8.65,8.65,0,0,0-1.87-.52A29.85,29.85,0,0,1,4.75,20.7c.35-.85.76-1.71,1.2-2.54a8,8,0,0,0,1.23.64,8.29,8.29,0,0,0,10-12.32,29.85,29.85,0,0,1,6.33-2.74,8.28,8.28,0,0,0,15.77,1.5,7.64,7.64,0,0,0,.5-1.69,31.41,31.41,0,0,1,3.5,1.2M27.48,42.86A11.76,11.76,0,1,0,21.13,27.5a11.78,11.78,0,0,0,6.35,15.36M44.26,2.44A31.05,31.05,0,0,0,39.65.93l-2-.51-.17,2.11A5.61,5.61,0,0,1,37,4.28,5.78,5.78,0,0,1,25.9,2.66L25.68.56l-2.05.55a32.55,32.55,0,0,0-8.39,3.63L13.47,5.83l1.33,1.6a5.79,5.79,0,0,1-6.66,9.06,6.07,6.07,0,0,1-1.33-.77L5.16,14.44l-1,1.82a31.21,31.21,0,0,0-1.7,3.49A32,32,0,0,0,.91,24.4L.4,26.5l2.16.12a5.78,5.78,0,0,1,5,8,5.75,5.75,0,0,1-4.86,3.55l-2.16.18.57,2.09a32.22,32.22,0,0,0,3.56,8.24l1.12,1.83,1.61-1.42a5.79,5.79,0,0,1,9.18,6.56,6,6,0,0,1-.89,1.47l-1.37,1.66,1.87,1.06a33,33,0,0,0,3.54,1.72,31.87,31.87,0,0,0,4.76,1.55l2,.5.19-2.08a5.52,5.52,0,0,1,.42-1.69,5.79,5.79,0,0,1,11.09,1.5l.26,2.06,2-.55a32,32,0,0,0,8.25-3.59l1.73-1.06-1.27-1.59a5.8,5.8,0,0,1,8-8.27l1.64,1.22,1-1.78a30.24,30.24,0,0,0,1.72-3.53,32.25,32.25,0,0,0,1.6-5l.47-2-2-.2a6,6,0,0,1-1.66-.42,5.79,5.79,0,0,1,1.4-11.08l2-.29-.56-2a32.11,32.11,0,0,0-3.44-7.91L58.3,13.65l-1.6,1.29a5.79,5.79,0,0,1-8.23-8l1.25-1.63-1.79-1a31.26,31.26,0,0,0-3.67-1.81ZM28.44,40.55a9.26,9.26,0,1,1,12.1-5,9.26,9.26,0,0,1-12.1,5Z"/><polygon class="cls-1" points="-84.11 -31.12 240.38 -31.12 240.38 308.95 1173.97 317.02 1173.97 422.46 915.81 422.56 915.81 599.02 -180.47 599.02 -181.93 75.72 -374.65 74.18 -374.65 -90.6 -84.11 -90.53 -84.11 -31.12"/></g></svg>