<svg id="Warstwa_1" data-name="Warstwa 1" xmlns="http://www.w3.org/2000/svg" viewBox="0 0 64 64"><path d="M55.11,34.5a6.4,6.4,0,0,1,6.39,6.39V55.11a6.4,6.4,0,0,1-6.39,6.39H40.89a6.4,6.4,0,0,1-6.39-6.39V40.89a6.4,6.4,0,0,1,6.39-6.39H55.11m0-2.5H40.89A8.89,8.89,0,0,0,32,40.89V55.11A8.89,8.89,0,0,0,40.89,64H55.11A8.89,8.89,0,0,0,64,55.11V40.89A8.89,8.89,0,0,0,55.11,32Z"/><path d="M22.14,18.16a9.72,9.72,0,0,0,.14-9.39H20.5a2.13,2.13,0,0,1-2.13-2.13V4.77h0a9.75,9.75,0,0,0-9.71.11h0V6.71A2.14,2.14,0,0,1,6.53,8.84H4.9a9.76,9.76,0,0,0,.29,9.52H6.64a2.13,2.13,0,0,1,2.13,2.13v1.38a9.76,9.76,0,0,0,9.75-.05V20.3a2.13,2.13,0,0,1,2.13-2.14Z"/><path d="M5.72,19.89H1.55A1.19,1.19,0,0,0,.36,21.08v4.17a1.19,1.19,0,0,0,1.19,1.19H5.72a1.19,1.19,0,0,0,1.19-1.19V21.08A1.19,1.19,0,0,0,5.72,19.89Z"/><path d="M4.62,6.79h1.1A1.19,1.19,0,0,0,6.91,5.6V1.43A1.2,1.2,0,0,0,5.72.24H1.55A1.19,1.19,0,0,0,.36,1.43V5.6A1.19,1.19,0,0,0,1.55,6.79H4.62Z"/><path d="M21.5,6.79h4.16a1.19,1.19,0,0,0,1.2-1.19V1.43A1.2,1.2,0,0,0,25.66.24H21.5a1.19,1.19,0,0,0-1.19,1.19V5.6A1.19,1.19,0,0,0,21.5,6.79Z"/><path d="M25.66,19.89H21.5a1.19,1.19,0,0,0-1.19,1.19v4.17a1.19,1.19,0,0,0,1.19,1.19h4.16a1.19,1.19,0,0,0,1.2-1.19V21.08A1.19,1.19,0,0,0,25.66,19.89Z"/></svg>