<svg xmlns="http://www.w3.org/2000/svg" viewBox="0 0 64 64"><defs><style>.cls-1{fill:none;stroke:red;stroke-miterlimit:10;stroke-width:3px;}</style></defs><g id="Warstwa_1" data-name="Warstwa 1"><path d="M55.11,34.5a6.4,6.4,0,0,1,6.39,6.39V55.11a6.4,6.4,0,0,1-6.39,6.39H40.89a6.4,6.4,0,0,1-6.39-6.39V40.89a6.4,6.4,0,0,1,6.39-6.39H55.11m0-2.5H40.89A8.89,8.89,0,0,0,32,40.89V55.11A8.89,8.89,0,0,0,40.89,64H55.11A8.89,8.89,0,0,0,64,55.11V40.89A8.89,8.89,0,0,0,55.11,32Z"/><path d="M17.8-2.87h0v3H17v-7.3h.8v.88h0a1.89,1.89,0,0,1,1.73-1A1.86,1.86,0,0,1,21-6.6a2.8,2.8,0,0,1,.54,1.8,3.07,3.07,0,0,1-.61,2A2,2,0,0,1,19.3-2,1.67,1.67,0,0,1,17.8-2.87Zm0-2v.7a1.53,1.53,0,0,0,.4,1.05,1.34,1.34,0,0,0,1,.43,1.35,1.35,0,0,0,1.14-.55,2.62,2.62,0,0,0,.41-1.55,2,2,0,0,0-.38-1.31,1.27,1.27,0,0,0-1.05-.47,1.41,1.41,0,0,0-1.12.48A1.77,1.77,0,0,0,17.78-4.89Z"/><polygon class="cls-1" points="-168.11 -558.19 156.38 -558.19 156.38 -218.12 1089.97 -210.04 1089.97 -104.61 831.81 -104.51 831.81 71.95 -264.47 71.95 -265.93 -451.35 -458.65 -452.89 -458.65 -617.66 -168.11 -617.59 -168.11 -558.19"/><path d="M23.3,18.79a10.67,10.67,0,0,0,.15-10.26H21.51A2.33,2.33,0,0,1,19.18,6.2v-2h0a10.64,10.64,0,0,0-10.6.13h0v2A2.34,2.34,0,0,1,6.25,8.61H4.48A10.62,10.62,0,0,0,4.79,19H6.37A2.33,2.33,0,0,1,8.7,21.34v1.5a10.66,10.66,0,0,0,10.65-.05V21.12a2.33,2.33,0,0,1,2.32-2.33Z"/><path d="M6.16,1.12A1.22,1.22,0,0,1,7.37,2.34V6.23A1.22,1.22,0,0,1,6.16,7.45H2.27A1.22,1.22,0,0,1,1.05,6.23V2.34A1.22,1.22,0,0,1,2.27,1.12H6.16m0-1.21H2.27A2.43,2.43,0,0,0-.17,2.34V6.23A2.43,2.43,0,0,0,2.27,8.66H6.16A2.43,2.43,0,0,0,8.59,6.23V2.34A2.43,2.43,0,0,0,6.16-.09Z"/><path d="M25.37,1a1.22,1.22,0,0,1,1.22,1.22V6.11a1.22,1.22,0,0,1-1.22,1.22H21.48a1.22,1.22,0,0,1-1.22-1.22V2.22A1.22,1.22,0,0,1,21.48,1h3.89m0-1.21H21.48a2.43,2.43,0,0,0-2.43,2.43V6.11a2.43,2.43,0,0,0,2.43,2.43h3.89A2.43,2.43,0,0,0,27.8,6.11V2.22A2.43,2.43,0,0,0,25.37-.21Z"/><path d="M6.31,20.21a1.22,1.22,0,0,1,1.22,1.22v3.89a1.22,1.22,0,0,1-1.22,1.22H2.42a1.22,1.22,0,0,1-1.21-1.22V21.43a1.22,1.22,0,0,1,1.21-1.22H6.31m0-1.21H2.42A2.43,2.43,0,0,0,0,21.43v3.89a2.43,2.43,0,0,0,2.43,2.43H6.31a2.43,2.43,0,0,0,2.44-2.43V21.43A2.43,2.43,0,0,0,6.31,19Z"/><path d="M25.66,19.85a1.21,1.21,0,0,1,1.21,1.21V25a1.21,1.21,0,0,1-1.21,1.21H21.77A1.21,1.21,0,0,1,20.55,25v-3.9a1.21,1.21,0,0,1,1.22-1.21h3.89m0-1.22H21.77a2.43,2.43,0,0,0-2.44,2.43V25a2.43,2.43,0,0,0,2.44,2.43h3.89A2.43,2.43,0,0,0,28.09,25v-3.9a2.43,2.43,0,0,0-2.43-2.43Z"/></g></svg>