<svg xmlns="http://www.w3.org/2000/svg" viewBox="0 0 64 64"><defs><style>.cls-1{fill:#fff;}.cls-2{fill:none;stroke:red;stroke-miterlimit:10;stroke-width:3px;}</style></defs><g id="Warstwa_1" data-name="Warstwa 1"><path d="M36,2.5A2.5,2.5,0,0,1,38.5,5v8A2.5,2.5,0,0,1,36,15.5H5A2.5,2.5,0,0,1,2.46,13V5A2.5,2.5,0,0,1,5,2.5H36M36,0H5A5,5,0,0,0,0,5v8a5,5,0,0,0,5,5H36a5,5,0,0,0,5-5V5a5,5,0,0,0-5-5Z"/><path d="M59,48.5A2.5,2.5,0,0,1,61.5,51v8A2.5,2.5,0,0,1,59,61.5H51A2.5,2.5,0,0,1,48.5,59V51A2.5,2.5,0,0,1,51,48.5h8M59,46H51a5,5,0,0,0-5,5v8a5,5,0,0,0,5,5h8a5,5,0,0,0,5-5V51a5,5,0,0,0-5-5Z"/><polygon class="cls-1" points="42.25 23.65 32.61 40.35 22.97 23.65 42.25 23.65"/><path d="M31.57,41l-9.64-16.7a1.17,1.17,0,0,1,0-1.2,1.2,1.2,0,0,1,1-.6H42.25a1.2,1.2,0,0,1,1,.6,1.17,1.17,0,0,1,0,1.2L33.65,41a1.2,1.2,0,0,1-2.08,0Zm-6.52-16.1L32.61,38l7.56-13.1Z"/><polygon class="cls-2" points="-840.11 -367.12 -515.62 -367.12 -515.62 -27.05 417.98 -18.98 417.98 86.46 159.81 86.56 159.81 263.02 -936.47 263.02 -937.92 -260.29 -1130.65 -261.82 -1130.65 -426.6 -840.11 -426.53 -840.11 -367.12"/><path d="M5,48.5h8A2.5,2.5,0,0,1,15.5,51v8A2.5,2.5,0,0,1,13,61.5H5A2.5,2.5,0,0,1,2.5,59V51A2.5,2.5,0,0,1,5,48.5M5,46a5,5,0,0,0-5,5v8a5,5,0,0,0,5,5h8a5,5,0,0,0,5-5V51a5,5,0,0,0-5-5Z"/><path d="M28,48.5h8A2.5,2.5,0,0,1,38.5,51v8A2.5,2.5,0,0,1,36,61.5H28A2.5,2.5,0,0,1,25.5,59V51A2.5,2.5,0,0,1,28,48.5M28,46a5,5,0,0,0-5,5v8a5,5,0,0,0,5,5h8a5,5,0,0,0,5-5V51a5,5,0,0,0-5-5Z"/><path d="M22,2.5A2.5,2.5,0,0,1,24.5,5v8A2.5,2.5,0,0,1,22,15.5H14A2.5,2.5,0,0,1,11.5,13V5A2.5,2.5,0,0,1,14,2.5h8M22,0H14A5,5,0,0,0,9,5v8a5,5,0,0,0,5,5h8a5,5,0,0,0,5-5V5a5,5,0,0,0-5-5Z"/></g></svg>