<svg id="Warstwa_1" data-name="Warstwa 1" xmlns="http://www.w3.org/2000/svg" viewBox="0 0 64 64"><path d="M55.11,34.5a6.4,6.4,0,0,1,6.39,6.39V55.11a6.4,6.4,0,0,1-6.39,6.39H40.89a6.4,6.4,0,0,1-6.39-6.39V40.89a6.4,6.4,0,0,1,6.39-6.39H55.11m0-2.5H40.89A8.89,8.89,0,0,0,32,40.89V55.11A8.89,8.89,0,0,0,40.89,64H55.11A8.89,8.89,0,0,0,64,55.11V40.89A8.89,8.89,0,0,0,55.11,32Z"/><path d="M52,41.5A2.5,2.5,0,0,1,54.5,44v8A2.5,2.5,0,0,1,52,54.5H44A2.5,2.5,0,0,1,41.5,52V44A2.5,2.5,0,0,1,44,41.5h8M52,39H44a5,5,0,0,0-5,5v8a5,5,0,0,0,5,5h8a5,5,0,0,0,5-5V44a5,5,0,0,0-5-5Z"/><path d="M21.94,17.86a9.72,9.72,0,0,0,.14-9.39H20.3a2.13,2.13,0,0,1-2.13-2.14V4.47h0a9.75,9.75,0,0,0-9.71.11h0V6.4A2.14,2.14,0,0,1,6.33,8.54H4.7A9.76,9.76,0,0,0,5,18.06H6.44a2.13,2.13,0,0,1,2.13,2.13v1.38a9.76,9.76,0,0,0,9.75-.05V20a2.14,2.14,0,0,1,2.13-2.13Z"/><path d="M5.52,19.59H1.35A1.19,1.19,0,0,0,.16,20.78V25a1.19,1.19,0,0,0,1.19,1.19H5.52A1.19,1.19,0,0,0,6.71,25V20.78A1.19,1.19,0,0,0,5.52,19.59Z"/><path d="M4.42,6.49h1.1A1.19,1.19,0,0,0,6.71,5.3V1.13A1.19,1.19,0,0,0,5.52-.06H1.35A1.19,1.19,0,0,0,.16,1.13V5.3A1.19,1.19,0,0,0,1.35,6.49H4.42Z"/><path d="M21.3,6.49h4.17A1.19,1.19,0,0,0,26.66,5.3V1.13A1.19,1.19,0,0,0,25.47-.06H21.3a1.19,1.19,0,0,0-1.19,1.19V5.3A1.19,1.19,0,0,0,21.3,6.49Z"/><path d="M25.47,19.59H21.3a1.19,1.19,0,0,0-1.19,1.19V25a1.19,1.19,0,0,0,1.19,1.19h4.17A1.19,1.19,0,0,0,26.66,25V20.78A1.19,1.19,0,0,0,25.47,19.59Z"/></svg>