<svg xmlns="http://www.w3.org/2000/svg" viewBox="0 0 64 64"><defs><style>.cls-1{fill:none;stroke:red;stroke-miterlimit:10;stroke-width:3px;}</style></defs><g id="Warstwa_1" data-name="Warstwa 1"><path d="M55.11,34.5a6.4,6.4,0,0,1,6.39,6.39V55.11a6.4,6.4,0,0,1-6.39,6.39H40.89a6.4,6.4,0,0,1-6.39-6.39V40.89a6.4,6.4,0,0,1,6.39-6.39H55.11m0-2.5H40.89A8.89,8.89,0,0,0,32,40.89V55.11A8.89,8.89,0,0,0,40.89,64H55.11A8.89,8.89,0,0,0,64,55.11V40.89A8.89,8.89,0,0,0,55.11,32Z"/><path d="M52,41.5A2.5,2.5,0,0,1,54.5,44v8A2.5,2.5,0,0,1,52,54.5H44A2.5,2.5,0,0,1,41.5,52V44A2.5,2.5,0,0,1,44,41.5h8M52,39H44a5,5,0,0,0-5,5v8a5,5,0,0,0,5,5h8a5,5,0,0,0,5-5V44a5,5,0,0,0-5-5Z"/><polygon class="cls-1" points="-252.11 -558.19 72.38 -558.19 72.38 -218.12 1005.98 -210.04 1005.98 -104.61 747.81 -104.51 747.81 71.95 -348.47 71.95 -349.93 -451.35 -542.65 -452.89 -542.65 -617.66 -252.11 -617.59 -252.11 -558.19"/><path d="M23.47,19a10.69,10.69,0,0,0,.15-10.27H21.67a2.32,2.32,0,0,1-2.32-2.32v-2h0a10.62,10.62,0,0,0-10.61.12h0v2A2.32,2.32,0,0,1,6.42,8.85H4.64A10.59,10.59,0,0,0,5,19.25H6.54a2.34,2.34,0,0,1,2.33,2.33v1.51A10.61,10.61,0,0,0,19.51,23V21.37A2.33,2.33,0,0,1,21.84,19Z"/><path d="M6.32,1.37A1.22,1.22,0,0,1,7.54,2.58V6.47A1.22,1.22,0,0,1,6.32,7.69H2.43A1.22,1.22,0,0,1,1.22,6.47V2.58A1.21,1.21,0,0,1,2.43,1.37H6.32m0-1.22H2.43A2.43,2.43,0,0,0,0,2.58V6.47A2.43,2.43,0,0,0,2.43,8.91H6.32A2.44,2.44,0,0,0,8.76,6.47V2.58A2.43,2.43,0,0,0,6.32.15Z"/><path d="M25.54,1.25a1.22,1.22,0,0,1,1.22,1.21V6.35a1.22,1.22,0,0,1-1.22,1.22H21.65a1.22,1.22,0,0,1-1.22-1.22V2.46a1.22,1.22,0,0,1,1.22-1.21h3.89m0-1.22H21.65a2.43,2.43,0,0,0-2.43,2.43V6.35a2.43,2.43,0,0,0,2.43,2.44h3.89A2.43,2.43,0,0,0,28,6.35V2.46A2.43,2.43,0,0,0,25.54,0Z"/><path d="M6.48,20.46A1.22,1.22,0,0,1,7.7,21.67v3.89a1.22,1.22,0,0,1-1.22,1.22H2.59a1.22,1.22,0,0,1-1.22-1.22V21.67a1.22,1.22,0,0,1,1.22-1.21H6.48m0-1.22H2.59A2.43,2.43,0,0,0,.16,21.67v3.89A2.43,2.43,0,0,0,2.59,28H6.48a2.43,2.43,0,0,0,2.43-2.44V21.67a2.43,2.43,0,0,0-2.43-2.43Z"/><path d="M25.82,20.09A1.22,1.22,0,0,1,27,21.31V25.2a1.22,1.22,0,0,1-1.22,1.21H21.93a1.21,1.21,0,0,1-1.21-1.21V21.31a1.22,1.22,0,0,1,1.21-1.22h3.89m0-1.21H21.93a2.43,2.43,0,0,0-2.43,2.43V25.2a2.43,2.43,0,0,0,2.43,2.43h3.89a2.43,2.43,0,0,0,2.44-2.43V21.31a2.43,2.43,0,0,0-2.44-2.43Z"/></g></svg>