<svg id="Warstwa_1" data-name="Warstwa 1" xmlns="http://www.w3.org/2000/svg" viewBox="0 0 64 64"><circle cx="57.08" cy="7.16" r="6.74"/><path d="M56.87,17.05h-.45a6.72,6.72,0,0,1-3,2.85,6.61,6.61,0,0,1-2.7.64,6.74,6.74,0,0,1-5.94-10.23A6.83,6.83,0,0,1,47,8.09,13.59,13.59,0,0,1,49.7.17,13.61,13.61,0,1,0,64,14.82,13.57,13.57,0,0,1,56.87,17.05Z"/><path d="M15.4,36a2.5,2.5,0,0,1-2.5,2.5h-8A2.5,2.5,0,0,1,2.4,36V28a2.5,2.5,0,0,1,2.5-2.5h8A2.5,2.5,0,0,1,15.4,28v8m2.5,0V28a5,5,0,0,0-5-5h-8a5,5,0,0,0-5,5v8a5,5,0,0,0,5,5h8a5,5,0,0,0,5-5Z"/><path d="M15.4,59a2.5,2.5,0,0,1-2.5,2.5h-8A2.5,2.5,0,0,1,2.4,59V51a2.5,2.5,0,0,1,2.5-2.5h8A2.5,2.5,0,0,1,15.4,51v8m2.5,0V51a5,5,0,0,0-5-5h-8a5,5,0,0,0-5,5v8a5,5,0,0,0,5,5h8a5,5,0,0,0,5-5Z"/><path d="M15.32,13a2.5,2.5,0,0,1-2.5,2.5h-8A2.5,2.5,0,0,1,2.32,13V5a2.5,2.5,0,0,1,2.5-2.5h8A2.5,2.5,0,0,1,15.32,5v8m2.5,0V5a5,5,0,0,0-5-5h-8a5,5,0,0,0-5,5v8a5,5,0,0,0,5,5h8a5,5,0,0,0,5-5Z"/></svg>