<svg xmlns="http://www.w3.org/2000/svg" viewBox="0 0 64 64"><defs><style>.cls-1{fill:none;stroke:red;stroke-miterlimit:10;stroke-width:3px;}</style></defs><g id="Warstwa_1" data-name="Warstwa 1"><polygon class="cls-1" points="83.89 -283.12 408.38 -283.12 408.38 56.95 1341.97 65.02 1341.97 170.46 1083.81 170.56 1083.81 347.02 -12.47 347.02 -13.93 -176.28 -206.65 -177.82 -206.65 -342.6 83.89 -342.53 83.89 -283.12"/><circle cx="57.08" cy="7.16" r="6.74"/><path d="M56.87,17.05h-.45a6.72,6.72,0,0,1-3,2.85,6.61,6.61,0,0,1-2.7.64,6.74,6.74,0,0,1-5.94-10.23A6.83,6.83,0,0,1,47,8.09,13.59,13.59,0,0,1,49.7.17,13.61,13.61,0,1,0,64,14.82,13.57,13.57,0,0,1,56.87,17.05Z"/><path d="M15.4,36a2.5,2.5,0,0,1-2.5,2.5h-8A2.5,2.5,0,0,1,2.4,36V28a2.5,2.5,0,0,1,2.5-2.5h8A2.5,2.5,0,0,1,15.4,28v8m2.5,0V28a5,5,0,0,0-5-5h-8a5,5,0,0,0-5,5v8a5,5,0,0,0,5,5h8a5,5,0,0,0,5-5Z"/><path d="M15.4,59a2.5,2.5,0,0,1-2.5,2.5h-8A2.5,2.5,0,0,1,2.4,59V51a2.5,2.5,0,0,1,2.5-2.5h8A2.5,2.5,0,0,1,15.4,51v8m2.5,0V51a5,5,0,0,0-5-5h-8a5,5,0,0,0-5,5v8a5,5,0,0,0,5,5h8a5,5,0,0,0,5-5Z"/><path d="M38.45,59A2.5,2.5,0,0,1,36,61.5H28a2.51,2.51,0,0,1-2.5-2.5V51A2.51,2.51,0,0,1,28,48.5h8a2.5,2.5,0,0,1,2.5,2.5v8M41,59V51a5,5,0,0,0-5-5H28a5,5,0,0,0-5,5v8a5,5,0,0,0,5,5h8a5,5,0,0,0,5-5Z"/></g></svg>