<svg xmlns="http://www.w3.org/2000/svg" viewBox="0 0 64 64"><defs><style>.cls-1{fill:none;stroke:red;stroke-miterlimit:10;stroke-width:3px;}</style></defs><g id="Warstwa_1" data-name="Warstwa 1"><polygon class="cls-1" points="83.89 -283.12 408.38 -283.12 408.38 56.95 1341.97 65.02 1341.97 170.46 1083.81 170.56 1083.81 347.02 -12.47 347.02 -13.93 -176.28 -206.65 -177.82 -206.65 -342.6 83.89 -342.53 83.89 -283.12"/><path d="M51,61.55a2.5,2.5,0,0,1-2.5-2.5v-8a2.5,2.5,0,0,1,2.5-2.5h8a2.5,2.5,0,0,1,2.5,2.5v8a2.5,2.5,0,0,1-2.5,2.5H51m0,2.5h8a5,5,0,0,0,5-5v-8a5,5,0,0,0-5-5H51a5,5,0,0,0-5,5v8a5,5,0,0,0,5,5Z"/><path d="M5,61.55a2.5,2.5,0,0,1-2.5-2.5v-8A2.5,2.5,0,0,1,5,48.55h8a2.5,2.5,0,0,1,2.5,2.5v8a2.5,2.5,0,0,1-2.5,2.5H5m0,2.5h8a5,5,0,0,0,5-5v-8a5,5,0,0,0-5-5H5a5,5,0,0,0-5,5v8a5,5,0,0,0,5,5Z"/><path d="M28,61.55a2.5,2.5,0,0,1-2.5-2.5v-8a2.5,2.5,0,0,1,2.5-2.5h8a2.5,2.5,0,0,1,2.5,2.5v8a2.5,2.5,0,0,1-2.5,2.5H28m0,2.5h8a5,5,0,0,0,5-5v-8a5,5,0,0,0-5-5H28a5,5,0,0,0-5,5v8a5,5,0,0,0,5,5Z"/><circle cx="57.08" cy="7.16" r="6.74"/><path d="M56.87,17.05h-.45a6.72,6.72,0,0,1-3,2.85,6.61,6.61,0,0,1-2.7.64,6.74,6.74,0,0,1-5.94-10.23A6.83,6.83,0,0,1,47,8.09,13.59,13.59,0,0,1,49.7.17,13.61,13.61,0,1,0,64,14.82,13.57,13.57,0,0,1,56.87,17.05Z"/><path d="M19,28.74a1.2,1.2,0,0,1-.6,1L1.7,39.43a1.22,1.22,0,0,1-1.2,0,1.21,1.21,0,0,1-.6-1V19.1a1.21,1.21,0,0,1,.6-1,1.22,1.22,0,0,1,1.2,0l16.7,9.65A1.19,1.19,0,0,1,19,28.74ZM2.3,36.31l13.1-7.57L2.3,21.18Z"/></g></svg>