<svg id="Warstwa_1" data-name="Warstwa 1" xmlns="http://www.w3.org/2000/svg" viewBox="0 0 64 64"><path d="M56.52,42.54H54.2a24,24,0,0,0,.26-21h1.72a4.77,4.77,0,0,0,4.76-4.77V8.45a4.77,4.77,0,0,0-4.76-4.77H47.84a4.77,4.77,0,0,0-4.76,4.77V9.94a24.05,24.05,0,0,0-21.69.21V8.6a4.77,4.77,0,0,0-4.76-4.76H8.29A4.76,4.76,0,0,0,3.53,8.6v8.34A4.76,4.76,0,0,0,8.29,21.7h2.07A24.1,24.1,0,0,0,10.91,43H8.55a4.78,4.78,0,0,0-4.77,4.77v8.33a4.77,4.77,0,0,0,4.77,4.76h8.33a4.77,4.77,0,0,0,4.77-4.76V53.51a24.09,24.09,0,0,0,21.77-.08v2.21a4.77,4.77,0,0,0,4.76,4.77h8.34a4.77,4.77,0,0,0,4.76-4.77V47.31A4.77,4.77,0,0,0,56.52,42.54ZM45.46,8.45a2.39,2.39,0,0,1,2.38-2.39h8.34a2.39,2.39,0,0,1,2.38,2.39v8.33a2.38,2.38,0,0,1-2.38,2.38H47.84a2.38,2.38,0,0,1-2.38-2.38V8.45ZM8.29,19.32a2.39,2.39,0,0,1-2.38-2.38V8.6A2.39,2.39,0,0,1,8.29,6.22h8.34A2.39,2.39,0,0,1,19,8.6v8.34a2.39,2.39,0,0,1-2.38,2.38H8.29Zm11,36.76a2.38,2.38,0,0,1-2.38,2.38H8.55a2.39,2.39,0,0,1-2.39-2.38V47.75a2.39,2.39,0,0,1,2.39-2.39h8.33a2.38,2.38,0,0,1,2.38,2.39v8.33Zm13.19-2.39a21.72,21.72,0,0,1-10.8-2.87V47.75A4.78,4.78,0,0,0,16.88,43H13.64A21.76,21.76,0,0,1,13,21.7h3.63a4.76,4.76,0,0,0,4.76-4.76V12.86a21.77,21.77,0,0,1,21.69-.25h0v4.16a4.77,4.77,0,0,0,4.76,4.77h4a21.8,21.8,0,0,1-.31,21H48.18a4.77,4.77,0,0,0-4.76,4.77v3.41A21.73,21.73,0,0,1,32.45,53.69Zm26.45,2A2.38,2.38,0,0,1,56.52,58H48.18a2.38,2.38,0,0,1-2.38-2.38V47.31a2.39,2.39,0,0,1,2.38-2.39h8.34a2.39,2.39,0,0,1,2.38,2.39Z"/></svg>