<svg xmlns="http://www.w3.org/2000/svg" viewBox="0 0 64 64"><defs><style>.cls-1,.cls-3{fill:none;}.cls-2{fill:#fff;}.cls-3{stroke:red;stroke-miterlimit:10;stroke-width:3px;}</style></defs><g id="Warstwa_1" data-name="Warstwa 1"><path d="M23.17,47.25a14.41,14.41,0,0,0,9.17,3.31,14.23,14.23,0,0,0,8.9-3.08A18.22,18.22,0,0,1,50,61.33H14a18.08,18.08,0,0,1,9.17-14.08m.48-3.2A20.74,20.74,0,0,0,11.27,63c0,.32,0,.63,0,.95H52.7c0-.32,0-.63,0-.95a20.74,20.74,0,0,0-11.9-18.76,11.7,11.7,0,0,1-17.18-.22Z"/><path d="M32.34,27.28a7.6,7.6,0,0,1,7.6,7.59,7.6,7.6,0,1,1-7.6-7.59m0-2.65A10.24,10.24,0,1,0,42.58,34.87,10.25,10.25,0,0,0,32.34,24.63Z"/><path d="M17.45,2.16a6.28,6.28,0,0,1,6.27,6.28,6.28,6.28,0,0,1-12.55,0,6.28,6.28,0,0,1,6.28-6.28m0-2.19a8.47,8.47,0,1,0,8.46,8.47A8.47,8.47,0,0,0,17.45,0Zm0,2.19a6.28,6.28,0,0,1,6.27,6.28,6.28,6.28,0,0,1-12.55,0,6.28,6.28,0,0,1,6.28-6.28"/><path d="M47.12,1.92A6.29,6.29,0,0,1,53.4,8.2a6.28,6.28,0,0,1-12.56,0,6.29,6.29,0,0,1,6.28-6.28m0-2.19A8.47,8.47,0,1,0,55.58,8.2,8.47,8.47,0,0,0,47.12-.27Zm0,2.19A6.29,6.29,0,0,1,53.4,8.2a6.28,6.28,0,0,1-12.56,0,6.29,6.29,0,0,1,6.28-6.28"/><path class="cls-1" d="M25.13,42.15a10.24,10.24,0,0,0,17.45-7.28,10,10,0,0,0-.29-2.39H22.39a10.49,10.49,0,0,0-.29,2.39A10.23,10.23,0,0,0,25.13,42.15Z"/><path d="M31.38,22.18a17.16,17.16,0,0,0-6.92-6A9.68,9.68,0,0,1,10.26,16,17.15,17.15,0,0,0,0,31.69c0,.27,0,.53,0,.79H19.83A12.76,12.76,0,0,1,31.38,22.18Z"/><path d="M64,31.69a17.13,17.13,0,0,0-9.83-15.5A9.69,9.69,0,0,1,39.93,16a17,17,0,0,0-7.28,6.14,12.74,12.74,0,0,1,12.2,10.33H64C64,32.22,64,32,64,31.69Z"/><path class="cls-2" d="M32.32,27.16a7.59,7.59,0,0,1,7.59,7.59,7.51,7.51,0,0,1-2.38,5.53,7.6,7.6,0,1,1-5.21-13.12"/><polygon class="cls-3" points="-924.11 -558.19 -599.62 -558.19 -599.62 -218.12 333.98 -210.04 333.98 -104.61 75.81 -104.51 75.81 71.95 -1020.47 71.95 -1021.92 -451.35 -1214.65 -452.89 -1214.65 -617.66 -924.11 -617.59 -924.11 -558.19"/></g></svg>