<svg xmlns="http://www.w3.org/2000/svg" viewBox="0 0 64 64"><defs><style>.cls-1{fill:none;stroke:red;stroke-miterlimit:10;stroke-width:3px;}</style></defs><g id="Warstwa_1" data-name="Warstwa 1"><path d="M55.15,5.14a4,4,0,1,1-4,4,4,4,0,0,1,4-4m0-2.5a6.5,6.5,0,1,0,6.5,6.5,6.51,6.51,0,0,0-6.5-6.5Z"/><path d="M32.15,5.14a4,4,0,1,1-4,4,4,4,0,0,1,4-4m23,23a4,4,0,1,1-4,4,4,4,0,0,1,4-4m-23-25.5a6.5,6.5,0,1,0,6.5,6.5,6.51,6.51,0,0,0-6.5-6.5Zm23,23a6.5,6.5,0,1,0,6.5,6.5,6.51,6.51,0,0,0-6.5-6.5Z"/><path d="M32.15,28.14a4,4,0,1,1-4,4,4,4,0,0,1,4-4m0-2.5a6.5,6.5,0,1,0,6.5,6.5,6.51,6.51,0,0,0-6.5-6.5Z"/><path d="M9.15,51.14a4,4,0,1,1-4,4,4,4,0,0,1,4-4m0-2.5a6.5,6.5,0,1,0,6.5,6.5,6.51,6.51,0,0,0-6.5-6.5Z"/><path d="M55.15,51.14a4,4,0,1,1-4,4,4,4,0,0,1,4-4m0-2.5a6.5,6.5,0,1,0,6.5,6.5,6.51,6.51,0,0,0-6.5-6.5Z"/><path d="M9.15,5.14a4,4,0,1,1-4,4,4,4,0,0,1,4-4m0,23a4,4,0,1,1-4,4,4,4,0,0,1,4-4m23,23a4,4,0,1,1-4,4,4,4,0,0,1,4-4m-23-48.5a6.5,6.5,0,1,0,6.5,6.5,6.51,6.51,0,0,0-6.5-6.5Zm0,23a6.5,6.5,0,1,0,6.5,6.5,6.51,6.51,0,0,0-6.5-6.5Zm23,23a6.5,6.5,0,1,0,6.5,6.5,6.51,6.51,0,0,0-6.5-6.5Z"/><rect x="7.9" y="14.45" width="2.5" height="12.36"/><rect x="19.05" y="32.87" width="2.5" height="22.32" transform="translate(-25.19 27.25) rotate(-45)"/><rect x="41.97" y="10.09" width="2.5" height="22.2" transform="translate(-2.33 36.77) rotate(-45)"/><polygon class="cls-1" points="-252.11 -115.12 72.38 -115.12 72.38 224.95 1005.98 233.02 1005.98 338.46 747.81 338.56 747.81 515.02 -348.47 515.02 -349.93 -8.29 -542.65 -9.82 -542.65 -174.6 -252.11 -174.53 -252.11 -115.12"/></g></svg>