<svg xmlns="http://www.w3.org/2000/svg" viewBox="0 0 64 64">
  <defs>
    <style>
      .cls-1 { fill: #fff; }
      .cls-2 { fill: none; stroke: red; stroke-miterlimit: 10; stroke-width: 3px; }
    </style>
  </defs>
  <g id="czarne_lot" transform="rotate(180 32 32)">
    <path class="cls-1" d="M32,62.84a1.24,1.24,0,0,1-1.08-.63L14.36,33.54a1.27,1.27,0,0,1,0-1.25,1.25,1.25,0,0,1,1.08-.63H48.56a1.24,1.24,0,0,1,1.08.63,1.27,1.27,0,0,1,0,1.25L33.08,62.21a1.24,1.24,0,0,1-1.08.63Z"/>
    <path d="M48.56,32.91,32,61.59,15.44,32.91H48.56m0-2.5H15.44a2.5,2.5,0,0,0-2.16,3.75L29.83,62.84A2.52,2.52,0,0,0,32,64.09a2.5,2.5,0,0,0,2.16-1.25L50.72,34.16a2.5,2.5,0,0,0-2.16-3.75Z"/>
  </g>
  <g id="nazwy">
    <polygon class="cls-2" points="-1176.11 -558.19 -851.62 -558.19 -851.62 -218.12 81.97 -210.04 81.97 -104.61 82.82 71.95 -176.19 71.95 -1272.47 71.95 -1273.92 -451.35 -1466.65 -452.89 -1466.65 -617.66 -1176.11 -617.59 -1176.11 -558.19"/>
  </g>
</svg>
