<svg id="Warstwa_1" data-name="Warstwa 1" xmlns="http://www.w3.org/2000/svg" viewBox="0 0 64 64"><path d="M34.44,47.52a14.41,14.41,0,0,0,9.18,3.31,14.2,14.2,0,0,0,8.89-3.08A18.19,18.19,0,0,1,61.27,61.6h-36a18.1,18.1,0,0,1,9.17-14.08m.48-3.19a20.71,20.71,0,0,0-12.37,19c0,.32,0,.63,0,1H64c0-.32,0-.63,0-1A20.73,20.73,0,0,0,52.11,44.54a11.72,11.72,0,0,1-17.19-.21Z"/><path d="M43.62,27.55a7.6,7.6,0,0,1,7.59,7.59,7.6,7.6,0,1,1-15.19,0,7.6,7.6,0,0,1,7.6-7.59m0-2.65A10.24,10.24,0,1,0,53.86,35.14,10.25,10.25,0,0,0,43.62,24.9Z"/><path d="M22,17.53a9.74,9.74,0,0,0,.14-9.4H20.39A2.14,2.14,0,0,1,18.26,6V4.14h0a9.72,9.72,0,0,0-9.71.12h0V6.07A2.13,2.13,0,0,1,6.42,8.2H4.8a9.69,9.69,0,0,0,.29,9.52H6.54a2.14,2.14,0,0,1,2.13,2.14v1.37a9.71,9.71,0,0,0,9.74,0V19.66a2.13,2.13,0,0,1,2.13-2.13Z"/><path d="M5.61,19.25H1.44a1.2,1.2,0,0,0-1.19,1.2v4.16A1.19,1.19,0,0,0,1.44,25.8H5.61A1.19,1.19,0,0,0,6.8,24.61V20.45A1.19,1.19,0,0,0,5.61,19.25Z"/><path d="M4.51,6.16h1.1A1.19,1.19,0,0,0,6.8,5V.8A1.19,1.19,0,0,0,5.61-.39H1.44A1.19,1.19,0,0,0,.25.8V5a1.2,1.2,0,0,0,1.19,1.2H4.51Z"/><path d="M21.39,6.16h4.17A1.2,1.2,0,0,0,26.75,5V.8A1.19,1.19,0,0,0,25.56-.39H21.39A1.19,1.19,0,0,0,20.2.8V5A1.19,1.19,0,0,0,21.39,6.16Z"/><path d="M25.56,19.25H21.39a1.19,1.19,0,0,0-1.19,1.2v4.16a1.19,1.19,0,0,0,1.19,1.19h4.17a1.19,1.19,0,0,0,1.19-1.19V20.45A1.2,1.2,0,0,0,25.56,19.25Z"/></svg>