<svg xmlns="http://www.w3.org/2000/svg" viewBox="0 0 64 64"><defs><style>.cls-1{fill:none;stroke:red;stroke-miterlimit:10;stroke-width:3px;}</style></defs><g id="Warstwa_1" data-name="Warstwa 1"><path d="M22.7,18.24a10.93,10.93,0,0,0,.15-10.5h-2a2.39,2.39,0,0,1-2.38-2.38V3.28h0A10.91,10.91,0,0,0,7.63,3.4h0v2A2.38,2.38,0,0,1,5.25,7.82H3.44a10.85,10.85,0,0,0,.32,10.64H5.38a2.39,2.39,0,0,1,2.38,2.38v1.54a10.85,10.85,0,0,0,10.89-.05V20.62A2.39,2.39,0,0,1,21,18.24Z"/><path d="M5.25,19.65H1.08A1.19,1.19,0,0,0-.11,20.84V25A1.19,1.19,0,0,0,1.08,26.2H5.25A1.19,1.19,0,0,0,6.44,25V20.84A1.19,1.19,0,0,0,5.25,19.65Z"/><path d="M4.15,6.55h1.1A1.19,1.19,0,0,0,6.44,5.36V1.19A1.19,1.19,0,0,0,5.25,0H1.08A1.2,1.2,0,0,0-.11,1.19V5.36A1.19,1.19,0,0,0,1.08,6.55H4.15Z"/><path d="M20.86,6.55H25a1.19,1.19,0,0,0,1.19-1.19V1.19A1.19,1.19,0,0,0,25,0H20.86a1.19,1.19,0,0,0-1.19,1.19V5.36A1.19,1.19,0,0,0,20.86,6.55Z"/><path d="M25.2,19.43H21a1.19,1.19,0,0,0-1.19,1.19v4.17A1.19,1.19,0,0,0,21,26H25.2a1.19,1.19,0,0,0,1.19-1.19V20.62A1.19,1.19,0,0,0,25.2,19.43Z"/><path d="M34.44,47.52a14.41,14.41,0,0,0,9.18,3.31,14.2,14.2,0,0,0,8.89-3.08A18.19,18.19,0,0,1,61.27,61.6h-36a18.1,18.1,0,0,1,9.17-14.08m.48-3.19a20.71,20.71,0,0,0-12.37,19c0,.32,0,.63,0,1H64c0-.32,0-.63,0-1A20.73,20.73,0,0,0,52.11,44.54a11.72,11.72,0,0,1-17.19-.21Z"/><path d="M43.62,27.55a7.6,7.6,0,0,1,7.59,7.59,7.6,7.6,0,1,1-15.19,0,7.6,7.6,0,0,1,7.6-7.59m0-2.65A10.24,10.24,0,1,0,53.86,35.14,10.25,10.25,0,0,0,43.62,24.9Z"/><polygon class="cls-1" points="-0.11 -31.12 324.38 -31.12 324.38 308.95 1257.97 317.02 1257.97 422.46 999.81 422.56 999.81 599.02 -96.47 599.02 -97.92 75.72 -290.65 74.18 -290.65 -90.6 -0.11 -90.53 -0.11 -31.12"/></g></svg>