<svg id="Warstwa_1" data-name="Warstwa 1" xmlns="http://www.w3.org/2000/svg" viewBox="0 0 64 64"><defs><style>.cls-1,.cls-2{fill:none;}.cls-2{stroke:#000;stroke-miterlimit:10;stroke-width:2.5px;}</style></defs><rect class="cls-1" x="36.27" y="36.27" width="23.01" height="23.01" rx="4.43"/><path d="M21.78,17.92a9.72,9.72,0,0,0,.14-9.39H20.14A2.13,2.13,0,0,1,18,6.39V4.53h0a9.75,9.75,0,0,0-9.71.11h0V6.46A2.14,2.14,0,0,1,6.17,8.6H4.55a9.72,9.72,0,0,0,.28,9.52H6.28a2.13,2.13,0,0,1,2.13,2.13v1.38a9.76,9.76,0,0,0,9.75-.05V20.05a2.14,2.14,0,0,1,2.13-2.13Z"/><path d="M5.36,19.65H1.19A1.19,1.19,0,0,0,0,20.84V25A1.19,1.19,0,0,0,1.19,26.2H5.36A1.19,1.19,0,0,0,6.55,25V20.84A1.19,1.19,0,0,0,5.36,19.65Z"/><path d="M4.26,6.55h1.1A1.19,1.19,0,0,0,6.55,5.36V1.19A1.19,1.19,0,0,0,5.36,0H1.19A1.19,1.19,0,0,0,0,1.19V5.36A1.19,1.19,0,0,0,1.19,6.55H4.26Z"/><path d="M21.14,6.55h4.17A1.19,1.19,0,0,0,26.5,5.36V1.19A1.19,1.19,0,0,0,25.31,0H21.14A1.19,1.19,0,0,0,20,1.19V5.36A1.19,1.19,0,0,0,21.14,6.55Z"/><path d="M25.31,19.65H21.14A1.19,1.19,0,0,0,20,20.84V25a1.19,1.19,0,0,0,1.19,1.19h4.17A1.19,1.19,0,0,0,26.5,25V20.84A1.19,1.19,0,0,0,25.31,19.65Z"/><path d="M55.11,34.91a6.39,6.39,0,0,1,6.39,6.38V55.52a6.4,6.4,0,0,1-6.39,6.39H40.89a6.4,6.4,0,0,1-6.39-6.39V41.29a6.39,6.39,0,0,1,6.39-6.38H55.11m0-2.5H40.89A8.89,8.89,0,0,0,32,41.29V55.52a8.89,8.89,0,0,0,8.89,8.89H55.11A8.89,8.89,0,0,0,64,55.52V41.29a8.89,8.89,0,0,0-8.89-8.88Z"/><polyline class="cls-2" points="55.26 44.71 48.03 52.1 40.74 44.77"/></svg>