<svg xmlns="http://www.w3.org/2000/svg" viewBox="0 0 64 64"><defs><style>.cls-1,.cls-2{fill:none;}.cls-2{stroke:red;stroke-miterlimit:10;stroke-width:3px;}</style></defs><g id="Warstwa_1" data-name="Warstwa 1"><rect class="cls-1" x="48.55" y="25.42" width="13" height="13" rx="2.5"/><rect class="cls-1" x="48.55" y="48.48" width="13" height="13" rx="2.5"/><rect class="cls-1" x="25.55" y="48.48" width="13" height="13" rx="2.5"/><path d="M39.66,53.22h1.39V51a5,5,0,0,0-5-5h-8a5,5,0,0,0-5,5v8a5,5,0,0,0,5,5h8a5,5,0,0,0,5-5V55.72H39.66ZM38.55,59a2.5,2.5,0,0,1-2.5,2.5h-8a2.5,2.5,0,0,1-2.5-2.5V51a2.5,2.5,0,0,1,2.5-2.5h8a2.5,2.5,0,0,1,2.5,2.5Z"/><path d="M55,47.32H53.78V46H51.05a5,5,0,0,0-5,5v2.24h1v1.25h0v1.25h-1V59a5,5,0,0,0,5,5h8a5,5,0,0,0,5-5V51a5,5,0,0,0-5-5H56.28v1.34ZM61.55,51v8a2.5,2.5,0,0,1-2.5,2.5h-8a2.5,2.5,0,0,1-2.5-2.5V51a2.5,2.5,0,0,1,2.5-2.5h8A2.5,2.5,0,0,1,61.55,51Z"/><path d="M55,39h1.25v1.94h2.77a5,5,0,0,0,5-5v-8a5,5,0,0,0-5-5h-8a5,5,0,0,0-5,5v8a5,5,0,0,0,5,5h2.73V39Zm-6.48-3.06v-8a2.51,2.51,0,0,1,2.5-2.5h8a2.51,2.51,0,0,1,2.5,2.5v8a2.5,2.5,0,0,1-2.5,2.5h-8A2.5,2.5,0,0,1,48.55,35.92Z"/><rect x="53.78" y="40.92" width="1.25" height="5.06"/><rect x="55.03" y="40.92" width="1.25" height="5.06"/><rect x="53.78" y="45.98" width="1.25" height="1.34"/><rect x="55.03" y="45.98" width="1.25" height="1.34"/><rect x="53.78" y="38.98" width="1.25" height="1.95"/><rect x="55.03" y="38.98" width="1.25" height="1.95"/><rect x="41.05" y="53.22" width="5" height="1.25"/><rect x="41.05" y="54.47" width="5" height="1.25"/><polygon points="39.66 54.48 41.05 54.48 41.05 53.22 39.66 53.22 39.66 55.72 41.05 55.72 41.05 54.48 39.66 54.48"/><rect x="46.05" y="53.22" width="1" height="1.25"/><rect x="46.05" y="54.47" width="1" height="1.25"/><polygon points="32.03 54.86 28.73 51.57 26.96 53.34 32.03 58.4 37.09 53.33 35.33 51.56 32.03 54.86"/><polygon points="55.05 55.45 51.76 52.16 49.99 53.93 55.05 58.99 60.12 53.92 58.35 52.15 55.05 55.45"/><polygon points="55.05 31.81 51.76 28.51 49.99 30.28 55.05 35.34 60.12 30.27 58.35 28.51 55.05 31.81"/><polygon class="cls-2" points="-924.11 -469.48 -599.62 -469.48 -599.62 -129.41 333.98 -121.33 333.98 -15.9 75.81 -15.8 75.81 160.66 -1020.47 160.66 -1021.92 -362.64 -1214.65 -364.18 -1214.65 -528.95 -924.11 -528.88 -924.11 -469.48"/><path d="M23.34,19.07a10.67,10.67,0,0,0,.15-10.26H21.54a2.33,2.33,0,0,1-2.32-2.33v-2h0a10.69,10.69,0,0,0-10.61.12h0v2A2.32,2.32,0,0,1,6.29,8.88H4.51a10.61,10.61,0,0,0,.32,10.41H6.41a2.33,2.33,0,0,1,2.33,2.32v1.51a10.64,10.64,0,0,0,10.64-.05V21.4a2.34,2.34,0,0,1,2.33-2.33Z"/><path d="M6.19,1.4A1.22,1.22,0,0,1,7.41,2.61v3.9A1.22,1.22,0,0,1,6.19,7.72H2.3A1.21,1.21,0,0,1,1.09,6.51V2.61A1.21,1.21,0,0,1,2.3,1.4H6.19m0-1.22H2.3A2.43,2.43,0,0,0-.13,2.61v3.9A2.43,2.43,0,0,0,2.3,8.94H6.19A2.43,2.43,0,0,0,8.63,6.51V2.61A2.43,2.43,0,0,0,6.19.18Z"/><path d="M25.41,1.28A1.22,1.22,0,0,1,26.63,2.5V6.39A1.22,1.22,0,0,1,25.41,7.6H21.52A1.22,1.22,0,0,1,20.3,6.39V2.5a1.22,1.22,0,0,1,1.22-1.22h3.89m0-1.22H21.52A2.43,2.43,0,0,0,19.09,2.5V6.39a2.43,2.43,0,0,0,2.43,2.43h3.89a2.43,2.43,0,0,0,2.43-2.43V2.5A2.43,2.43,0,0,0,25.41.06Z"/><path d="M6.35,20.49a1.22,1.22,0,0,1,1.22,1.22V25.6a1.22,1.22,0,0,1-1.22,1.21H2.46A1.22,1.22,0,0,1,1.24,25.6V21.71a1.22,1.22,0,0,1,1.22-1.22H6.35m0-1.22H2.46A2.43,2.43,0,0,0,0,21.71V25.6A2.43,2.43,0,0,0,2.46,28H6.35A2.43,2.43,0,0,0,8.78,25.6V21.71a2.43,2.43,0,0,0-2.43-2.44Z"/><path d="M25.69,20.12a1.22,1.22,0,0,1,1.22,1.22v3.89a1.22,1.22,0,0,1-1.22,1.22H21.8a1.22,1.22,0,0,1-1.21-1.22V21.34a1.22,1.22,0,0,1,1.21-1.22h3.89m0-1.21H21.8a2.43,2.43,0,0,0-2.43,2.43v3.89a2.43,2.43,0,0,0,2.43,2.43h3.89a2.43,2.43,0,0,0,2.44-2.43V21.34a2.43,2.43,0,0,0-2.44-2.43Z"/></g></svg>