<svg xmlns="http://www.w3.org/2000/svg" viewBox="0 0 64 64"><defs><style>.cls-1,.cls-2,.cls-3{fill:none;}.cls-2{stroke:red;stroke-width:3px;}.cls-2,.cls-3{stroke-miterlimit:10;}.cls-3{stroke:#000;stroke-width:2.5px;}</style></defs><g id="Warstwa_1" data-name="Warstwa 1"><rect class="cls-1" x="36.27" y="36.27" width="23.01" height="23.01" rx="4.43"/><polygon class="cls-2" points="-924.11 -469.48 -599.62 -469.48 -599.62 -129.41 333.98 -121.33 333.98 -15.9 75.81 -15.8 75.81 160.66 -1020.47 160.66 -1021.92 -362.64 -1214.65 -364.18 -1214.65 -528.95 -924.11 -528.88 -924.11 -469.48"/><path d="M21.78,17.92a9.72,9.72,0,0,0,.14-9.39H20.14A2.13,2.13,0,0,1,18,6.39V4.53h0a9.75,9.75,0,0,0-9.71.11h0V6.46A2.14,2.14,0,0,1,6.17,8.6H4.55a9.72,9.72,0,0,0,.28,9.52H6.28a2.13,2.13,0,0,1,2.13,2.13v1.38a9.76,9.76,0,0,0,9.75-.05V20.05a2.14,2.14,0,0,1,2.13-2.13Z"/><path d="M5.36,19.65H1.19A1.19,1.19,0,0,0,0,20.84V25A1.19,1.19,0,0,0,1.19,26.2H5.36A1.19,1.19,0,0,0,6.55,25V20.84A1.19,1.19,0,0,0,5.36,19.65Z"/><path d="M4.26,6.55h1.1A1.19,1.19,0,0,0,6.55,5.36V1.19A1.19,1.19,0,0,0,5.36,0H1.19A1.19,1.19,0,0,0,0,1.19V5.36A1.19,1.19,0,0,0,1.19,6.55H4.26Z"/><path d="M21.14,6.55h4.17A1.19,1.19,0,0,0,26.5,5.36V1.19A1.19,1.19,0,0,0,25.31,0H21.14A1.19,1.19,0,0,0,20,1.19V5.36A1.19,1.19,0,0,0,21.14,6.55Z"/><path d="M25.31,19.65H21.14A1.19,1.19,0,0,0,20,20.84V25a1.19,1.19,0,0,0,1.19,1.19h4.17A1.19,1.19,0,0,0,26.5,25V20.84A1.19,1.19,0,0,0,25.31,19.65Z"/><path d="M55.38,34.91a6.39,6.39,0,0,1,6.39,6.38V55.52a6.4,6.4,0,0,1-6.39,6.39H41.16a6.4,6.4,0,0,1-6.39-6.39V41.29a6.39,6.39,0,0,1,6.39-6.38H55.38m0-2.5H41.16a8.89,8.89,0,0,0-8.89,8.88V55.52a8.89,8.89,0,0,0,8.89,8.89H55.38a8.89,8.89,0,0,0,8.89-8.89V41.29a8.89,8.89,0,0,0-8.89-8.88Z"/><polyline class="cls-3" points="55.53 44.71 48.3 52.1 41.01 44.77"/></g></svg>