<svg id="Warstwa_1" data-name="Warstwa 1" xmlns="http://www.w3.org/2000/svg" viewBox="0 0 64 64"><path d="M57.13,4.94V34.13l-14-3.42V8.17l14-3.23m.57-1.4-.13,0L42.43,7.05a.77.77,0,0,0-.55.78V31a.78.78,0,0,0,.54.78l15.15,3.7a.3.3,0,0,0,.13,0h0a.59.59,0,0,0,.42-.18.85.85,0,0,0,.25-.62V4.34a.9.9,0,0,0-.24-.62.64.64,0,0,0-.44-.18Z"/><path d="M24.41,6,24,5.29l-.67.54a2.12,2.12,0,0,1-.61.37A2.43,2.43,0,0,1,19.8,2.51l.52-.69-.75-.42A13.57,13.57,0,0,0,16.2.08l-.84-.2-.09.85a2.41,2.41,0,0,1-1.48,2,2.43,2.43,0,0,1-3.18-1.3A2.69,2.69,0,0,1,10.45.8l-.12-.86L9.5.17A13.54,13.54,0,0,0,6.07,1.65l-.76.46.57.67a2.28,2.28,0,0,1,.4.65A2.43,2.43,0,0,1,2.51,6.25l-.69-.56-.44.77A13.56,13.56,0,0,0,0,10l-.2.84L.64,11a2.42,2.42,0,0,1,2,1.49,2.43,2.43,0,0,1-1.31,3.17,2.72,2.72,0,0,1-.62.17l-.87.11.24.84c.15.52.33,1,.53,1.54a14.83,14.83,0,0,0,.93,1.82l.47.78.68-.61A2.43,2.43,0,0,1,6.2,23.63l-.59.7.79.45a13.73,13.73,0,0,0,3.5,1.38l.87.21.06-.9a2.39,2.39,0,0,1,1.49-2.09,2.42,2.42,0,0,1,3.17,1.3,2.49,2.49,0,0,1,.18.7l.08.9.87-.24a14.38,14.38,0,0,0,1.56-.54,13.2,13.2,0,0,0,1.87-1l.75-.45-.56-.67a2.25,2.25,0,0,1-.38-.63,2.43,2.43,0,0,1,3.73-2.85l.69.54.42-.76a13.16,13.16,0,0,0,1.38-3.52l.2-.83-.85-.09a2.42,2.42,0,0,1-.67-4.65,2.38,2.38,0,0,1,.58-.16l.84-.13L26,9.52A13.67,13.67,0,0,0,25.41,8,12.28,12.28,0,0,0,24.41,6ZM15.1,18.09A5.39,5.39,0,1,1,18,11,5.4,5.4,0,0,1,15.1,18.09Z"/><path d="M23.32,34.5a6.4,6.4,0,0,1,6.39,6.39V55.11a6.4,6.4,0,0,1-6.39,6.39H9.1a6.4,6.4,0,0,1-6.39-6.39V40.89A6.4,6.4,0,0,1,9.1,34.5H23.32m0-2.5H9.1A8.89,8.89,0,0,0,.21,40.89V55.11A8.89,8.89,0,0,0,9.1,64H23.32a8.89,8.89,0,0,0,8.89-8.89V40.89A8.89,8.89,0,0,0,23.32,32Z"/><polyline points="57.13 4.94 57.13 34.13 43.13 30.71 43.13 8.17 57.13 4.94"/></svg>