<svg xmlns="http://www.w3.org/2000/svg" xmlns:xlink="http://www.w3.org/1999/xlink" viewBox="0 0 64 64"><defs><style>.cls-1{fill:url(#Gradient_bez_nazwy_2);}.cls-2,.cls-4{fill:none;}.cls-3{fill:url(#Gradient_bez_nazwy_2-2);}.cls-4{stroke:red;stroke-miterlimit:10;stroke-width:3px;}</style><linearGradient id="Gradient_bez_nazwy_2" x1="19.64" y1="31.73" x2="42.95" y2="8.99" gradientUnits="userSpaceOnUse"><stop offset="0.01" stop-color="#d7e1ed"/><stop offset="1" stop-color="#eaf0f9"/></linearGradient><linearGradient id="Gradient_bez_nazwy_2-2" x1="4.84" y1="73.81" x2="46.05" y2="33.61" xlink:href="#Gradient_bez_nazwy_2"/></defs><g id="Warstwa_1" data-name="Warstwa 1"><path class="cls-1" d="M31.29,34.06a13.71,13.71,0,1,0-9.65-4A13.63,13.63,0,0,0,31.29,34.06Z"/><path d="M31.29,36.64a16.29,16.29,0,1,0-11.46-4.72A16.24,16.24,0,0,0,31.29,36.64Zm0-30A13.73,13.73,0,0,1,45,20.36a13.71,13.71,0,0,1-27.42,0A13.73,13.73,0,0,1,31.29,6.65Z"/><path class="cls-2" d="M15.29,39c.53-.32,1.08-.62,1.64-.91C16.37,38.35,15.82,38.65,15.29,39Z"/><path class="cls-2" d="M13.73,40l1-.64Z"/><path class="cls-2" d="M47.65,39.9c.37.25.75.51,1.11.77C48.4,40.41,48,40.15,47.65,39.9Z"/><path class="cls-2" d="M45.25,38.42c.62.34,1.22.7,1.8,1.07C46.47,39.12,45.87,38.76,45.25,38.42Z"/><path class="cls-2" d="M8.64,44.31l.18-.2Z"/><path class="cls-2" d="M49.45,41.21c.31.24.61.49.91.75C50.06,41.7,49.76,41.45,49.45,41.21Z"/><path class="cls-2" d="M12.26,41q.4-.31.81-.6Q12.67,40.71,12.26,41Z"/><polygon class="cls-2" points="6.63 46.68 6.63 46.68 6.63 46.67 6.63 46.68"/><path class="cls-2" d="M9.62,43.32c.17-.17.34-.34.52-.5C10,43,9.79,43.15,9.62,43.32Z"/><path class="cls-2" d="M10.88,42.16l.67-.57Z"/><path class="cls-2" d="M32.12,2.35A29.49,29.49,0,0,0,5.33,44.19,32.93,32.93,0,0,1,17.47,35a18.63,18.63,0,0,0,27.32.35,33.07,33.07,0,0,1,13,11,29.47,29.47,0,0,0-25.68-44Z"/><path class="cls-2" d="M54,45.58c.2.23.38.47.57.71C54.34,46.05,54.16,45.81,54,45.58Z"/><path class="cls-2" d="M52.58,44c.23.24.46.49.68.74C53,44.53,52.81,44.28,52.58,44Z"/><path class="cls-2" d="M51.08,42.58l.79.75Z"/><path class="cls-3" d="M32.12,61.35A29.45,29.45,0,0,0,56.28,48.73c-.54-.84-1.13-1.65-1.75-2.44-.19-.24-.37-.48-.57-.71s-.46-.53-.7-.8-.45-.5-.68-.74-.47-.48-.71-.71l-.79-.75c-.24-.21-.47-.42-.72-.62s-.6-.51-.91-.75l-.69-.54c-.36-.26-.74-.52-1.11-.77-.2-.14-.39-.28-.6-.41-.58-.37-1.18-.73-1.8-1.07a21,21,0,0,1-14,5.25,21.26,21.26,0,0,1-14.36-5.61c-.56.29-1.11.59-1.64.91l-.56.35-1,.64-.66.47q-.4.28-.81.6l-.71.56-.67.57c-.25.21-.5.43-.74.66s-.35.33-.52.5-.54.52-.8.79l-.18.2c-.71.76-1.38,1.54-2,2.36h0A29.52,29.52,0,0,0,32.12,61.35Z"/><path d="M32.12-.15a32,32,0,1,0,32,32A32,32,0,0,0,32.12-.15ZM55.35,47.38c.17.23.33.46.49.7l.33.48.11.18A29.47,29.47,0,0,1,6.63,46.68h0c.63-.82,1.3-1.6,2-2.36l.18-.2c.26-.27.53-.53.8-.79s.34-.34.52-.5.49-.45.74-.66l.67-.57.71-.56q.4-.31.81-.6l.66-.47,1-.64.56-.35c.53-.32,1.08-.62,1.64-.91a21.26,21.26,0,0,0,14.36,5.61,21,21,0,0,0,14-5.25c.62.34,1.22.7,1.8,1.07.21.13.4.27.6.41.37.25.75.51,1.11.77l.69.54c.31.24.61.49.91.75s.48.41.72.62l.79.75c.24.23.48.47.71.71s.46.49.68.74.48.53.7.8.38.47.57.71S55.08,47,55.35,47.38ZM44.79,35.3A18.63,18.63,0,0,1,17.47,35,32.93,32.93,0,0,0,5.33,44.19,29.5,29.5,0,1,1,61.62,31.85,29.34,29.34,0,0,1,57.8,46.33,33.07,33.07,0,0,0,44.79,35.3Z"/><path d="M10.14,42.82c.24-.23.49-.45.74-.66C10.63,42.37,10.38,42.59,10.14,42.82Z"/><path d="M50.36,42c.25.2.48.41.72.62C50.84,42.37,50.61,42.16,50.36,42Z"/><path d="M8.82,44.11c.26-.27.53-.53.8-.79C9.35,43.58,9.08,43.84,8.82,44.11Z"/><path d="M6.63,46.67c.63-.82,1.3-1.6,2-2.36C7.93,45.07,7.26,45.85,6.63,46.67Z"/><path d="M47.05,39.49c.21.13.4.27.6.41C47.45,39.76,47.26,39.62,47.05,39.49Z"/><path d="M51.87,43.33c.24.23.48.47.71.71C52.35,43.8,52.11,43.56,51.87,43.33Z"/><path d="M48.76,40.67l.69.54Z"/><path d="M13.07,40.43l.66-.47Z"/><path d="M11.55,41.59l.71-.56Z"/><path d="M53.26,44.78c.24.27.48.53.7.8C53.74,45.31,53.5,45.05,53.26,44.78Z"/><path d="M14.73,39.32l.56-.35Z"/><polygon class="cls-4" points="-756.11 -469.48 -431.62 -469.48 -431.62 -129.41 501.98 -121.33 501.98 -15.9 243.81 -15.8 243.81 160.66 -852.47 160.66 -853.92 -362.64 -1046.65 -364.18 -1046.65 -528.95 -756.11 -528.88 -756.11 -469.48"/></g></svg>