<svg xmlns="http://www.w3.org/2000/svg" viewBox="0 0 64 64"><defs><style>.cls-1{fill:none;stroke:red;stroke-miterlimit:10;stroke-width:3px;}.cls-2{fill:#999;}</style></defs><g id="nazwy"><polygon class="cls-1" points="-420.11 -469.48 -95.62 -469.48 -95.62 -129.41 837.98 -121.33 837.98 -15.9 838.82 160.66 579.81 160.66 -516.47 160.66 -517.92 -362.64 -710.65 -364.18 -710.65 -528.95 -420.11 -528.88 -420.11 -469.48"/></g><g id="Warstwa_1" data-name="Warstwa 1"><rect class="cls-2" x="2.5" y="48.5" width="13" height="13" rx="2.5"/><path d="M13,46H5a5,5,0,0,0-5,5v8a5,5,0,0,0,5,5h8a5,5,0,0,0,5-5V51A5,5,0,0,0,13,46Zm2.5,13A2.5,2.5,0,0,1,13,61.5H5A2.5,2.5,0,0,1,2.5,59V51A2.5,2.5,0,0,1,5,48.5h8A2.5,2.5,0,0,1,15.5,51Z"/><rect class="cls-2" x="48.5" y="48.5" width="13" height="13" rx="2.5"/><path d="M59,46H51a5,5,0,0,0-5,5v8a5,5,0,0,0,5,5h8a5,5,0,0,0,5-5V51A5,5,0,0,0,59,46Zm2.5,13A2.5,2.5,0,0,1,59,61.5H51A2.5,2.5,0,0,1,48.5,59V51A2.5,2.5,0,0,1,51,48.5h8A2.5,2.5,0,0,1,61.5,51Z"/><rect class="cls-2" x="25.5" y="48.5" width="13" height="13" rx="2.5"/><path d="M36,46H28a5,5,0,0,0-5,5v8a5,5,0,0,0,5,5h8a5,5,0,0,0,5-5V51A5,5,0,0,0,36,46Zm2.5,13A2.5,2.5,0,0,1,36,61.5H28A2.5,2.5,0,0,1,25.5,59V51A2.5,2.5,0,0,1,28,48.5h8A2.5,2.5,0,0,1,38.5,51Z"/><rect class="cls-2" x="48.5" y="25.44" width="13" height="13" rx="2.5"/><path d="M59,22.94H51a5,5,0,0,0-5,5v8a5,5,0,0,0,5,5h8a5,5,0,0,0,5-5v-8A5,5,0,0,0,59,22.94Zm2.5,13a2.5,2.5,0,0,1-2.5,2.5H51a2.5,2.5,0,0,1-2.5-2.5v-8a2.51,2.51,0,0,1,2.5-2.5h8a2.51,2.51,0,0,1,2.5,2.5Z"/><rect class="cls-2" x="2.5" y="25.44" width="13" height="13" rx="2.5"/><path d="M13,22.94H5a5,5,0,0,0-5,5v8a5,5,0,0,0,5,5h8a5,5,0,0,0,5-5v-8A5,5,0,0,0,13,22.94Zm2.5,13a2.5,2.5,0,0,1-2.5,2.5H5a2.5,2.5,0,0,1-2.5-2.5v-8A2.51,2.51,0,0,1,5,25.44h8a2.51,2.51,0,0,1,2.5,2.5Z"/><rect class="cls-2" x="25.5" y="25.44" width="13" height="13" rx="2.5"/><path d="M36,22.94H28a5,5,0,0,0-5,5v8a5,5,0,0,0,5,5h8a5,5,0,0,0,5-5v-8A5,5,0,0,0,36,22.94Zm2.5,13a2.5,2.5,0,0,1-2.5,2.5H28a2.5,2.5,0,0,1-2.5-2.5v-8a2.51,2.51,0,0,1,2.5-2.5h8a2.51,2.51,0,0,1,2.5,2.5Z"/><rect class="cls-2" width="64" height="18" rx="5"/><path d="M59,2.5A2.5,2.5,0,0,1,61.5,5v8A2.5,2.5,0,0,1,59,15.5H5A2.5,2.5,0,0,1,2.5,13V5A2.5,2.5,0,0,1,5,2.5H59M59,0H5A5,5,0,0,0,0,5v8a5,5,0,0,0,5,5H59a5,5,0,0,0,5-5V5a5,5,0,0,0-5-5Z"/></g></svg>