<svg id="Warstwa_1" data-name="Warstwa 1" xmlns="http://www.w3.org/2000/svg" xmlns:xlink="http://www.w3.org/1999/xlink" viewBox="0 0 64 64"><defs><style>.cls-1{fill:url(#Gradient_bez_nazwy_2);}.cls-2{fill:url(#Gradient_bez_nazwy_2-2);}.cls-3{fill:url(#Gradient_bez_nazwy_2-3);}.cls-4{fill:url(#Gradient_bez_nazwy_2-4);}.cls-5{fill:url(#Gradient_bez_nazwy_2-5);}.cls-6{fill:url(#Gradient_bez_nazwy_2-6);}.cls-7{fill:url(#Gradient_bez_nazwy_2-7);}</style><linearGradient id="Gradient_bez_nazwy_2" x1="2.7" y1="61.14" x2="60.84" y2="4.44" gradientUnits="userSpaceOnUse"><stop offset="0.01" stop-color="#d7e1ed"/><stop offset="1" stop-color="#eaf0f9"/></linearGradient><linearGradient id="Gradient_bez_nazwy_2-2" x1="25.5" y1="83.78" x2="83.63" y2="27.07" xlink:href="#Gradient_bez_nazwy_2"/><linearGradient id="Gradient_bez_nazwy_2-3" x1="14.1" y1="72.46" x2="72.24" y2="15.76" xlink:href="#Gradient_bez_nazwy_2"/><linearGradient id="Gradient_bez_nazwy_2-4" x1="13.79" y1="72.14" x2="71.92" y2="15.44" xlink:href="#Gradient_bez_nazwy_2"/><linearGradient id="Gradient_bez_nazwy_2-5" x1="-9.01" y1="49.51" x2="49.13" y2="-7.2" xlink:href="#Gradient_bez_nazwy_2"/><linearGradient id="Gradient_bez_nazwy_2-6" x1="2.39" y1="60.83" x2="60.53" y2="4.12" xlink:href="#Gradient_bez_nazwy_2"/><linearGradient id="Gradient_bez_nazwy_2-7" x1="0" y1="9" x2="64" y2="9" xlink:href="#Gradient_bez_nazwy_2"/></defs><rect class="cls-1" x="2.5" y="48.5" width="13" height="13" rx="2.5"/><path d="M13,46H5a5,5,0,0,0-5,5v8a5,5,0,0,0,5,5h8a5,5,0,0,0,5-5V51A5,5,0,0,0,13,46Zm2.5,13A2.5,2.5,0,0,1,13,61.5H5A2.5,2.5,0,0,1,2.5,59V51A2.5,2.5,0,0,1,5,48.5h8A2.5,2.5,0,0,1,15.5,51Z"/><rect class="cls-2" x="48.5" y="48.5" width="13" height="13" rx="2.5"/><path d="M59,46H51a5,5,0,0,0-5,5v8a5,5,0,0,0,5,5h8a5,5,0,0,0,5-5V51A5,5,0,0,0,59,46Zm2.5,13A2.5,2.5,0,0,1,59,61.5H51A2.5,2.5,0,0,1,48.5,59V51A2.5,2.5,0,0,1,51,48.5h8A2.5,2.5,0,0,1,61.5,51Z"/><rect class="cls-3" x="25.5" y="48.5" width="13" height="13" rx="2.5"/><path d="M36,46H28a5,5,0,0,0-5,5v8a5,5,0,0,0,5,5h8a5,5,0,0,0,5-5V51A5,5,0,0,0,36,46Zm2.5,13A2.5,2.5,0,0,1,36,61.5H28A2.5,2.5,0,0,1,25.5,59V51A2.5,2.5,0,0,1,28,48.5h8A2.5,2.5,0,0,1,38.5,51Z"/><rect class="cls-4" x="48.5" y="25.44" width="13" height="13" rx="2.5"/><path d="M59,22.94H51a5,5,0,0,0-5,5v8a5,5,0,0,0,5,5h8a5,5,0,0,0,5-5v-8A5,5,0,0,0,59,22.94Zm2.5,13a2.5,2.5,0,0,1-2.5,2.5H51a2.5,2.5,0,0,1-2.5-2.5v-8a2.51,2.51,0,0,1,2.5-2.5h8a2.51,2.51,0,0,1,2.5,2.5Z"/><rect class="cls-5" x="2.5" y="25.44" width="13" height="13" rx="2.5"/><path d="M13,22.94H5a5,5,0,0,0-5,5v8a5,5,0,0,0,5,5h8a5,5,0,0,0,5-5v-8A5,5,0,0,0,13,22.94Zm2.5,13a2.5,2.5,0,0,1-2.5,2.5H5a2.5,2.5,0,0,1-2.5-2.5v-8A2.51,2.51,0,0,1,5,25.44h8a2.51,2.51,0,0,1,2.5,2.5Z"/><rect class="cls-6" x="25.5" y="25.44" width="13" height="13" rx="2.5"/><path d="M36,22.94H28a5,5,0,0,0-5,5v8a5,5,0,0,0,5,5h8a5,5,0,0,0,5-5v-8A5,5,0,0,0,36,22.94Zm2.5,13a2.5,2.5,0,0,1-2.5,2.5H28a2.5,2.5,0,0,1-2.5-2.5v-8a2.51,2.51,0,0,1,2.5-2.5h8a2.51,2.51,0,0,1,2.5,2.5Z"/><rect class="cls-7" width="64" height="18" rx="5"/><path d="M59,2.5A2.5,2.5,0,0,1,61.5,5v8A2.5,2.5,0,0,1,59,15.5H5A2.5,2.5,0,0,1,2.5,13V5A2.5,2.5,0,0,1,5,2.5H59M59,0H5A5,5,0,0,0,0,5v8a5,5,0,0,0,5,5H59a5,5,0,0,0,5-5V5a5,5,0,0,0-5-5Z"/></svg>