<svg xmlns="http://www.w3.org/2000/svg" xmlns:xlink="http://www.w3.org/1999/xlink" viewBox="0 0 64 64"><defs><style>.cls-1{fill:url(#Gradient_bez_nazwy_2);}.cls-2{fill:none;stroke:red;stroke-miterlimit:10;stroke-width:3px;}</style><linearGradient id="Gradient_bez_nazwy_2" x1="9.51" y1="39.95" x2="60.37" y2="16.21" gradientUnits="userSpaceOnUse"><stop offset="0.01" stop-color="#d7e1ed"/><stop offset="1" stop-color="#eaf0f9"/></linearGradient></defs><g id="Warstwa_1" data-name="Warstwa 1"><path class="cls-1" d="M50.21,2.5H13.79A11.3,11.3,0,0,0,2.5,13.79V28.48A11.3,11.3,0,0,0,13.79,39.77h32.1l.68.55,14.93,12V28.78c0-.1,0-.2,0-.3V13.79A11.3,11.3,0,0,0,50.21,2.5Z"/><path d="M64,13.79A13.81,13.81,0,0,0,50.21,0H13.79A13.81,13.81,0,0,0,0,13.79V28.48A13.81,13.81,0,0,0,13.79,42.27H45L64,57.52V28.89c0-.13,0-.27,0-.41ZM61.5,28.48c0,.1,0,.2,0,.3V52.3l-14.93-12-.68-.55H13.79A11.3,11.3,0,0,1,2.5,28.48V13.79A11.3,11.3,0,0,1,13.79,2.5H50.21A11.3,11.3,0,0,1,61.5,13.79Z"/><polygon class="cls-2" points="-672.11 -469.48 -347.62 -469.48 -347.62 -129.41 585.98 -121.33 585.98 -15.9 327.81 -15.8 327.81 160.66 -768.47 160.66 -769.92 -362.64 -962.65 -364.18 -962.65 -528.95 -672.11 -528.88 -672.11 -469.48"/></g></svg>