<svg id="Warstwa_1" data-name="Warstwa 1" xmlns="http://www.w3.org/2000/svg" xmlns:xlink="http://www.w3.org/1999/xlink" viewBox="0 0 64 64"><defs><style>.cls-1{fill:none;}.cls-2{fill:url(#Gradient_bez_nazwy_2);}.cls-3{fill:url(#Gradient_bez_nazwy_2-2);}</style><linearGradient id="Gradient_bez_nazwy_2" x1="5.83" y1="8" x2="57.88" y2="8" gradientUnits="userSpaceOnUse"><stop offset="0.01" stop-color="#d7e1ed"/><stop offset="1" stop-color="#eaf0f9"/></linearGradient><linearGradient id="Gradient_bez_nazwy_2-2" x1="9.67" y1="41.79" x2="53.75" y2="41.79" xlink:href="#Gradient_bez_nazwy_2"/></defs><path class="cls-1" d="M19.76,55.06a2,2,0,0,0,2-2V30.5a2,2,0,0,0-4,0V53.07A2,2,0,0,0,19.76,55.06Z"/><path class="cls-1" d="M31.78,55.06a2,2,0,0,0,2-2V30.5a2,2,0,0,0-4,0V53.07A2,2,0,0,0,31.78,55.06Z"/><path class="cls-1" d="M43.65,55.06a2,2,0,0,0,2-2V30.5a2,2,0,0,0-4,0V53.07A2,2,0,0,0,43.65,55.06Z"/><path class="cls-2" d="M54.89,10.5H34.54l.91-3.18a3.86,3.86,0,0,0,.15-1.05,3.82,3.82,0,0,0-7.63,0,3.86,3.86,0,0,0,.15,1.05L29,10.5H8.82a.49.49,0,0,0-.49.49v2.07a.49.49,0,0,0,.49.49H54.89a.49.49,0,0,0,.49-.49V11A.49.49,0,0,0,54.89,10.5Z"/><path d="M54.89,8h-17a6.18,6.18,0,0,0,.25-1.73,6.32,6.32,0,0,0-12.63,0A6.18,6.18,0,0,0,25.72,8H8.82a3,3,0,0,0-3,3v2.07a3,3,0,0,0,3,3H54.89a3,3,0,0,0,3-3V11A3,3,0,0,0,54.89,8Zm.49,5.06a.49.49,0,0,1-.49.49H8.82a.49.49,0,0,1-.49-.49V11a.49.49,0,0,1,.49-.49H29l-.91-3.18A3.86,3.86,0,0,1,28,6.27a3.82,3.82,0,0,1,7.63,0,3.86,3.86,0,0,1-.15,1.05l-.91,3.18H54.89a.49.49,0,0,1,.49.49Z"/><path class="cls-1" d="M43.65,55.06a2,2,0,0,0,2-2V30.5a2,2,0,0,0-4,0V53.07A2,2,0,0,0,43.65,55.06Z"/><path class="cls-1" d="M19.76,55.06a2,2,0,0,0,2-2V30.5a2,2,0,0,0-4,0V53.07A2,2,0,0,0,19.76,55.06Z"/><path class="cls-1" d="M31.78,55.06a2,2,0,0,0,2-2V30.5a2,2,0,0,0-4,0V53.07A2,2,0,0,0,31.78,55.06Z"/><path class="cls-3" d="M12.17,54.86a6.48,6.48,0,0,0,6.47,6.47H44.78a6.49,6.49,0,0,0,6.47-6.47V22.25H12.17Zm27-24.36a4.49,4.49,0,0,1,9,0V53.07a4.49,4.49,0,0,1-9,0Zm-11.87,0a4.5,4.5,0,0,1,9,0V53.07a4.5,4.5,0,0,1-9,0Zm-12,0a4.49,4.49,0,1,1,9,0V53.07a4.49,4.49,0,1,1-9,0Z"/><path d="M43.65,57.56a4.5,4.5,0,0,0,4.49-4.49V30.5a4.49,4.49,0,0,0-9,0V53.07A4.5,4.5,0,0,0,43.65,57.56Zm-2-27.06a2,2,0,0,1,4,0V53.07a2,2,0,0,1-4,0Z"/><path d="M9.67,19.75V54.86a9,9,0,0,0,9,9H44.78a9,9,0,0,0,9-9V19.75ZM51.25,54.86a6.49,6.49,0,0,1-6.47,6.47H18.64a6.48,6.48,0,0,1-6.47-6.47V22.25H51.25Z"/><path d="M19.76,57.56a4.5,4.5,0,0,0,4.49-4.49V30.5a4.49,4.49,0,1,0-9,0V53.07A4.5,4.5,0,0,0,19.76,57.56Zm-2-27.06a2,2,0,0,1,4,0V53.07a2,2,0,1,1-4,0Z"/><path d="M31.78,57.56a4.5,4.5,0,0,0,4.5-4.49V30.5a4.5,4.5,0,0,0-9,0V53.07A4.5,4.5,0,0,0,31.78,57.56Zm-2-27.06a2,2,0,0,1,4,0V53.07a2,2,0,0,1-4,0Z"/></svg>