<svg xmlns="http://www.w3.org/2000/svg" xmlns:xlink="http://www.w3.org/1999/xlink" viewBox="0 0 64 64"><defs><style>.cls-1,.cls-3{fill:none;}.cls-1{stroke:red;stroke-miterlimit:10;stroke-width:3px;}.cls-2{fill:#fff;}.cls-4{fill:url(#Gradient_bez_nazwy_2);}</style><linearGradient id="Gradient_bez_nazwy_2" x1="9554.27" y1="-1486.4" x2="9582.2" y2="-1486.4" gradientTransform="translate(9584.66 -1427.72) rotate(180)" gradientUnits="userSpaceOnUse"><stop offset="0.01" stop-color="#d7e1ed"/><stop offset="1" stop-color="#eaf0f9"/></linearGradient></defs><g id="nazwy"><polygon class="cls-1" points="-0.11 -469.48 324.38 -469.48 324.38 -129.41 1257.97 -121.33 2885.01 -128.81 2885.01 162.72 999.81 160.66 -96.47 160.66 -97.92 -362.64 -290.65 -364.18 -290.65 -528.95 -0.11 -528.88 -0.11 -469.48"/></g><g id="Warstwa_1" data-name="Warstwa 1"><path class="cls-2" d="M61.42,20.89c0,2.4-2.36,4.36-5.27,4.36l-25.74.13H25.59c-2.91,0-5.27-2-5.27-4.36V7s0-.06,0-.09a3.84,3.84,0,0,1,.88-2.33,5.6,5.6,0,0,1,4.38-1.94H56.31a5.89,5.89,0,0,1,3.63,1.21,4,4,0,0,1,1.48,3Z"/><path d="M30.21,15.67H27V13.61h3.26a2.61,2.61,0,0,0,1.23-.25,1.54,1.54,0,0,0,.69-.69,2.25,2.25,0,0,0,.22-1,2.52,2.52,0,0,0-.22-1.06,1.76,1.76,0,0,0-.69-.79,2.29,2.29,0,0,0-1.23-.3H27.86V20.23H25.22V7.44h5A5.71,5.71,0,0,1,32.79,8a3.89,3.89,0,0,1,1.64,1.49A4,4,0,0,1,35,11.64a3.85,3.85,0,0,1-.58,2.14,3.71,3.71,0,0,1-1.64,1.4A6.16,6.16,0,0,1,30.21,15.67Z"/><path d="M39.46,7.44V20.23H36.83V7.44Zm1.29,12.79H38l0-2.05h2.76a3.11,3.11,0,0,0,1.75-.47,2.9,2.9,0,0,0,1.08-1.38,5.91,5.91,0,0,0,.36-2.19v-.62a6.38,6.38,0,0,0-.2-1.73,3.53,3.53,0,0,0-.61-1.26,2.52,2.52,0,0,0-1-.77,3.35,3.35,0,0,0-1.35-.26H37.92V7.44h2.86a6.15,6.15,0,0,1,2.35.43A5.48,5.48,0,0,1,45,9.11,5.64,5.64,0,0,1,46.19,11a7.09,7.09,0,0,1,.43,2.5v.6a7.07,7.07,0,0,1-.43,2.49A5.68,5.68,0,0,1,45,18.56a5.42,5.42,0,0,1-1.86,1.24A6.3,6.3,0,0,1,40.75,20.23Z"/><path d="M51.16,7.44V20.23H48.52V7.44Zm5.71,0V9.5H50.44V7.44Zm-.61,5.46V15H50.44V12.9Z"/><polygon class="cls-3" points="30.67 54.36 20.14 57.05 30.68 54.47 30.68 27.88 30.67 27.88 30.67 54.36"/><polygon class="cls-3" points="48.77 53.23 56.33 40.13 41.2 40.13 48.77 53.23"/><path d="M58.41,37.73H39.12a1.2,1.2,0,0,0-1,1.8l9.64,16.7a1.2,1.2,0,0,0,1,.6,1.21,1.21,0,0,0,1-.6l9.64-16.7a1.22,1.22,0,0,0,0-1.2A1.18,1.18,0,0,0,58.41,37.73Zm-9.64,15.5L41.2,40.13H56.33Z"/><polygon class="cls-3" points="23.75 55.96 30.42 54.33 30.42 27.88 30.39 27.88 30.39 54.27 23.75 55.96"/><polygon class="cls-3" points="2.43 2.8 2.42 2.8 2.42 61.18 2.43 61.18 2.43 61.35 2.46 61.35 2.46 2.81 2.43 2.8"/><path class="cls-2" d="M17.82,21V7c0-.21,0-.42,0-.63l-.17,0L2.46,2.81V61.35l17.42-4.44L23.75,56l6.63-1.69V27.88H25.59C21.3,27.88,17.82,24.81,17.82,21Z"/><polygon points="2.46 61.35 2.46 61.4 23.75 55.96 19.89 56.91 2.46 61.35"/><polygon class="cls-4" points="2.46 61.35 2.46 61.4 23.75 55.96 19.89 56.91 2.46 61.35"/><path d="M61.66,2a8.3,8.3,0,0,0-5.51-2H25.43a7.92,7.92,0,0,0-7,3.92L1.54,0,1.28,0A1.3,1.3,0,0,0,.41.36,1.75,1.75,0,0,0-.08,1.6V62.4a1.7,1.7,0,0,0,.5,1.24,1.25,1.25,0,0,0,.85.36h0a1.27,1.27,0,0,0,.28,0l30.29-7.41A1.57,1.57,0,0,0,32.92,55V27.88H56.31c4.29,0,7.77-3.07,7.77-6.86V7A6.48,6.48,0,0,0,61.66,2ZM30.42,54.33,23.75,56,2.46,61.4v0h0v-.18h0V2.8h0L17.69,6.32l.17,0c0,.21,0,.42,0,.63V21c0,3.79,3.48,6.86,7.77,6.86h4.83Zm31-33.44c0,2.4-2.36,4.36-5.27,4.36l-25.74.13H25.59c-2.91,0-5.27-2-5.27-4.36V7s0-.06,0-.09a3.84,3.84,0,0,1,.88-2.33,5.6,5.6,0,0,1,4.38-1.94H56.31a5.89,5.89,0,0,1,3.63,1.21,4,4,0,0,1,1.48,3Z"/></g></svg>