<svg xmlns="http://www.w3.org/2000/svg" xmlns:xlink="http://www.w3.org/1999/xlink" viewBox="0 0 64 64"><defs><style>.cls-1,.cls-3{fill:none;}.cls-1{stroke:red;stroke-miterlimit:10;stroke-width:3px;}.cls-2{fill:#fff;}.cls-4{fill:url(#Gradient_bez_nazwy_2);}</style><linearGradient id="Gradient_bez_nazwy_2" x1="9722.27" y1="-1486.35" x2="9750.2" y2="-1486.35" gradientTransform="translate(9752.66 -1427.72) rotate(180)" gradientUnits="userSpaceOnUse"><stop offset="0.01" stop-color="#d7e1ed"/><stop offset="1" stop-color="#eaf0f9"/></linearGradient></defs><g id="nazwy"><polygon class="cls-1" points="83.89 -469.48 408.38 -469.48 408.38 -129.41 1341.97 -121.33 2969.01 -128.81 2969.01 162.72 1083.81 160.66 -12.47 160.66 -13.93 -362.64 -206.65 -364.18 -206.65 -528.95 83.89 -528.88 83.89 -469.48"/></g><g id="Warstwa_1" data-name="Warstwa 1"><path class="cls-2" d="M61.42,20.84c0,2.41-2.36,4.36-5.27,4.36l-25.74.13H25.59c-2.91,0-5.27-1.95-5.27-4.36v-14s0-.05,0-.08a3.84,3.84,0,0,1,.88-2.33,5.6,5.6,0,0,1,4.38-1.94H56.31A5.83,5.83,0,0,1,59.94,3.8a4,4,0,0,1,1.48,3Z"/><polygon class="cls-3" points="30.49 54.23 19.96 56.91 30.5 54.33 30.5 27.75 30.49 27.75 30.49 54.23"/><polygon class="cls-3" points="48.59 53.09 56.16 39.99 41.03 39.99 48.59 53.09"/><polygon class="cls-3" points="2.5 2.8 2.5 61.18 2.51 61.18 2.51 2.8 2.5 2.8"/><path d="M58.24,37.59H39a1.2,1.2,0,0,0-1,.6,1.22,1.22,0,0,0,0,1.2l9.64,16.7a1.21,1.21,0,0,0,1,.6,1.2,1.2,0,0,0,1-.6l9.64-16.7a1.2,1.2,0,0,0,0-1.2A1.22,1.22,0,0,0,58.24,37.59Zm-9.65,15.5L41,40H56.16Z"/><polygon class="cls-3" points="23.75 55.92 30.42 54.29 30.42 27.83 30.39 27.83 30.39 54.23 23.75 55.92"/><polygon class="cls-3" points="2.43 2.76 2.42 2.75 2.42 61.14 2.43 61.13 2.43 61.31 2.46 61.3 2.46 2.76 2.43 2.76"/><path class="cls-2" d="M17.82,21v-14c0-.21,0-.42,0-.62l-.17,0L2.46,2.76V61.31l17.42-4.45,3.87-.94,6.63-1.69V27.83H25.59C21.3,27.83,17.82,24.76,17.82,21Z"/><polygon points="2.46 61.3 2.46 61.35 23.75 55.92 19.89 56.87 2.46 61.3"/><polygon class="cls-4" points="2.46 61.3 2.46 61.35 23.75 55.92 19.89 56.87 2.46 61.3"/><path d="M61.66,2a8.3,8.3,0,0,0-5.51-2H25.43a7.9,7.9,0,0,0-7,3.92L1.54,0,1.28,0A1.25,1.25,0,0,0,.41.32,1.73,1.73,0,0,0-.08,1.55V62.36a1.72,1.72,0,0,0,.5,1.24,1.25,1.25,0,0,0,.85.36h0a.86.86,0,0,0,.28,0l30.29-7.41A1.55,1.55,0,0,0,32.92,55V27.83H56.31c4.29,0,7.77-3.07,7.77-6.86v-14A6.48,6.48,0,0,0,61.66,2ZM30.42,54.29l-6.67,1.63L2.46,61.36v0h0v-.18h0V2.76h0L17.69,6.28l.17,0c0,.2,0,.41,0,.62V21c0,3.79,3.48,6.86,7.77,6.86h4.83Zm31-33.45c0,2.41-2.36,4.36-5.27,4.36l-25.74.13H25.59c-2.91,0-5.27-1.95-5.27-4.36v-14s0-.05,0-.08a3.84,3.84,0,0,1,.88-2.33,5.6,5.6,0,0,1,4.38-1.94H56.31A5.83,5.83,0,0,1,59.94,3.8a4,4,0,0,1,1.48,3Z"/><path d="M28.55,7.32,31,11.78l2.4-4.46h3l-3.72,6.34,3.81,6.45h-3L31,15.56l-2.48,4.55H25.42l3.82-6.45L25.51,7.32Z"/><path d="M40.44,7.32V20.11H37.8V7.32ZM46,18.06v2.05H39.59V18.06Z"/><path d="M54.2,16.77a1.72,1.72,0,0,0-.1-.62,1.2,1.2,0,0,0-.37-.51,3.12,3.12,0,0,0-.77-.46,9.07,9.07,0,0,0-1.27-.48q-.87-.29-1.65-.63a6.72,6.72,0,0,1-1.37-.82,3.46,3.46,0,0,1-.93-1.1,2.93,2.93,0,0,1-.34-1.45,3,3,0,0,1,.35-1.45,3.43,3.43,0,0,1,1-1.13,4.8,4.8,0,0,1,1.49-.72,6.78,6.78,0,0,1,1.91-.26,5.65,5.65,0,0,1,2.47.51,4,4,0,0,1,1.64,1.4,3.6,3.6,0,0,1,.58,2H54.21a2.1,2.1,0,0,0-.23-1,1.65,1.65,0,0,0-.71-.67,2.43,2.43,0,0,0-1.18-.25A2.73,2.73,0,0,0,51,9.38a1.67,1.67,0,0,0-.69.55,1.39,1.39,0,0,0-.22.78,1.09,1.09,0,0,0,.16.59,1.63,1.63,0,0,0,.49.49,3.94,3.94,0,0,0,.8.43,10.22,10.22,0,0,0,1.09.4,12.15,12.15,0,0,1,1.85.71,5.61,5.61,0,0,1,1.33.89,3.45,3.45,0,0,1,.81,1.11,3.56,3.56,0,0,1,.27,1.42,3.27,3.27,0,0,1-.33,1.49,3.05,3.05,0,0,1-.94,1.12,4.39,4.39,0,0,1-1.46.69,7.08,7.08,0,0,1-1.91.24A7,7,0,0,1,50.33,20a5.58,5.58,0,0,1-1.68-.76,3.83,3.83,0,0,1-1.2-1.3A3.72,3.72,0,0,1,47,16.11h2.65a2.53,2.53,0,0,0,.18,1,1.76,1.76,0,0,0,.53.67,2,2,0,0,0,.81.36,4.1,4.1,0,0,0,1,.12,3,3,0,0,0,1.13-.19,1.49,1.49,0,0,0,.66-.54A1.46,1.46,0,0,0,54.2,16.77Z"/></g></svg>