<svg xmlns="http://www.w3.org/2000/svg" viewBox="0 0 64 64"><defs><style>.cls-1{fill:#999;}.cls-2{fill:none;stroke:red;stroke-miterlimit:10;stroke-width:3px;}</style></defs><g id="czarne_lot" data-name="czarne lot"><rect class="cls-1" x="1.25" y="1.19" width="15.5" height="15.5" rx="3.75"/><path d="M13,2.44a2.51,2.51,0,0,1,2.5,2.5v8a2.5,2.5,0,0,1-2.5,2.5H5a2.5,2.5,0,0,1-2.5-2.5v-8A2.51,2.51,0,0,1,5,2.44h8m0-2.5H5a5,5,0,0,0-5,5v8a5,5,0,0,0,5,5h8a5,5,0,0,0,5-5v-8a5,5,0,0,0-5-5Z"/><rect class="cls-1" x="47.25" y="1.19" width="15.5" height="15.5" rx="3.75"/><path d="M59,2.44a2.51,2.51,0,0,1,2.5,2.5v8a2.5,2.5,0,0,1-2.5,2.5H51a2.5,2.5,0,0,1-2.5-2.5v-8A2.51,2.51,0,0,1,51,2.44h8m0-2.5H51a5,5,0,0,0-5,5v8a5,5,0,0,0,5,5h8a5,5,0,0,0,5-5v-8a5,5,0,0,0-5-5Z"/><rect class="cls-1" x="24.25" y="1.19" width="15.5" height="15.5" rx="3.75"/><path d="M36,2.44a2.51,2.51,0,0,1,2.5,2.5v8a2.5,2.5,0,0,1-2.5,2.5H28a2.5,2.5,0,0,1-2.5-2.5v-8A2.51,2.51,0,0,1,28,2.44h8m0-2.5H28a5,5,0,0,0-5,5v8a5,5,0,0,0,5,5h8a5,5,0,0,0,5-5v-8a5,5,0,0,0-5-5Z"/><rect class="cls-1" x="47.25" y="47.31" width="15.5" height="15.5" rx="3.75"/><path d="M59,48.56a2.5,2.5,0,0,1,2.5,2.5v8a2.51,2.51,0,0,1-2.5,2.5H51a2.51,2.51,0,0,1-2.5-2.5v-8a2.5,2.5,0,0,1,2.5-2.5h8m0-2.5H51a5,5,0,0,0-5,5v8a5,5,0,0,0,5,5h8a5,5,0,0,0,5-5v-8a5,5,0,0,0-5-5Z"/><rect class="cls-1" x="47.25" y="24.25" width="15.5" height="15.5" rx="3.75"/><path d="M59,25.5A2.5,2.5,0,0,1,61.5,28v8A2.5,2.5,0,0,1,59,38.5H51A2.5,2.5,0,0,1,48.5,36V28A2.5,2.5,0,0,1,51,25.5h8M59,23H51a5,5,0,0,0-5,5v8a5,5,0,0,0,5,5h8a5,5,0,0,0,5-5V28a5,5,0,0,0-5-5Z"/></g><g id="nazwy"><polygon class="cls-2" points="-1092.11 -469.48 -767.62 -469.48 -767.62 -129.41 165.97 -121.33 165.97 -15.9 166.82 160.66 -92.19 160.66 -1188.47 160.66 -1189.92 -362.64 -1382.65 -364.18 -1382.65 -528.95 -1092.11 -528.88 -1092.11 -469.48"/></g><g id="Warstwa_1" data-name="Warstwa 1"><path class="cls-1" d="M1.25,62.89A19.49,19.49,0,0,1,12.1,45.72,13,13,0,0,0,29.8,46,19.57,19.57,0,0,1,40.2,62.89Z"/><path d="M11.91,47.23a14.28,14.28,0,0,0,9.16,3.34A14.06,14.06,0,0,0,30,47.46a18.35,18.35,0,0,1,8.94,14.18H2.57a18.22,18.22,0,0,1,9.34-14.41m.46-3A20.75,20.75,0,0,0,0,63.19c0,.31,0,.63,0,1H41.43c0-.32,0-.64,0-1A20.73,20.73,0,0,0,29.56,44.43a11.73,11.73,0,0,1-17.19-.22Z"/><path class="cls-1" d="M21.07,44a9,9,0,1,1,6.16-2.44A8.92,8.92,0,0,1,21.07,44Z"/><path d="M21.07,27.29A7.75,7.75,0,0,1,28.81,35a7.67,7.67,0,0,1-2.43,5.64,7.75,7.75,0,0,1-5.31,2.1,7.74,7.74,0,0,1,0-15.48m0-2.5A10.24,10.24,0,1,0,31.31,35,10.23,10.23,0,0,0,21.07,24.79Z"/></g></svg>