<svg xmlns="http://www.w3.org/2000/svg" xmlns:xlink="http://www.w3.org/1999/xlink" viewBox="0 0 64 64"><defs><style>.cls-1{fill:url(#Gradient_bez_nazwy_2);}.cls-2{fill:none;stroke:red;stroke-miterlimit:10;stroke-width:3px;}</style><linearGradient id="Gradient_bez_nazwy_2" x1="14.18" y1="52.87" x2="51" y2="22.03" gradientUnits="userSpaceOnUse"><stop offset="0.01" stop-color="#d7e1ed"/><stop offset="1" stop-color="#eaf0f9"/></linearGradient></defs><g id="Warstwa_1" data-name="Warstwa 1"><path class="cls-1" d="M32-.15a8.16,8.16,0,0,0-8.14,7.78A21.69,21.69,0,0,0,10.14,27.85V40.07A26.17,26.17,0,0,0,5.69,54.71v1.71H24.06a8.14,8.14,0,0,0,15.92,0H58.34V54.71a26.11,26.11,0,0,0-4.73-15.06V27.85A21.73,21.73,0,0,0,40.16,7.75,8.15,8.15,0,0,0,32-.15Z"/><path d="M32,2.35a5.68,5.68,0,0,1,5.64,5.47l.05,1.62,1.5.62a19.17,19.17,0,0,1,11.9,17.79V40.44l.45.64a23.66,23.66,0,0,1,4.27,12.84H38l-.42,2a5.65,5.65,0,0,1-11,0l-.42-2H8.21a23.61,23.61,0,0,1,4-12.46l.42-.63v-13A19.1,19.1,0,0,1,24.8,10l1.51-.6.07-1.62A5.63,5.63,0,0,1,32,2.35m0-2.5a8.16,8.16,0,0,0-8.14,7.78A21.69,21.69,0,0,0,10.14,27.85V40.07A26.17,26.17,0,0,0,5.69,54.71v1.71H24.06a8.14,8.14,0,0,0,15.92,0H58.34V54.71a26.11,26.11,0,0,0-4.73-15.06V27.85A21.73,21.73,0,0,0,40.16,7.75,8.15,8.15,0,0,0,32-.15Z"/><polygon class="cls-2" points="-588.11 -469.48 -263.62 -469.48 -263.62 -129.41 669.98 -121.33 669.98 -15.9 411.81 -15.8 411.81 160.66 -684.47 160.66 -685.92 -362.64 -878.65 -364.18 -878.65 -528.95 -588.11 -528.88 -588.11 -469.48"/></g></svg>