<svg xmlns="http://www.w3.org/2000/svg" xmlns:xlink="http://www.w3.org/1999/xlink" viewBox="0 0 64 64"><defs><style>.cls-1{fill:none;stroke:red;stroke-miterlimit:10;stroke-width:3px;}.cls-2{fill:url(#Gradient_bez_nazwy_2);}.cls-3{fill:url(#Gradient_bez_nazwy_2-2);}.cls-4{fill:url(#Gradient_bez_nazwy_2-3);}.cls-5{fill:url(#Gradient_bez_nazwy_2-4);}.cls-6{fill:url(#Gradient_bez_nazwy_2-5);}.cls-7{fill:url(#Gradient_bez_nazwy_2-6);}.cls-8{fill:#999;}.cls-9{fill:url(#Gradient_bez_nazwy_2-7);}.cls-10{fill:url(#Gradient_bez_nazwy_2-8);}.cls-11{fill:url(#Gradient_bez_nazwy_2-9);}</style><linearGradient id="Gradient_bez_nazwy_2" x1="-0.18" y1="63.97" x2="63.98" y2="63.97" gradientUnits="userSpaceOnUse"><stop offset="0.01" stop-color="#d7e1ed"/><stop offset="1" stop-color="#eaf0f9"/></linearGradient><linearGradient id="Gradient_bez_nazwy_2-2" x1="-0.18" y1="54.65" x2="63.98" y2="54.65" xlink:href="#Gradient_bez_nazwy_2"/><linearGradient id="Gradient_bez_nazwy_2-3" x1="-0.18" y1="2.45" x2="63.98" y2="2.45" xlink:href="#Gradient_bez_nazwy_2"/><linearGradient id="Gradient_bez_nazwy_2-4" x1="-0.18" y1="38.15" x2="63.98" y2="38.15" xlink:href="#Gradient_bez_nazwy_2"/><linearGradient id="Gradient_bez_nazwy_2-5" x1="-0.18" y1="55.13" x2="63.98" y2="55.13" xlink:href="#Gradient_bez_nazwy_2"/><linearGradient id="Gradient_bez_nazwy_2-6" x1="-0.18" y1="17.03" x2="63.98" y2="17.03" xlink:href="#Gradient_bez_nazwy_2"/><linearGradient id="Gradient_bez_nazwy_2-7" x1="-0.18" y1="18.18" x2="63.98" y2="18.18" xlink:href="#Gradient_bez_nazwy_2"/><linearGradient id="Gradient_bez_nazwy_2-8" x1="-0.18" y1="37.79" x2="63.98" y2="37.79" xlink:href="#Gradient_bez_nazwy_2"/><linearGradient id="Gradient_bez_nazwy_2-9" x1="-0.18" y1="2.76" x2="63.98" y2="2.76" xlink:href="#Gradient_bez_nazwy_2"/></defs><g id="nazwy"><polygon class="cls-1" points="-168.11 -469.48 156.38 -469.48 156.38 -129.41 1089.97 -121.33 1089.97 -15.9 1090.82 160.66 831.81 160.66 -264.47 160.66 -265.93 -362.64 -458.65 -364.18 -458.65 -528.95 -168.11 -528.88 -168.11 -469.48"/></g><g id="Warstwa_1" data-name="Warstwa 1"><path class="cls-2" d="M31.9,64.32A32.26,32.26,0,0,1,28,64.08l-2.14-.26h0l2.14.26a32.34,32.34,0,0,0,8.94-.15L39,63.62h0l-2.07.32A32.23,32.23,0,0,1,31.9,64.32Z"/><path class="cls-3" d="M51.62,57.55,50,58.83l-1-1.81A5.8,5.8,0,0,0,38.1,59.89h0A5.8,5.8,0,0,1,48.94,57l1,1.81,1.64-1.28a32.41,32.41,0,0,0,6.27-6.49l1.2-1.65h0l-1.19,1.65A32.41,32.41,0,0,1,51.62,57.55Z"/><path class="cls-4" d="M37.32,4.2h0a5.91,5.91,0,0,1,.2-1.51l.53-2h0l-.53,2A6,6,0,0,0,37.32,4.2Z"/><path class="cls-5" d="M4.49,38.24a5.74,5.74,0,0,0-1.92.33l-2,.72L.2,37.14a32,32,0,0,1-.38-4.89h0A31.82,31.82,0,0,0,.2,37.14l.32,2.15,2.05-.72a6,6,0,0,1,1.92-.32,5.82,5.82,0,0,1,5.81,5.8h0A5.81,5.81,0,0,0,4.49,38.24Z"/><path class="cls-6" d="M20.91,54.25a5.76,5.76,0,0,0-5.21,3.26l-.95,1.93L13,58.17a32.15,32.15,0,0,1-6.45-6.26L5.23,50.2h0l1.33,1.71A32.43,32.43,0,0,0,13,58.18l1.74,1.27.95-1.93a5.8,5.8,0,0,1,11,2.54h0A5.81,5.81,0,0,0,20.91,54.25Z"/><path class="cls-7" d="M53.76,20h0a5.83,5.83,0,0,1,2.84-5L58.37,14h0L56.6,15.05A5.85,5.85,0,0,0,53.76,20Z"/><path class="cls-8" d="M60.1,35a8.62,8.62,0,0,1,1.24.09c.09-1,.14-1.93.14-2.88a30.74,30.74,0,0,0-.28-4.05,8.21,8.21,0,0,1-1.64.16,8.31,8.31,0,0,1-4.91-15A29.79,29.79,0,0,0,50,8.86,8.32,8.32,0,0,1,34.81,4.2a8,8,0,0,1,.12-1.38c-1-.1-2-.15-3-.15a30.34,30.34,0,0,0-3.69.23,8.62,8.62,0,0,1,.18,1.76A8.3,8.3,0,0,1,13.22,9.32a29.76,29.76,0,0,0-4.81,5A8.31,8.31,0,0,1,3.85,29.55a8.16,8.16,0,0,1-1.39-.12c-.09.94-.13,1.88-.13,2.81A30.7,30.7,0,0,0,2.56,36,8.31,8.31,0,0,1,9,51a29.93,29.93,0,0,0,4.81,4.67,8.31,8.31,0,0,1,15.37,4.39,8,8,0,0,1-.16,1.62c1,.09,1.9.14,2.84.14a31.14,31.14,0,0,0,3.86-.25,8.63,8.63,0,0,1-.17-1.68,8.31,8.31,0,0,1,15.09-4.8,29.64,29.64,0,0,0,4.73-4.9A8.3,8.3,0,0,1,60.1,35ZM31.89,44A11.79,11.79,0,1,1,43.68,32.25,11.8,11.8,0,0,1,31.89,44Z"/><path class="cls-9" d="M6.54,16.09l-1.84-1h0l1.85,1a5.82,5.82,0,0,1,3.12,5.14h0A5.81,5.81,0,0,0,6.54,16.09Z"/><path class="cls-10" d="M63.74,36.17l-.24,2-2-.49a5.76,5.76,0,0,0-1.42-.18,5.82,5.82,0,0,0-5.81,5.81h0a5.82,5.82,0,0,1,5.81-5.8,6.26,6.26,0,0,1,1.42.17l2,.5.24-2A32.51,32.51,0,0,0,64,32.25h0A32.47,32.47,0,0,1,63.74,36.17Z"/><path class="cls-11" d="M25.62,2.87,25,.85h0l.66,2a5.92,5.92,0,0,1,.28,1.78h0A6,6,0,0,0,25.62,2.87Z"/><path d="M43.12,10a5.82,5.82,0,0,0,5.11-3l1-1.82,1.67,1.23a32.15,32.15,0,0,1,6.22,6L58.37,14h0L57.1,12.38a32.15,32.15,0,0,0-6.22-6L49.21,5.16,48.23,7A5.81,5.81,0,0,1,37.32,4.2h0A5.81,5.81,0,0,0,43.12,10Z"/><path d="M59.56,25.86a6.08,6.08,0,0,0,1.7-.25l2-.6.33,2A32.68,32.68,0,0,1,64,32.25h0a32.46,32.46,0,0,0-.42-5.2l-.33-2-2,.6a6.08,6.08,0,0,1-1.7.25,5.81,5.81,0,0,1-5.8-5.8h0A5.81,5.81,0,0,0,59.56,25.86Z"/><path d="M12.3,6.86,14,5.56l1,1.87A5.81,5.81,0,0,0,25.9,4.66h0A5.81,5.81,0,0,1,15,7.42L14,5.56,12.3,6.85a32.14,32.14,0,0,0-6.38,6.59L4.69,15.12h0l1.22-1.69A32.35,32.35,0,0,1,12.3,6.86Z"/><path d="M31.91.17A32.82,32.82,0,0,1,36,.43l2,.26h0L36,.43a31,31,0,0,0-4.1-.26,32.78,32.78,0,0,0-4.85.36L25,.85h0l2.1-.31A31.49,31.49,0,0,1,31.91.17Z"/><path d="M26.72,60.06h0a5.74,5.74,0,0,1-.26,1.7l-.63,2.06h0l.63-2A5.76,5.76,0,0,0,26.72,60.06Z"/><path d="M57.3,48.43l1.78,1h0l-1.79-1a5.84,5.84,0,0,1-3-5.08h0A5.8,5.8,0,0,0,57.3,48.43Z"/><path d="M38.36,61.62l.62,2h0l-.62-2a5.52,5.52,0,0,1-.26-1.72h0A5.52,5.52,0,0,0,38.36,61.62Z"/><path d="M.31,26.3l2,.54a5.7,5.7,0,0,0,1.53.21,5.81,5.81,0,0,0,5.81-5.8h0A5.82,5.82,0,0,1,3.85,27a6.12,6.12,0,0,1-1.53-.2l-2-.55L.06,28.36a31.7,31.7,0,0,0-.24,3.88h0a31.57,31.57,0,0,1,.24-3.88Z"/><path d="M10.3,44.05h0A5.81,5.81,0,0,1,7.15,49.2l-1.92,1h0l1.92-1A5.79,5.79,0,0,0,10.3,44.05Z"/><path d="M31.91,2.67a27.38,27.38,0,0,1,3,.16,10.2,10.2,0,0,0-.11,1.24h0V4.3h0A8.3,8.3,0,0,0,50,8.86a29.48,29.48,0,0,1,4.65,4.49,8.37,8.37,0,0,0-3.39,6.56h0v.23h0a8.28,8.28,0,0,0,10,8,30.76,30.76,0,0,1,.27,4.06,28,28,0,0,1-.14,2.88A7.41,7.41,0,0,0,60.1,35a8.32,8.32,0,0,0-8.31,8.2h0v.24h0a8.29,8.29,0,0,0,3.61,6.72,29.64,29.64,0,0,1-4.73,4.9A8.3,8.3,0,0,0,35.6,59.79h0V60h0a7.88,7.88,0,0,0,.17,1.53,29.47,29.47,0,0,1-3.87.25c-.94,0-1.9,0-2.84-.13a9.3,9.3,0,0,0,.16-1.49h0v-.13h0V60h0a8.31,8.31,0,0,0-15.37-4.28A30,30,0,0,1,9,51a8.23,8.23,0,0,0,3.76-6.81h0v-.13h0V44h0A8.29,8.29,0,0,0,2.56,36a28.92,28.92,0,0,1-.24-3.72c0-.93.05-1.88.14-2.82a8.07,8.07,0,0,0,1.39.12,8.33,8.33,0,0,0,8.31-8.2h0v-.09h0V21.1h0a8.24,8.24,0,0,0-3.75-6.8,29.82,29.82,0,0,1,4.82-5A8.3,8.3,0,0,0,28.4,4.76h0V4.66h0V4.52h0a8.74,8.74,0,0,0-.19-1.61,30.38,30.38,0,0,1,3.7-.23m0-2.5a31.49,31.49,0,0,0-4.85.37L25,.85l.66,2a6,6,0,0,1,.28,1.79h0A5.81,5.81,0,0,1,15,7.43L14,5.56,12.3,6.86a32.35,32.35,0,0,0-6.38,6.58L4.7,15.13l1.84,1a5.81,5.81,0,0,1,3.12,5.15h0a5.81,5.81,0,0,1-5.81,5.8,5.7,5.7,0,0,1-1.53-.21l-2-.54L.06,28.37a31.57,31.57,0,0,0-.24,3.88A32,32,0,0,0,.2,37.14l.32,2.15,2.05-.72a5.74,5.74,0,0,1,1.92-.33A5.81,5.81,0,0,1,10.3,44h0a5.79,5.79,0,0,1-3.15,5.16l-1.92,1,1.33,1.71A32.15,32.15,0,0,0,13,58.17l1.74,1.27.95-1.93a5.8,5.8,0,0,1,11,2.55h0a5.76,5.76,0,0,1-.26,1.71l-.63,2,2.14.26a32.34,32.34,0,0,0,8.94-.15L39,63.61l-.62-2a5.52,5.52,0,0,1-.26-1.72h0A5.8,5.8,0,0,1,48.94,57l1,1.81,1.64-1.28a32.41,32.41,0,0,0,6.27-6.49l1.19-1.65-1.78-1a5.8,5.8,0,0,1-3-5.09h0a5.82,5.82,0,0,1,5.81-5.81,5.76,5.76,0,0,1,1.42.18l2,.49.24-2A32.36,32.36,0,0,0,63.56,27l-.33-2-2,.6a6.08,6.08,0,0,1-1.7.25,5.81,5.81,0,0,1-5.8-5.81h0a5.85,5.85,0,0,1,2.84-5L58.37,14,57.1,12.39a32.15,32.15,0,0,0-6.22-6L49.21,5.16,48.23,7A5.81,5.81,0,0,1,37.32,4.2h0a6,6,0,0,1,.2-1.52l.53-2L36,.43a32.82,32.82,0,0,0-4.1-.26Z"/><path d="M31.89,20.47A11.79,11.79,0,1,0,43.68,32.25,11.79,11.79,0,0,0,31.89,20.47Zm0,21.06a9.28,9.28,0,1,1,9.28-9.28A9.29,9.29,0,0,1,31.89,41.53Z"/></g></svg>