<svg id="Warstwa_1" data-name="Warstwa 1" xmlns="http://www.w3.org/2000/svg" xmlns:xlink="http://www.w3.org/1999/xlink" viewBox="0 0 64 64"><defs><style>.cls-1{fill:url(#Gradient_bez_nazwy_2);}.cls-2{fill:url(#Gradient_bez_nazwy_2-2);}.cls-3{fill:url(#Gradient_bez_nazwy_2-3);}</style><linearGradient id="Gradient_bez_nazwy_2" x1="-0.15" y1="55.3" x2="64.15" y2="55.3" gradientUnits="userSpaceOnUse"><stop offset="0.01" stop-color="#d7e1ed"/><stop offset="1" stop-color="#eaf0f9"/></linearGradient><linearGradient id="Gradient_bez_nazwy_2-2" x1="-0.16" y1="9.1" x2="64.14" y2="9.1" xlink:href="#Gradient_bez_nazwy_2"/><linearGradient id="Gradient_bez_nazwy_2-3" x1="-0.16" y1="32.25" x2="64.14" y2="32.25" xlink:href="#Gradient_bez_nazwy_2"/></defs><rect class="cls-1" x="2.35" y="48.8" width="59.3" height="13" rx="3.5"/><path d="M58.16,46.3H5.86a6,6,0,0,0-6,6v6a6,6,0,0,0,6,6h52.3a6,6,0,0,0,6-6v-6A6,6,0,0,0,58.16,46.3Zm3.5,12a3.5,3.5,0,0,1-3.5,3.5H5.86a3.5,3.5,0,0,1-3.5-3.5v-6a3.5,3.5,0,0,1,3.5-3.5h52.3a3.5,3.5,0,0,1,3.5,3.5Z"/><rect class="cls-2" x="2.34" y="2.6" width="59.3" height="13" rx="3.5"/><path d="M58.15.1H5.85a6,6,0,0,0-6,6v6a6,6,0,0,0,6,6h52.3a6,6,0,0,0,6-6v-6A6,6,0,0,0,58.15.1Zm3.5,12a3.5,3.5,0,0,1-3.5,3.5H5.85a3.5,3.5,0,0,1-3.5-3.5v-6a3.5,3.5,0,0,1,3.5-3.5h52.3a3.5,3.5,0,0,1,3.5,3.5Z"/><rect class="cls-3" x="2.34" y="25.75" width="59.3" height="13" rx="3.5"/><path d="M58.15,23.25H5.85a6,6,0,0,0-6,6v6a6,6,0,0,0,6,6h52.3a6,6,0,0,0,6-6v-6A6,6,0,0,0,58.15,23.25Zm3.5,12a3.5,3.5,0,0,1-3.5,3.5H5.85a3.5,3.5,0,0,1-3.5-3.5v-6a3.5,3.5,0,0,1,3.5-3.5h52.3a3.5,3.5,0,0,1,3.5,3.5Z"/></svg>