<svg xmlns="http://www.w3.org/2000/svg" viewBox="0 0 64 64"><defs><style>.cls-1{fill:#999;}.cls-2{fill:none;stroke:red;stroke-miterlimit:10;stroke-width:3px;}</style></defs><g id="czarne_lot" data-name="czarne lot"><rect class="cls-1" x="1.25" y="1.19" width="15.5" height="15.5" rx="3.75"/><path d="M13,2.44a2.51,2.51,0,0,1,2.5,2.5v8a2.5,2.5,0,0,1-2.5,2.5H5a2.5,2.5,0,0,1-2.5-2.5v-8A2.51,2.51,0,0,1,5,2.44h8m0-2.5H5a5,5,0,0,0-5,5v8a5,5,0,0,0,5,5h8a5,5,0,0,0,5-5v-8a5,5,0,0,0-5-5Z"/><rect class="cls-1" x="47.25" y="1.19" width="15.5" height="15.5" rx="3.75"/><path d="M59,2.44a2.51,2.51,0,0,1,2.5,2.5v8a2.5,2.5,0,0,1-2.5,2.5H51a2.5,2.5,0,0,1-2.5-2.5v-8A2.51,2.51,0,0,1,51,2.44h8m0-2.5H51a5,5,0,0,0-5,5v8a5,5,0,0,0,5,5h8a5,5,0,0,0,5-5v-8a5,5,0,0,0-5-5Z"/><rect class="cls-1" x="24.25" y="1.19" width="15.5" height="15.5" rx="3.75"/><path d="M36,2.44a2.51,2.51,0,0,1,2.5,2.5v8a2.5,2.5,0,0,1-2.5,2.5H28a2.5,2.5,0,0,1-2.5-2.5v-8A2.51,2.51,0,0,1,28,2.44h8m0-2.5H28a5,5,0,0,0-5,5v8a5,5,0,0,0,5,5h8a5,5,0,0,0,5-5v-8a5,5,0,0,0-5-5Z"/><rect class="cls-1" x="1.25" y="47.31" width="15.5" height="15.5" rx="3.75"/><path d="M13,48.56a2.5,2.5,0,0,1,2.5,2.5v8a2.51,2.51,0,0,1-2.5,2.5H5a2.51,2.51,0,0,1-2.5-2.5v-8A2.5,2.5,0,0,1,5,48.56h8m0-2.5H5a5,5,0,0,0-5,5v8a5,5,0,0,0,5,5h8a5,5,0,0,0,5-5v-8a5,5,0,0,0-5-5Z"/><rect class="cls-1" x="47.25" y="47.31" width="15.5" height="15.5" rx="3.75"/><path d="M59,48.56a2.5,2.5,0,0,1,2.5,2.5v8a2.51,2.51,0,0,1-2.5,2.5H51a2.51,2.51,0,0,1-2.5-2.5v-8a2.5,2.5,0,0,1,2.5-2.5h8m0-2.5H51a5,5,0,0,0-5,5v8a5,5,0,0,0,5,5h8a5,5,0,0,0,5-5v-8a5,5,0,0,0-5-5Z"/><rect class="cls-1" x="24.25" y="47.31" width="15.5" height="15.5" rx="3.75"/><path d="M36,48.56a2.5,2.5,0,0,1,2.5,2.5v8a2.51,2.51,0,0,1-2.5,2.5H28a2.51,2.51,0,0,1-2.5-2.5v-8a2.5,2.5,0,0,1,2.5-2.5h8m0-2.5H28a5,5,0,0,0-5,5v8a5,5,0,0,0,5,5h8a5,5,0,0,0,5-5v-8a5,5,0,0,0-5-5Z"/><rect class="cls-1" x="1.25" y="24.25" width="15.5" height="15.5" rx="3.75"/><path d="M13,25.5A2.5,2.5,0,0,1,15.5,28v8A2.5,2.5,0,0,1,13,38.5H5A2.5,2.5,0,0,1,2.5,36V28A2.5,2.5,0,0,1,5,25.5h8M13,23H5a5,5,0,0,0-5,5v8a5,5,0,0,0,5,5h8a5,5,0,0,0,5-5V28a5,5,0,0,0-5-5Z"/><rect class="cls-1" x="47.25" y="24.25" width="15.5" height="15.5" rx="3.75"/><path d="M59,25.5A2.5,2.5,0,0,1,61.5,28v8A2.5,2.5,0,0,1,59,38.5H51A2.5,2.5,0,0,1,48.5,36V28A2.5,2.5,0,0,1,51,25.5h8M59,23H51a5,5,0,0,0-5,5v8a5,5,0,0,0,5,5h8a5,5,0,0,0,5-5V28a5,5,0,0,0-5-5Z"/><rect class="cls-1" x="24.25" y="24.25" width="15.5" height="15.5" rx="3.75"/><path d="M36,25.5A2.5,2.5,0,0,1,38.5,28v8A2.5,2.5,0,0,1,36,38.5H28A2.5,2.5,0,0,1,25.5,36V28A2.5,2.5,0,0,1,28,25.5h8M36,23H28a5,5,0,0,0-5,5v8a5,5,0,0,0,5,5h8a5,5,0,0,0,5-5V28a5,5,0,0,0-5-5Z"/></g><g id="nazwy"><polygon class="cls-2" points="-1008.11 -469.48 -683.62 -469.48 -683.62 -129.41 249.97 -121.33 249.97 -15.9 250.82 160.66 -8.19 160.66 -1104.47 160.66 -1105.92 -362.64 -1298.65 -364.18 -1298.65 -528.95 -1008.11 -528.88 -1008.11 -469.48"/></g></svg>